#N canvas -8 -8 1366 685 12;
#X obj 73 67 inlet;
#X obj 360 67 inlet;
#X obj 409 67 inlet;
#X obj 458 67 inlet;
#X obj 525 67 inlet;
#X obj 297 493 vline~;
#X obj 296 532 *~;
#X obj 217 226 t b f;
#X obj 217 454 f;
#X obj 217 305 delay 10;
#X msg 342 396 1 \$1;
#X obj 342 362 f;
#X obj 373 333 delay;
#X msg 440 425 \$1 \$2;
#X obj 440 396 pack f f;
#X obj 440 362 f;
#X obj 296 571 outlet~;
#X msg 507 425 0 \$1;
#X obj 217 194 sel 0;
#X obj 507 291 bng 15 250 50 0 empty empty empty 17 7 0 10 -262144
-1 -1;
#X obj 507 316 f;
#X obj 296 305 f;
#X msg 297 375 0 \$1;
#X obj 73 155 expr if ($f1==1 \, 0 \, 1);
#X obj 145 256 * 10;
#X obj 217 264 spigot;
#X obj 279 264 spigot;
#X obj 73 126 route legato anticlip;
#X obj 440 454 spigot;
#X obj 241 155 t f f;
#X connect 0 0 27 0;
#X connect 1 0 11 1;
#X connect 1 0 12 1;
#X connect 2 0 14 1;
#X connect 3 0 15 1;
#X connect 4 0 20 1;
#X connect 5 0 6 0;
#X connect 6 0 16 0;
#X connect 7 0 21 0;
#X connect 7 0 25 0;
#X connect 7 0 26 0;
#X connect 7 1 8 1;
#X connect 8 0 6 1;
#X connect 9 0 8 0;
#X connect 9 0 11 0;
#X connect 9 0 12 0;
#X connect 10 0 5 0;
#X connect 11 0 10 0;
#X connect 12 0 15 0;
#X connect 13 0 28 0;
#X connect 14 0 13 0;
#X connect 15 0 14 0;
#X connect 17 0 5 0;
#X connect 18 0 19 0;
#X connect 18 1 7 0;
#X connect 19 0 20 0;
#X connect 20 0 17 0;
#X connect 21 0 22 0;
#X connect 22 0 5 0;
#X connect 23 0 25 1;
#X connect 24 0 9 1;
#X connect 24 0 21 1;
#X connect 25 0 9 0;
#X connect 26 0 11 0;
#X connect 26 0 12 0;
#X connect 27 0 23 0;
#X connect 27 0 26 1;
#X connect 27 1 24 0;
#X connect 27 2 29 0;
#X connect 28 0 5 0;
#X connect 29 0 18 0;
#X connect 29 1 28 1;
