#N canvas -8 -8 1366 685 12;
#X obj 93 41 sig~;
#X obj 93 70 /~;
#X obj 93 99 *~;
#X obj 93 128 phasor~;
#X obj 93 157 snapshot~;
#X obj 93 186 *;
#X obj 408 12 inlet;
#X obj 408 41 t b b;
#X obj 93 215 +;
#X obj 93 244 t f f;
#X obj 126 273 +;
#X obj 93 302 pack f f f;
#X msg 93 331 \$1 \, \$2 \$3;
#X obj 93 360 line~;
#X obj 93 389 expr~ $v1%$f2;
#X obj 12 487 *~;
#X obj 12 516 outlet~;
#X obj 180 487 *~;
#X obj 180 516 outlet~;
#X obj 360 254 f;
#X obj 360 293 pack f f;
#X msg 360 322 0 \, \$1 \$2;
#X obj 360 351 line~;
#X obj 360 448 *~;
#X obj 521 409 selector8~, f 11;
#X obj 531 351 sig~ 1;
#X obj 552 12 inlet;
#X obj 670 71 route manual noteon;
#X msg 719 125 0;
#X msg 744 125 1;
#X obj 680 125 f;
#X obj 680 154 spigot;
#X obj 680 105 bng 15 250 50 0 empty empty empty 17 7 0 10 -262144
-1 -1;
#X obj 139 99 r \$0-phase;
#X obj 670 183 s \$0-phase;
#X text 593 12 midi note;
#X text 449 12 grain on;
#X obj 408 99 s \$0-on;
#X obj 360 196 r \$0-on;
#X obj 30 128 r \$0-on;
#X obj 440 70 s \$0-randomize;
#N canvas -8 -8 1366 685 pitch 0;
#X obj 12 380 outlet;
#X obj 12 312 f;
#X obj 12 341 *;
#X obj 12 196 -;
#X obj 12 225 expr pow(2 \, $f1/12)*$f2;
#X obj 170 147 mtof;
#X obj 12 254 /;
#X obj 47 283 t b f;
#X obj 12 11 r \$0-midiNote;
#X obj 47 157 t b f;
#X obj 205 79 t b f;
#X obj 170 118 -;
#N canvas -8 -8 1366 685 pitch-offset 0;
#X obj 12 390 outlet;
#X obj 12 41 random 100;
#X obj 12 70 expr $f1<$f2;
#X obj 42 216 random;
#X obj 12 12 r \$0-randomize;
#X obj 42 274 t b f;
#X obj 42 303 f;
#X obj 42 361 expr $f1-($f2*$f3);
#X obj 42 245 * 0.01;
#X obj 81 157 expr abs($f1*100) \; if($f1>0 \, 1 \, 0), f 20;
#X obj 42 332 spigot;
#X obj 81 317 tgl 15 0 empty empty empty 17 7 0 10 -262144 -1 -1 0
1;
#X obj 179 332 spigot;
#X obj 218 317 tgl 15 0 empty empty empty 17 7 0 10 -262144 -1 -1 1
1;
#X obj 218 200 expr if($f1==0 \, 1 \, 0);
#X obj 179 361 expr $f1+($f2*$f3);
#X msg 12 128 0;
#X obj 12 99 sel 0 1, f 9;
#X obj 93 41 r dMab-offset-pitch-amount;
#X obj 60 128 r dMab-offset-pitch;
#X obj 165 292 r dMab-offset-pitch-precis;
#X connect 1 0 2 0;
#X connect 2 0 17 0;
#X connect 3 0 8 0;
#X connect 4 0 1 0;
#X connect 5 0 6 0;
#X connect 5 1 7 1;
#X connect 5 1 15 1;
#X connect 6 0 10 0;
#X connect 6 0 12 0;
#X connect 7 0 0 0;
#X connect 8 0 5 0;
#X connect 9 0 3 1;
#X connect 9 1 11 0;
#X connect 9 1 14 0;
#X connect 10 0 7 0;
#X connect 11 0 10 1;
#X connect 12 0 15 0;
#X connect 13 0 12 1;
#X connect 14 0 13 0;
#X connect 15 0 0 0;
#X connect 16 0 0 0;
#X connect 17 0 16 0;
#X connect 17 1 3 0;
#X connect 18 0 2 1;
#X connect 19 0 6 1;
#X connect 19 0 9 0;
#X connect 20 0 7 2;
#X connect 20 0 15 2;
#X restore 205 50 pd pitch-offset;
#X obj 47 254 inlet;
#X obj 170 21 r dMab-sample-note;
#X connect 1 0 2 0;
#X connect 2 0 0 0;
#X connect 3 0 4 0;
#X connect 4 0 6 0;
#X connect 5 0 4 1;
#X connect 5 0 6 1;
#X connect 6 0 1 0;
#X connect 7 0 1 0;
#X connect 7 1 2 1;
#X connect 8 0 3 0;
#X connect 9 0 3 0;
#X connect 9 1 3 1;
#X connect 10 0 11 0;
#X connect 10 1 11 1;
#X connect 11 0 9 0;
#X connect 11 0 5 0;
#X connect 12 0 10 0;
#X connect 13 0 7 0;
#X connect 14 0 11 0;
#X restore 144 244 pd pitch;
#N canvas -8 -8 1366 685 time-offset 0;
#X obj 12 390 outlet;
#X obj 12 41 random 100;
#X obj 12 70 expr $f1<$f2;
#X obj 42 216 random;
#X obj 12 12 r \$0-randomize;
#X obj 42 274 t b f;
#X obj 42 303 f;
#X obj 42 361 expr $f1-($f2*$f3);
#X obj 42 245 * 0.01;
#X obj 81 157 expr abs($f1*100) \; if($f1>0 \, 1 \, 0), f 20;
#X obj 42 332 spigot;
#X obj 81 317 tgl 15 0 empty empty empty 17 7 0 10 -262144 -1 -1 0
1;
#X obj 179 332 spigot;
#X obj 218 317 tgl 15 0 empty empty empty 17 7 0 10 -262144 -1 -1 1
1;
#X obj 218 200 expr if($f1==0 \, 1 \, 0);
#X obj 179 361 expr $f1+($f2*$f3);
#X msg 12 128 0;
#X obj 12 99 sel 0 1, f 9;
#X obj 165 292 r dMab-offset-time-precis;
#X obj 60 128 r dMab-offset-time;
#X obj 93 41 r dMab-offset-time-amount;
#X connect 1 0 2 0;
#X connect 2 0 17 0;
#X connect 3 0 8 0;
#X connect 4 0 1 0;
#X connect 5 0 6 0;
#X connect 5 1 7 1;
#X connect 5 1 15 1;
#X connect 6 0 10 0;
#X connect 6 0 12 0;
#X connect 7 0 0 0;
#X connect 8 0 5 0;
#X connect 9 0 3 1;
#X connect 9 1 11 0;
#X connect 9 1 14 0;
#X connect 10 0 7 0;
#X connect 11 0 10 1;
#X connect 12 0 15 0;
#X connect 13 0 12 1;
#X connect 14 0 13 0;
#X connect 15 0 0 0;
#X connect 16 0 0 0;
#X connect 17 0 16 0;
#X connect 17 1 3 0;
#X connect 18 0 7 2;
#X connect 18 0 15 2;
#X connect 19 0 6 1;
#X connect 19 0 9 0;
#X connect 20 0 2 1;
#X restore 128 186 pd time-offset;
#X obj 552 41 s \$0-midiNote;
#X obj 93 12 r dMab-sample-rate;
#X obj 378 225 r dMab-window-duration;
#X obj 539 380 tabread4~ dMab-smooth;
#X obj 360 409 tabread4~ dMab-window;
#X obj 12 428 tabread4~ dMab-sampleL;
#X obj 180 428 tabread4~ dMab-sampleR;
#X obj 670 12 r dMab-playhead-pos;
#X obj 128 70 r dMab-speed;
#X obj 521 322 r dMab-window-smooth;
#N canvas 676 0 681 676 duration-offset 0;
#X obj 12 390 outlet;
#X obj 12 41 random 100;
#X obj 12 70 expr $f1<$f2;
#X obj 42 216 random;
#X obj 12 12 r \$0-randomize;
#X obj 42 274 t b f;
#X obj 42 303 f;
#X obj 42 361 expr $f1-($f2*$f3);
#X obj 42 245 * 0.01;
#X obj 81 157 expr abs($f1*100) \; if($f1>0 \, 1 \, 0), f 20;
#X obj 42 332 spigot;
#X obj 81 317 tgl 15 0 empty empty empty 17 7 0 10 -262144 -1 -1 0
1;
#X obj 179 332 spigot;
#X obj 218 317 tgl 15 0 empty empty empty 17 7 0 10 -262144 -1 -1 1
1;
#X obj 218 200 expr if($f1==0 \, 1 \, 0);
#X obj 179 361 expr $f1+($f2*$f3);
#X msg 12 128 0;
#X obj 60 128 r dMab-offset-duration;
#X obj 165 292 r dMab-offset-duration-precis;
#X obj 93 41 r dMab-offset-duration-amount;
#X obj 12 99 sel 0 1, f 9;
#X connect 1 0 2 0;
#X connect 2 0 20 0;
#X connect 3 0 8 0;
#X connect 4 0 1 0;
#X connect 5 0 6 0;
#X connect 5 1 7 1;
#X connect 5 1 15 1;
#X connect 6 0 10 0;
#X connect 6 0 12 0;
#X connect 7 0 0 0;
#X connect 8 0 5 0;
#X connect 9 0 3 1;
#X connect 9 1 11 0;
#X connect 9 1 14 0;
#X connect 10 0 7 0;
#X connect 11 0 10 1;
#X connect 12 0 15 0;
#X connect 13 0 12 1;
#X connect 14 0 13 0;
#X connect 15 0 0 0;
#X connect 16 0 0 0;
#X connect 17 0 6 1;
#X connect 17 0 9 0;
#X connect 18 0 7 2;
#X connect 18 0 15 2;
#X connect 19 0 2 1;
#X connect 20 0 16 0;
#X connect 20 1 3 0;
#X restore 247 118 pd duration-offset;
#X obj 237 176 +;
#X obj 247 147 t b f;
#X obj 566 229 inlet;
#X text 607 229 switch stuff;
#X msg 566 283 0 5;
#X obj 566 258 bng 15 250 50 0 empty empty empty 17 7 0 10 -262144
-1 -1;
#X obj 237 89 r dMab-grain-duration;
#N canvas 0 50 450 300 samptoms 0;
#X obj 53 127 expr $f1/($f2*0.001);
#X obj 190 98 r dMab-sample-rate;
#X obj 53 88 inlet;
#X obj 53 166 outlet;
#X connect 0 0 3 0;
#X connect 1 0 0 1;
#X connect 2 0 0 0;
#X restore 269 254 pd samptoms;
#X obj 237 205 sel 0;
#X obj 181 41 r dMab-sample-duration;
#X connect 0 0 1 0;
#X connect 1 0 2 0;
#X connect 2 0 3 0;
#X connect 3 0 4 0;
#X connect 4 0 5 0;
#X connect 5 0 8 0;
#X connect 6 0 7 0;
#X connect 7 0 37 0;
#X connect 7 1 40 0;
#X connect 8 0 9 0;
#X connect 9 0 11 0;
#X connect 9 1 10 0;
#X connect 10 0 11 1;
#X connect 11 0 12 0;
#X connect 12 0 13 0;
#X connect 13 0 14 0;
#X connect 14 0 48 0;
#X connect 14 0 49 0;
#X connect 15 0 16 0;
#X connect 17 0 18 0;
#X connect 19 0 20 0;
#X connect 20 0 21 0;
#X connect 21 0 22 0;
#X connect 22 0 46 0;
#X connect 22 0 47 0;
#X connect 23 0 17 1;
#X connect 23 0 15 1;
#X connect 24 0 23 1;
#X connect 25 0 24 1;
#X connect 26 0 32 0;
#X connect 26 0 43 0;
#X connect 27 0 28 0;
#X connect 27 0 34 0;
#X connect 27 1 29 0;
#X connect 27 1 30 1;
#X connect 28 0 31 1;
#X connect 29 0 31 1;
#X connect 30 0 31 0;
#X connect 31 0 34 0;
#X connect 32 0 30 0;
#X connect 33 0 3 1;
#X connect 38 0 19 0;
#X connect 39 0 4 0;
#X connect 41 0 10 1;
#X connect 42 0 8 1;
#X connect 44 0 0 0;
#X connect 45 0 19 1;
#X connect 46 0 24 2;
#X connect 47 0 23 0;
#X connect 48 0 15 0;
#X connect 49 0 17 0;
#X connect 50 0 27 0;
#X connect 51 0 2 1;
#X connect 52 0 24 0;
#X connect 53 0 55 0;
#X connect 54 0 62 0;
#X connect 55 0 54 0;
#X connect 55 1 54 1;
#X connect 56 0 59 0;
#X connect 58 0 22 0;
#X connect 59 0 58 0;
#X connect 60 0 54 0;
#X connect 61 0 20 1;
#X connect 61 0 11 2;
#X connect 62 1 41 0;
#X connect 62 1 61 0;
#X connect 63 0 1 1;
#X connect 63 0 5 1;
#X connect 63 0 14 1;
