#N canvas 676 0 681 676 12;
#X obj 93 41 sig~;
#X obj 93 70 /~;
#X obj 93 99 *~;
#X obj 93 128 phasor~;
#X obj 93 157 snapshot~;
#X obj 93 186 *;
#X obj 408 12 inlet;
#X obj 408 41 t b b;
#X obj 93 215 +;
#X obj 93 244 t f f;
#X obj 126 273 +;
#X obj 93 302 pack f f f;
#X msg 93 331 \$1 \, \$2 \$3;
#X obj 93 360 line~;
#X obj 93 389 expr~ $v1%$f2;
#X obj 93 511 *~;
#X obj 93 540 outlet~;
#X obj 180 511 *~;
#X obj 180 540 outlet~;
#X obj 360 254 f;
#X obj 360 293 pack f f;
#X msg 360 322 0 \, \$1 \$2;
#X obj 360 351 line~;
#X obj 360 448 *~;
#X obj 552 12 inlet;
#X obj 657 99 route manual noteon;
#X msg 706 158 0;
#X msg 731 158 1;
#X obj 667 158 f;
#X obj 667 187 spigot;
#X obj 667 138 bng 15 250 50 0 empty empty empty 17 7 0 10 #fcfcfc
#000000 #000000;
#X obj 139 99 r \$0-phase;
#X obj 657 216 s \$0-phase;
#X text 593 12 midi note;
#X text 449 12 grain on;
#X obj 408 99 s \$0-on;
#X obj 360 172 r \$0-on;
#X obj 30 128 r \$0-on;
#X obj 440 70 s \$0-randomize;
#N canvas -8 -8 1366 685 pitch 0;
#X obj 12 380 outlet;
#X obj 12 312 f;
#X obj 12 341 *;
#X obj 12 196 -;
#X obj 12 225 expr pow(2 \, $f1/12)*$f2;
#X obj 170 147 mtof;
#X obj 12 254 /;
#X obj 47 283 t b f;
#X obj 12 11 r \$0-midiNote;
#X obj 47 157 t b f;
#X obj 205 79 t b f;
#X obj 170 118 -;
#N canvas -8 -8 1366 685 pitch-offset 0;
#X obj 12 390 outlet;
#X obj 12 41 random 100;
#X obj 12 70 expr $f1<$f2;
#X obj 42 216 random;
#X obj 12 12 r \$0-randomize;
#X obj 42 274 t b f;
#X obj 42 303 f;
#X obj 42 361 expr $f1-($f2*$f3);
#X obj 42 245 * 0.01;
#X obj 81 157 expr abs($f1*100) \; if($f1>0 \, 1 \, 0), f 20;
#X obj 42 332 spigot;
#X obj 81 317 tgl 15 0 empty empty empty 17 7 0 10 #fcfcfc #000000
#000000 0 1;
#X obj 179 332 spigot;
#X obj 218 317 tgl 15 0 empty empty empty 17 7 0 10 #fcfcfc #000000
#000000 0 1;
#X obj 218 200 expr if($f1==0 \, 1 \, 0);
#X obj 179 361 expr $f1+($f2*$f3);
#X msg 12 128 0;
#X obj 12 99 sel 0 1, f 9;
#X obj 93 41 r \$0-offset-pitch-chance;
#X obj 60 128 r \$0-offset-pitch;
#X obj 165 292 r \$0-offset-pitch-precis;
#X connect 1 0 2 0;
#X connect 2 0 17 0;
#X connect 3 0 8 0;
#X connect 4 0 1 0;
#X connect 5 0 6 0;
#X connect 5 1 7 1;
#X connect 5 1 15 1;
#X connect 6 0 10 0;
#X connect 6 0 12 0;
#X connect 7 0 0 0;
#X connect 8 0 5 0;
#X connect 9 0 3 1;
#X connect 9 1 11 0;
#X connect 9 1 14 0;
#X connect 10 0 7 0;
#X connect 11 0 10 1;
#X connect 12 0 15 0;
#X connect 13 0 12 1;
#X connect 14 0 13 0;
#X connect 15 0 0 0;
#X connect 16 0 0 0;
#X connect 17 0 16 0;
#X connect 17 1 3 0;
#X connect 18 0 2 1;
#X connect 19 0 6 1;
#X connect 19 0 9 0;
#X connect 20 0 7 2;
#X connect 20 0 15 2;
#X restore 205 50 pd pitch-offset;
#X obj 47 254 inlet;
#X obj 170 21 r \$0-sample-note;
#X connect 1 0 2 0;
#X connect 2 0 0 0;
#X connect 3 0 4 0;
#X connect 4 0 6 0;
#X connect 5 0 4 1;
#X connect 5 0 6 1;
#X connect 6 0 1 0;
#X connect 7 0 1 0;
#X connect 7 1 2 1;
#X connect 8 0 3 0;
#X connect 9 0 3 0;
#X connect 9 1 3 1;
#X connect 10 0 11 0;
#X connect 10 1 11 1;
#X connect 11 0 9 0;
#X connect 11 0 5 0;
#X connect 12 0 10 0;
#X connect 13 0 7 0;
#X connect 14 0 11 0;
#X restore 144 244 pd pitch;
#N canvas -8 -8 1366 685 time-offset 0;
#X obj 12 390 outlet;
#X obj 12 41 random 100;
#X obj 12 70 expr $f1<$f2;
#X obj 42 216 random;
#X obj 12 12 r \$0-randomize;
#X obj 42 274 t b f;
#X obj 42 303 f;
#X obj 42 361 expr $f1-($f2*$f3);
#X obj 42 245 * 0.01;
#X obj 81 157 expr abs($f1*100) \; if($f1>0 \, 1 \, 0), f 20;
#X obj 42 332 spigot;
#X obj 81 317 tgl 15 0 empty empty empty 17 7 0 10 #fcfcfc #000000
#000000 0 1;
#X obj 179 332 spigot;
#X obj 218 317 tgl 15 0 empty empty empty 17 7 0 10 #fcfcfc #000000
#000000 0 1;
#X obj 218 200 expr if($f1==0 \, 1 \, 0);
#X obj 179 361 expr $f1+($f2*$f3);
#X msg 12 128 0;
#X obj 12 99 sel 0 1, f 9;
#X obj 93 41 r \$0-offset-playhead-chance;
#X obj 60 128 r \$0-offset-playhead;
#X obj 165 292 r \$0-offset-playhead-precis;
#X connect 1 0 2 0;
#X connect 2 0 17 0;
#X connect 3 0 8 0;
#X connect 4 0 1 0;
#X connect 5 0 6 0;
#X connect 5 1 7 1;
#X connect 5 1 15 1;
#X connect 6 0 10 0;
#X connect 6 0 12 0;
#X connect 7 0 0 0;
#X connect 8 0 5 0;
#X connect 9 0 3 1;
#X connect 9 1 11 0;
#X connect 9 1 14 0;
#X connect 10 0 7 0;
#X connect 11 0 10 1;
#X connect 12 0 15 0;
#X connect 13 0 12 1;
#X connect 14 0 13 0;
#X connect 15 0 0 0;
#X connect 16 0 0 0;
#X connect 17 0 16 0;
#X connect 17 1 3 0;
#X connect 18 0 2 1;
#X connect 19 0 6 1;
#X connect 19 0 9 0;
#X connect 20 0 7 2;
#X connect 20 0 15 2;
#X restore 128 186 pd time-offset;
#X obj 552 41 s \$0-midiNote;
#N canvas 676 0 681 676 duration-offset 0;
#X obj 12 390 outlet;
#X obj 12 41 random 100;
#X obj 12 70 expr $f1<$f2;
#X obj 42 216 random;
#X obj 12 12 r \$0-randomize;
#X obj 42 274 t b f;
#X obj 42 303 f;
#X obj 42 361 expr $f1-($f2*$f3);
#X obj 42 245 * 0.01;
#X obj 81 157 expr abs($f1*100) \; if($f1>0 \, 1 \, 0), f 20;
#X obj 42 332 spigot;
#X obj 81 317 tgl 15 0 empty empty empty 17 7 0 10 #fcfcfc #000000
#000000 0 1;
#X obj 179 332 spigot;
#X obj 218 317 tgl 15 0 empty empty empty 17 7 0 10 #fcfcfc #000000
#000000 0 1;
#X obj 218 200 expr if($f1==0 \, 1 \, 0);
#X obj 179 361 expr $f1+($f2*$f3);
#X msg 12 128 0;
#X obj 12 99 sel 0 1, f 9;
#X obj 60 128 r \$0-offset-duration;
#X obj 93 41 r \$0-offset-duration-chance;
#X obj 165 292 r \$0-offset-duration-precis;
#X connect 1 0 2 0;
#X connect 2 0 17 0;
#X connect 3 0 8 0;
#X connect 4 0 1 0;
#X connect 5 0 6 0;
#X connect 5 1 7 1;
#X connect 5 1 15 1;
#X connect 6 0 10 0;
#X connect 6 0 12 0;
#X connect 7 0 0 0;
#X connect 8 0 5 0;
#X connect 9 0 3 1;
#X connect 9 1 11 0;
#X connect 9 1 14 0;
#X connect 10 0 7 0;
#X connect 11 0 10 1;
#X connect 12 0 15 0;
#X connect 13 0 12 1;
#X connect 14 0 13 0;
#X connect 15 0 0 0;
#X connect 16 0 0 0;
#X connect 17 0 16 0;
#X connect 17 1 3 0;
#X connect 18 0 6 1;
#X connect 18 0 9 0;
#X connect 19 0 2 1;
#X connect 20 0 7 2;
#X connect 20 0 15 2;
#X restore 247 128 pd duration-offset;
#X obj 237 186 +;
#X obj 247 157 t b f;
#X obj 836 31 inlet;
#X msg 269 332 0 5;
#N canvas 104 104 450 300 samptoms 0;
#X obj 53 127 expr $f1/($f2*0.001);
#X obj 53 88 inlet;
#X obj 53 166 outlet;
#X obj 190 98 r \$0-sample-rate;
#X connect 0 0 2 0;
#X connect 1 0 0 0;
#X connect 3 0 0 1;
#X restore 269 254 pd samptoms;
#X obj 237 215 sel 0;
#X obj 93 452 tabread4~;
#X obj 180 452 tabread4~;
#X obj 360 409 tabread4~;
#X msg 103 428 set \$1-sampleL;
#X msg 215 428 set \$1-sampleR;
#X text 877 31 most stuff comes through here;
#X obj 943 99 s \$0-duration;
#X obj 237 99 r \$0-duration;
#N canvas 0 50 450 300 offset 0;
#X obj 20 43 inlet;
#X obj 20 72 route playhead pitch duration;
#N canvas 0 50 450 300 playhead 0;
#X obj 26 16 inlet;
#X obj 26 74 s \$0-offset-playhead;
#X obj 26 45 route float chance precis;
#X obj 83 98 s \$0-offset-playhead-chance;
#X obj 140 122 s \$0-offset-playhead-precis;
#X connect 0 0 2 0;
#X connect 2 0 1 0;
#X connect 2 1 3 0;
#X connect 2 2 4 0;
#X restore 20 101 pd playhead;
#N canvas 0 50 450 300 pitch 0;
#X obj 26 16 inlet;
#X obj 26 45 route float chance precis;
#X obj 26 74 s \$0-offset-pitch;
#X obj 83 98 s \$0-offset-pitch-chance;
#X obj 140 122 s \$0-offset-pitch-precis;
#X connect 0 0 1 0;
#X connect 1 0 2 0;
#X connect 1 1 3 0;
#X connect 1 2 4 0;
#X restore 86 125 pd pitch;
#N canvas 0 50 450 300 duration 0;
#X obj 26 16 inlet;
#X obj 26 45 route float chance precis;
#X obj 83 98 s \$0-offset-duration-chance;
#X obj 26 74 s \$0-offset-duration;
#X obj 140 122 s \$0-offset-duration-precis;
#X connect 0 0 1 0;
#X connect 1 0 3 0;
#X connect 1 1 2 0;
#X connect 1 2 4 0;
#X restore 153 101 pd duration;
#X connect 0 0 1 0;
#X connect 1 0 2 0;
#X connect 1 1 3 0;
#X connect 1 2 4 0;
#X restore 996 128 pd offset parse;
#N canvas 130 130 450 300 window 0;
#X obj 31 31 inlet;
#X obj 31 89 s \$0-window-duration;
#X obj 93 113 s \$0-window-smooth;
#X obj 155 137 s \$0-window-shape;
#X obj 31 60 route duration smooth shape;
#X connect 0 0 4 0;
#X connect 4 0 1 0;
#X connect 4 1 2 0;
#X connect 4 2 3 0;
#X restore 1050 99 pd window;
#X obj 777 229 r \$0-window-smooth;
#X obj 378 225 r \$0-window-duration;
#N canvas 0 50 450 300 sample 0;
#X obj 14 15 inlet;
#X obj 14 44 route rate duration note;
#X obj 14 73 s \$0-sample-rate;
#X obj 69 97 s \$0-sample-duration;
#X obj 124 121 s \$0-sample-note;
#X connect 0 0 1 0;
#X connect 1 0 2 0;
#X connect 1 1 3 0;
#X connect 1 2 4 0;
#X restore 1115 128 pd sample;
#X obj 181 41 r \$0-sample-duration;
#X obj 93 12 r \$0-sample-rate;
#N canvas 0 50 450 300 playhead 0;
#X obj 53 30 inlet;
#X obj 53 59 route pos speed;
#X obj 53 88 s \$0-playhead-pos;
#X obj 104 112 s \$0-playhead-speed;
#X connect 0 0 1 0;
#X connect 1 0 2 0;
#X connect 1 1 3 0;
#X restore 1157 99 pd playhead;
#X obj 128 70 r \$0-playhead-speed;
#X obj 657 70 r \$0-playhead-pos;
#N canvas 557 147 450 296 help 0;
#X text 20 9 inlet 0: triggers the grain \, because of the way clone
object works i couldn't use a single bang because in order to orderly
traverse through every instance i needed a midi note message in conjunction
with poly object \, therefore the [1 1( whose only purpose is to then
be converted to bangs (one to calculate any random aspect of the grain
\, then another to actually trigger it);
#X text 15 140 inlet 1: actual midi note (note only \, no velocity
since that is managed by the voice patch one level above) is sent through
here to all grains simultaneously;
#X text 17 205 inlet 2: this is where most stuff is sent (power off
grains [ramp envelope down to 0 in 5 ms] \, get the \$0 value [ind]
of the main patch in order to be able to read from the sample and window
tables \, and every parameter needed [most of them]);
#X restore 13 11 pd help;
#X obj 215 399 r \$0-id;
#X obj 889 128 s \$0-id;
#X text 902 563 esta abstracción está pensada para ser instanciada
por un objeto [clone] y representa un grano que forma parte de una
voz del sintetizador;
#X text 885 154 id se utiliza para construir dinámicamente los nombres
de las tablas ubicadas en el parche principal \, para que el grano
pueda leer de ellas;
#X obj 836 99 s \$0-switch;
#X obj 440 317 r \$0-window-shape;
#X obj 440 356 list prepend;
#X obj 573 317 r \$0-id;
#X msg 440 380 set \$1-\$2;
#X obj 360 380 +~ 1;
#X obj 360 196 t b b;
#X obj 818 355 delay;
#X obj 759 442 line~;
#X obj 836 60 route switch id duration offset window sample playhead
;
#X obj 777 258 * 10;
#X obj 850 326 -;
#X obj 759 384 f;
#X obj 818 384 f;
#X msg 818 413 1 \, 0 \$1;
#X msg 759 413 0 \, 1 \$1;
#X obj 269 284 r \$0-switch;
#X obj 686 268 r \$0-switch;
#X obj 647 297 spigot;
#X obj 269 308 sel 0;
#X connect 0 0 1 0;
#X connect 1 0 2 0;
#X connect 2 0 3 0;
#X connect 3 0 4 0;
#X connect 4 0 5 0;
#X connect 5 0 8 0;
#X connect 6 0 7 0;
#X connect 7 0 35 0;
#X connect 7 1 38 0;
#X connect 8 0 9 0;
#X connect 9 0 11 0;
#X connect 9 1 10 0;
#X connect 10 0 11 1;
#X connect 11 0 12 0;
#X connect 12 0 13 0;
#X connect 13 0 14 0;
#X connect 14 0 49 0;
#X connect 14 0 50 0;
#X connect 15 0 16 0;
#X connect 17 0 18 0;
#X connect 19 0 20 0;
#X connect 20 0 21 0;
#X connect 21 0 22 0;
#X connect 22 0 77 0;
#X connect 23 0 17 1;
#X connect 23 0 15 1;
#X connect 24 0 30 0;
#X connect 24 0 41 0;
#X connect 25 0 26 0;
#X connect 25 0 32 0;
#X connect 25 1 27 0;
#X connect 25 1 28 1;
#X connect 26 0 29 1;
#X connect 27 0 29 1;
#X connect 28 0 29 0;
#X connect 29 0 32 0;
#X connect 30 0 28 0;
#X connect 31 0 3 1;
#X connect 36 0 78 0;
#X connect 37 0 4 0;
#X connect 39 0 10 1;
#X connect 40 0 8 1;
#X connect 42 0 44 0;
#X connect 43 0 48 0;
#X connect 44 0 43 0;
#X connect 44 1 43 1;
#X connect 45 0 81 0;
#X connect 46 0 22 0;
#X connect 47 0 20 1;
#X connect 47 0 11 2;
#X connect 47 0 83 0;
#X connect 48 1 39 0;
#X connect 48 1 47 0;
#X connect 49 0 15 0;
#X connect 50 0 17 0;
#X connect 51 0 23 0;
#X connect 52 0 49 0;
#X connect 53 0 50 0;
#X connect 56 0 43 0;
#X connect 59 0 82 0;
#X connect 60 0 19 1;
#X connect 62 0 1 1;
#X connect 62 0 5 1;
#X connect 62 0 14 1;
#X connect 63 0 0 0;
#X connect 65 0 2 1;
#X connect 66 0 25 0;
#X connect 68 0 52 0;
#X connect 68 0 53 0;
#X connect 73 0 74 0;
#X connect 74 0 76 0;
#X connect 75 0 74 1;
#X connect 76 0 51 0;
#X connect 77 0 51 0;
#X connect 78 0 19 0;
#X connect 78 1 90 0;
#X connect 79 0 85 0;
#X connect 80 0 23 1;
#X connect 81 0 72 0;
#X connect 81 1 69 0;
#X connect 81 2 55 0;
#X connect 81 3 57 0;
#X connect 81 4 58 0;
#X connect 81 5 61 0;
#X connect 81 6 64 0;
#X connect 82 0 83 1;
#X connect 82 0 85 1;
#X connect 82 0 84 1;
#X connect 83 0 79 1;
#X connect 84 0 87 0;
#X connect 85 0 86 0;
#X connect 86 0 80 0;
#X connect 87 0 80 0;
#X connect 88 0 91 0;
#X connect 89 0 90 1;
#X connect 90 0 84 0;
#X connect 90 0 79 0;
#X connect 91 0 46 0;
