#N canvas -8 -8 1366 685 12;
#X obj 451 147 cnv 15 392 248 empty \$0-text empty 20 12 0 14 -262144
-183085 0;
#N canvas 676 0 681 676 adsr 0;
#X msg 292 119 legato \$1;
#X msg 222 119 rel \$1;
#X msg 152 119 sus \$1;
#X obj 152 90 * 0.01;
#X msg 82 119 dec \$1;
#X msg 12 119 att \$1;
#X obj 292 12 r \$0-legato;
#X obj 222 12 r \$0-rel;
#X obj 152 12 r \$0-sus;
#X obj 82 12 r \$0-dec;
#X obj 12 12 r \$0-att;
#X msg 369 90 1;
#X obj 369 61 loadbang;
#X msg 369 119 anticlick \$1;
#X obj 12 178 list prepend adsr;
#X obj 12 207 s \$0-params;
#X connect 0 0 14 0;
#X connect 1 0 14 0;
#X connect 2 0 14 0;
#X connect 3 0 2 0;
#X connect 4 0 14 0;
#X connect 5 0 14 0;
#X connect 6 0 0 0;
#X connect 7 0 1 0;
#X connect 8 0 3 0;
#X connect 9 0 4 0;
#X connect 10 0 5 0;
#X connect 11 0 13 0;
#X connect 12 0 11 0;
#X connect 13 0 14 0;
#X connect 14 0 15 0;
#X restore 12 445 pd adsr;
#N canvas -8 -8 1366 685 window 0;
#X obj 26 192 samplerate~;
#X obj 12 138 bng 15 250 50 0 empty empty empty 17 7 0 10 -262144 -1
-1;
#X msg 104 206 0.5;
#X obj 26 216 / 2048;
#X obj 26 240 osc~;
#X obj 26 264 *~ 0.5;
#X obj 26 288 +~ 0.5;
#X obj 93 235 phasor~;
#X msg 139 206 0;
#X obj 168 264 expr~ 1-$v1;
#X obj 92 293 expr~ if($v1 > 0.5 \, 1-$v1 \, $v1)*2;
#X obj 269 371 bng 15 250 50 0 empty empty empty 17 7 0 10 -262144
-1 -1;
#X msg 350 371 2048;
#X obj 350 342 loadbang;
#X obj 26 163 r pd-dsp-started;
#X obj 12 80 sel 0;
#X obj 44 109 t b f;
#X obj 252 235 tabplay~ \$0-window-custom;
#N canvas 0 50 450 250 (subpatch) 0;
#X array \$0-window-custom 2048 float 2;
#X coords 0 1 2048 -1 100 50 1 0 0;
#X restore 837 324 graph;
#X obj 707 298 soundfiler;
#X obj 788 226 f \$0;
#X obj 788 202 loadbang;
#X obj 707 342 symbol;
#X obj 707 366 route symbol;
#X obj 707 395 bng 15 250 50 0 empty empty empty 17 7 0 10 -262144
-1 -1;
#X obj 707 322 bng 15 250 50 0 empty empty empty 17 7 0 10 -262144
-1 -1;
#X obj 707 250 list prepend;
#X msg 707 274 read \$2 \$1-window-custom;
#X obj 12 41 r \$0-window-sel;
#X obj 707 420 f;
#X obj 707 444 sel 5;
#X msg 707 468 5;
#X obj 725 391 r \$0-window-sel;
#X obj 269 342 delay 10;
#X obj 269 429 until;
#X obj 269 458 f;
#X obj 318 458 + 1;
#X obj 269 487 t f f, f 10;
#X obj 269 545 t b b;
#X msg 318 429 0;
#X obj 269 516 sel, f 12;
#X obj 350 545 t b f;
#X msg 350 574 1;
#N canvas 540 171 450 300 display-name 0;
#X obj 12 11 inlet;
#X msg 105 88 tridown;
#X msg 136 69 triup;
#X msg 12 69 straight;
#X msg 74 69 tri;
#X obj 12 40 sel 0 1 2 3 4 5, f 27;
#X msg 12 142 label \$1;
#X obj 12 118 symbol;
#X msg 167 88 custom;
#X obj 12 166 s \$0-window-sel-r;
#X msg 43 88 hann;
#X connect 0 0 5 0;
#X connect 1 0 7 0;
#X connect 2 0 7 0;
#X connect 3 0 7 0;
#X connect 4 0 7 0;
#X connect 5 0 3 0;
#X connect 5 1 10 0;
#X connect 5 2 4 0;
#X connect 5 3 1 0;
#X connect 5 4 2 0;
#X connect 5 5 8 0;
#X connect 6 0 9 0;
#X connect 7 0 6 0;
#X connect 8 0 7 0;
#X connect 10 0 7 0;
#X restore 71 80 pd display-name;
#X obj 17 337 selector~ 5;
#X obj 707 197 openpanel;
#X obj 707 173 r \$0-loadWindow;
#X msg 597 241 symbol \$1;
#X obj 567 202 symbol;
#X obj 567 265 s \$0-window-path;
#X obj 486 154 r \$0-window-path-r;
#X obj 486 178 route symbol;
#X obj 12 366 tabwrite~ \$0-win;
#X obj 350 603 tabwrite \$0-win;
#X obj 370 400 s \$0-window-duration;
#X obj 370 439 list prepend pass window duration;
#X obj 370 463 s \$0-params;
#X connect 0 0 3 0;
#X connect 1 0 2 0;
#X connect 1 0 8 0;
#X connect 1 0 17 0;
#X connect 1 0 52 0;
#X connect 2 0 4 1;
#X connect 3 0 4 0;
#X connect 3 0 7 0;
#X connect 4 0 5 0;
#X connect 5 0 6 0;
#X connect 6 0 44 1;
#X connect 7 0 9 0;
#X connect 7 0 10 0;
#X connect 7 0 44 4;
#X connect 8 0 7 1;
#X connect 9 0 44 3;
#X connect 10 0 44 2;
#X connect 11 0 34 0;
#X connect 12 0 40 1;
#X connect 12 0 54 0;
#X connect 12 0 55 0;
#X connect 13 0 12 0;
#X connect 14 0 0 0;
#X connect 15 0 33 0;
#X connect 15 1 16 0;
#X connect 16 0 1 0;
#X connect 16 1 44 0;
#X connect 17 0 44 5;
#X connect 19 0 25 0;
#X connect 20 0 26 1;
#X connect 21 0 20 0;
#X connect 22 0 23 0;
#X connect 23 0 24 0;
#X connect 24 0 29 0;
#X connect 25 0 22 0;
#X connect 26 0 27 0;
#X connect 27 0 19 0;
#X connect 28 0 15 0;
#X connect 28 0 43 0;
#X connect 29 0 30 0;
#X connect 30 0 31 0;
#X connect 31 0 16 0;
#X connect 32 0 29 1;
#X connect 33 0 11 0;
#X connect 34 0 35 0;
#X connect 35 0 37 0;
#X connect 36 0 35 1;
#X connect 37 0 40 0;
#X connect 37 1 36 0;
#X connect 38 0 39 0;
#X connect 38 1 34 1;
#X connect 39 0 35 1;
#X connect 40 0 38 0;
#X connect 40 1 41 0;
#X connect 41 0 42 0;
#X connect 41 1 53 1;
#X connect 42 0 53 0;
#X connect 44 0 52 0;
#X connect 45 0 26 0;
#X connect 45 0 47 0;
#X connect 46 0 45 0;
#X connect 47 0 49 0;
#X connect 48 0 26 0;
#X connect 48 0 49 0;
#X connect 50 0 51 0;
#X connect 51 1 48 0;
#X connect 55 0 56 0;
#X restore 12 589 pd window;
#N canvas 674 0 683 676 smooth 0;
#N canvas 0 50 450 250 (subpatch) 0;
#X array \$0-smooth 2048 float 2;
#X coords 0 1 2048 -1 100 50 1 0 0;
#X restore 12 264 graph;
#X obj 263 126 loadbang;
#X obj 263 155 delay 10;
#N canvas 0 50 450 300 fill 0;
#X obj 93 157 t b f;
#X msg 93 186 1;
#X obj 12 41 until;
#X obj 12 70 f;
#X obj 61 70 + 1;
#X obj 12 99 t f f, f 10;
#X obj 12 157 t b b;
#X msg 61 41 0;
#X obj 12 128 sel, f 12;
#X obj 12 12 inlet;
#X obj 93 215 tabwrite \$0-smooth;
#X obj 93 97 r \$0-window-duration;
#X connect 0 0 1 0;
#X connect 0 1 10 1;
#X connect 1 0 10 0;
#X connect 2 0 3 0;
#X connect 3 0 5 0;
#X connect 4 0 3 1;
#X connect 5 0 8 0;
#X connect 5 1 4 0;
#X connect 6 0 7 0;
#X connect 6 1 2 1;
#X connect 7 0 3 1;
#X connect 8 0 6 0;
#X connect 8 1 0 0;
#X connect 9 0 2 0;
#X connect 11 0 8 1;
#X restore 273 184 pd fill;
#N canvas 0 50 450 300 fadein 0;
#X obj 12 41 until;
#X obj 12 70 f;
#X obj 61 70 + 1;
#X obj 12 99 t f f, f 10;
#X obj 12 157 t b b;
#X msg 61 41 0;
#X obj 12 12 inlet;
#X obj 12 128 sel 205, f 8;
#X obj 65 157 t f f;
#X obj 65 186 / 205;
#X obj 65 215 tabwrite \$0-smooth;
#X connect 0 0 1 0;
#X connect 1 0 3 0;
#X connect 2 0 1 1;
#X connect 3 0 7 0;
#X connect 3 1 2 0;
#X connect 4 0 5 0;
#X connect 4 1 0 1;
#X connect 5 0 1 1;
#X connect 6 0 0 0;
#X connect 7 0 4 0;
#X connect 7 1 8 0;
#X connect 8 0 9 0;
#X connect 8 1 10 1;
#X connect 9 0 10 0;
#X restore 273 242 pd fadein;
#N canvas 0 50 476 300 fadeout 0;
#X obj 12 41 until;
#X obj 12 70 f;
#X obj 61 70 + 1;
#X obj 12 99 t f f, f 10;
#X obj 12 157 t b b;
#X msg 61 41 0;
#X obj 12 12 inlet;
#X obj 12 128 sel 205, f 8;
#X obj 65 157 t f f;
#X obj 65 186 / 205;
#X obj 202 176 expr $f2-2-$f1;
#X obj 65 215 tabwrite \$0-smooth;
#X obj 297 147 r \$0-window-duration;
#X connect 0 0 1 0;
#X connect 1 0 3 0;
#X connect 2 0 1 1;
#X connect 3 0 7 0;
#X connect 3 1 2 0;
#X connect 4 0 5 0;
#X connect 4 1 0 1;
#X connect 5 0 1 1;
#X connect 6 0 0 0;
#X connect 7 0 4 0;
#X connect 7 1 8 0;
#X connect 8 0 9 0;
#X connect 8 1 10 0;
#X connect 9 0 11 0;
#X connect 10 0 11 1;
#X connect 12 0 10 1;
#X restore 273 300 pd fadeout;
#X obj 263 213 delay 10;
#X obj 263 271 delay 10;
#X obj 263 329 delay 10;
#X msg 400 387 2047;
#X obj 263 358 t b b;
#X msg 263 387 0;
#X obj 12 100 + 1;
#X obj 12 71 r \$0-window-smooth;
#X obj 263 416 tabwrite \$0-smooth;
#X obj 12 129 list prepend pass window smooth;
#X obj 12 153 s \$0-params;
#X connect 1 0 2 0;
#X connect 2 0 3 0;
#X connect 2 0 6 0;
#X connect 6 0 7 0;
#X connect 6 0 4 0;
#X connect 7 0 5 0;
#X connect 7 0 8 0;
#X connect 8 0 10 0;
#X connect 9 0 14 1;
#X connect 10 0 11 0;
#X connect 10 1 9 0;
#X connect 11 0 14 0;
#X connect 12 0 15 0;
#X connect 13 0 12 0;
#X connect 15 0 16 0;
#X restore 12 565 pd smooth;
#N canvas 681 321 450 300 grain 0;
#N canvas 676 0 681 676 grain-duration 0;
#X obj 194 157 symbol;
#X msg 169 128 ms;
#X msg 209 128 samp;
#N canvas -8 -8 1366 685 unit-convert 0;
#X obj 22 182 spigot;
#X obj 61 167 tgl 15 0 empty empty empty 17 7 0 10 -262144 -1 -1 1
1;
#X obj 96 182 spigot;
#X obj 135 167 tgl 15 0 empty empty empty 17 7 0 10 -262144 -1 -1 0
1;
#X obj 12 12 inlet;
#X obj 12 128 f;
#X obj 61 12 inlet;
#X obj 61 70 list trim;
#X msg 61 128 1;
#X msg 222 128 1;
#X obj 61 41 t a b, f 11;
#X obj 61 99 route ms samp, f 26;
#X msg 135 128 0;
#X obj 22 240 expr $f1*$f2*0.001;
#X obj 22 269 list prepend pass duration;
#X obj 22 298 s \$0-params;
#X obj 145 211 r \$0-sample-rate;
#X connect 0 0 13 0;
#X connect 1 0 0 1;
#X connect 2 0 14 0;
#X connect 3 0 2 1;
#X connect 4 0 5 0;
#X connect 5 0 0 0;
#X connect 5 0 2 0;
#X connect 6 0 10 0;
#X connect 7 0 11 0;
#X connect 8 0 1 0;
#X connect 9 0 3 0;
#X connect 10 0 7 0;
#X connect 10 1 12 0;
#X connect 11 0 8 0;
#X connect 11 1 9 0;
#X connect 12 0 3 0;
#X connect 12 0 1 0;
#X connect 13 0 14 0;
#X connect 14 0 15 0;
#X connect 16 0 13 1;
#X restore 12 254 pd unit-convert;
#N canvas 676 0 681 676 unit-display 0;
#X obj 71 366 f;
#X obj 71 240 spigot;
#X obj 110 225 tgl 15 0 empty empty empty 17 7 0 10 -262144 -1 -1 1
1;
#X obj 136 240 spigot;
#X obj 175 225 tgl 15 0 empty empty empty 17 7 0 10 -262144 -1 -1 0
1;
#X msg 229 167 0;
#X obj 12 12 inlet;
#X obj 71 167 f;
#X obj 71 12 inlet;
#X msg 110 167 1;
#X msg 175 167 1;
#X obj 71 424 s \$0-grain-duration-r;
#X msg 71 395 set \$1;
#X obj 71 298 expr $f1/($f2*0.001);
#X obj 136 327 expr $f1*($f2*0.001);
#X obj 71 196 change;
#X obj 71 99 t b f b, f 23;
#X obj 110 138 sel 1 2, f 19;
#X obj 71 41 + 1;
#X obj 71 70 change;
#X obj 208 269 r \$0-sample-rate;
#X connect 0 0 12 0;
#X connect 1 0 13 0;
#X connect 2 0 1 1;
#X connect 3 0 14 0;
#X connect 4 0 3 1;
#X connect 5 0 2 0;
#X connect 5 0 4 0;
#X connect 6 0 7 1;
#X connect 7 0 15 0;
#X connect 8 0 18 0;
#X connect 9 0 2 0;
#X connect 10 0 4 0;
#X connect 12 0 11 0;
#X connect 13 0 0 0;
#X connect 13 0 7 1;
#X connect 14 0 0 0;
#X connect 14 0 7 1;
#X connect 15 0 1 0;
#X connect 15 0 3 0;
#X connect 16 0 7 0;
#X connect 16 1 17 0;
#X connect 16 2 5 0;
#X connect 17 0 9 0;
#X connect 17 1 10 0;
#X connect 18 0 19 0;
#X connect 19 0 16 0;
#X connect 20 0 13 1;
#X connect 20 0 14 1;
#X restore 22 186 pd unit-display;
#X obj 12 147 r \$0-grain-duration;
#X obj 169 70 r \$0-grain-duration-unit;
#X obj 32 225 r \$0-reload;
#X msg 194 186 label \$1;
#X obj 169 99 sel 0 1, f 12;
#X obj 194 215 s \$0-grain-duration-unit-r;
#X connect 0 0 3 1;
#X connect 0 0 8 0;
#X connect 1 0 0 0;
#X connect 2 0 0 0;
#X connect 5 0 3 0;
#X connect 5 0 4 0;
#X connect 6 0 9 0;
#X connect 6 0 4 1;
#X connect 7 0 3 0;
#X connect 8 0 10 0;
#X connect 9 0 1 0;
#X connect 9 1 2 0;
#X restore 12 12 pd grain-duration;
#N canvas -7 0 681 676 grain-rate 0;
#X obj 168 177 symbol;
#X msg 151 148 ms;
#X msg 184 148 samp;
#X obj 12 167 r \$0-grain-rate;
#X obj 151 70 r \$0-grain-rate-unit;
#X obj 32 245 r \$0-reload;
#N canvas -8 -8 1366 685 unit-convert 0;
#X obj 22 182 spigot;
#X obj 61 167 tgl 15 0 empty empty empty 17 7 0 10 -262144 -1 -1 1
1;
#X obj 183 182 spigot;
#X obj 222 167 tgl 15 0 empty empty empty 17 7 0 10 -262144 -1 -1 0
1;
#X obj 12 12 inlet;
#X obj 12 128 f;
#X obj 61 12 inlet;
#X obj 61 70 list trim;
#X msg 61 128 1;
#X msg 222 128 1;
#X obj 61 41 t a b, f 11;
#X obj 61 99 route ms samp, f 26;
#X msg 135 128 0;
#X obj 183 211 expr $f1/($f2*0.001);
#X obj 22 250 list prepend rate;
#X obj 22 274 s \$0-params;
#X obj 320 182 r \$0-sample-rate;
#X connect 0 0 14 0;
#X connect 1 0 0 1;
#X connect 2 0 13 0;
#X connect 3 0 2 1;
#X connect 4 0 5 0;
#X connect 5 0 0 0;
#X connect 5 0 2 0;
#X connect 6 0 10 0;
#X connect 7 0 11 0;
#X connect 8 0 1 0;
#X connect 9 0 3 0;
#X connect 10 0 7 0;
#X connect 10 1 12 0;
#X connect 11 0 8 0;
#X connect 11 1 9 0;
#X connect 12 0 3 0;
#X connect 12 0 1 0;
#X connect 13 0 14 0;
#X connect 14 0 15 0;
#X connect 16 0 13 1;
#X restore 12 274 pd unit-convert;
#N canvas -8 -8 1366 685 unit-display 0;
#X obj 71 385 f;
#X obj 71 259 spigot;
#X obj 110 244 tgl 15 0 empty empty empty 17 7 0 10 -262144 -1 -1 1
1;
#X obj 132 259 spigot;
#X obj 171 244 tgl 15 0 empty empty empty 17 7 0 10 -262144 -1 -1 0
1;
#X msg 229 186 0;
#X obj 12 12 inlet;
#X obj 71 186 f;
#X obj 71 12 inlet;
#X msg 110 186 1;
#X msg 171 186 1;
#X msg 71 414 set \$1;
#X obj 71 317 expr $f1/($f2*0.001);
#X obj 132 346 expr $f1*($f2*0.001);
#X obj 71 443 s \$0-grain-rate-r;
#X obj 71 99 t b f b, f 23;
#X obj 71 41 + 1;
#X obj 71 70 change;
#X obj 110 157 sel 1 2, f 18;
#X obj 208 288 r \$0-sample-rate;
#X connect 0 0 11 0;
#X connect 1 0 12 0;
#X connect 2 0 1 1;
#X connect 3 0 13 0;
#X connect 4 0 3 1;
#X connect 5 0 2 0;
#X connect 5 0 4 0;
#X connect 6 0 7 1;
#X connect 7 0 1 0;
#X connect 7 0 3 0;
#X connect 8 0 16 0;
#X connect 9 0 2 0;
#X connect 10 0 4 0;
#X connect 11 0 14 0;
#X connect 12 0 0 0;
#X connect 12 0 7 1;
#X connect 13 0 0 0;
#X connect 13 0 7 1;
#X connect 15 0 7 0;
#X connect 15 1 18 0;
#X connect 15 2 5 0;
#X connect 16 0 17 0;
#X connect 17 0 15 0;
#X connect 18 0 9 0;
#X connect 18 1 10 0;
#X connect 19 0 12 1;
#X connect 19 0 13 1;
#X restore 22 206 pd unit-display;
#X obj 465 167 tgl 15 0 empty empty empty 17 7 0 10 -262144 -1 -1 1
1;
#X msg 168 206 label \$1;
#X obj 151 99 sel 0 1, f 10;
#X obj 168 235 s \$0-grain-rate-unit-r;
#X obj 465 138 r \$0-grain-arbit;
#X obj 465 192 list prepend rate metro;
#X obj 465 216 s \$0-params;
#X connect 0 0 6 1;
#X connect 0 0 9 0;
#X connect 1 0 0 0;
#X connect 2 0 0 0;
#X connect 3 0 6 0;
#X connect 3 0 7 0;
#X connect 4 0 10 0;
#X connect 4 0 7 1;
#X connect 5 0 6 0;
#X connect 8 0 13 0;
#X connect 9 0 11 0;
#X connect 10 0 1 0;
#X connect 10 1 2 0;
#X connect 12 0 8 0;
#X connect 13 0 14 0;
#X restore 145 12 pd grain-rate;
#X restore 12 469 pd grain;
#X obj 566 216 hsl 199 10 0 100 0 0 \$0-playhead \$0-playhead-r empty
-2 -8 0 10 -260145 -262144 -183085 0 0;
#X obj 456 225 nbx 5 15 1 1e+037 0 0 \$0-grain-rate \$0-grain-rate-r
rate 0 -8 0 10 -260145 -262144 -133184 100 256;
#X obj 563 301 nbx 5 15 -1e+037 1e+037 0 0 \$0-offset-playhead \$0-offset-playhead-r
offset 0 -8 0 10 -260145 -262144 -133184 0 256;
#X obj 563 333 nbx 3 15 0 100 0 0 \$0-offset-playhead-chance \$0-offset-playhead-chance-r
chance 0 -8 0 10 -260145 -262144 -133184 0 256;
#X obj 607 291 hradio 10 1 0 2 \$0-offset-playhead-unit \$0-offset-playhead-unit-r
ms 13 18 0 10 -260145 -262144 -133184 0;
#X obj 500 215 hradio 10 1 0 2 \$0-grain-rate-unit \$0-grain-rate-unit-r
ms 13 18 0 10 -260145 -262144 -133184 0;
#X obj 477 254 cnv 15 30 6 empty \$0-text envelope: 1 2 0 10 -262144
-133184 0;
#X obj 597 246 nbx 5 15 -1e+037 1e+037 0 0 \$0-speed \$0-speed-r %
58 8 0 10 -260145 -262144 -133184 0 256;
#X obj 477 265 nbx 5 15 0 1e+037 0 0 \$0-att \$0-att-r ms 58 8 0 10
-260145 -262144 -133184 0 256;
#X obj 477 285 nbx 5 15 0 1e+037 0 0 \$0-dec \$0-dec-r ms 58 8 0 10
-260145 -262144 -133184 0 256;
#X obj 477 305 nbx 5 15 0 100 0 0 \$0-sus \$0-sus-r % 58 8 0 10 -260145
-262144 -133184 100 256;
#X obj 477 325 nbx 5 15 0 1e+037 0 0 \$0-rel \$0-rel-r ms 58 8 0 10
-260145 -262144 -133184 0 256;
#X obj 456 265 cnv 15 15 15 empty \$0-text att 0 6 0 10 -262144 -133184
0;
#X obj 563 231 tgl 10 0 \$0-playhead-reset \$0-playhead-reset-r reset_on_noteon
15 4 0 10 -260145 -262144 -133184 0 1;
#N canvas -8 -8 1366 685 player 0;
#X obj 12 196 list prepend;
#X obj 12 225 list trim;
#X msg 70 167 manual;
#X msg 116 167 noteon;
#X obj 337 148 t b b;
#X msg 293 206 0;
#X msg 348 206 1;
#X obj 309 322 spigot;
#X obj 309 350 * 0.01;
#X msg 429 294 set \$1;
#X obj 429 322 s \$0-speed-slide-r;
#X obj 569 263 r \$0-speed-slide-s;
#X obj 569 322 s \$0-speed-r;
#X obj 12 22 r \$0-playhead;
#X obj 293 51 r \$0-play;
#X obj 309 235 r \$0-speed;
#X obj 61 80 r \$0-playhead-reset;
#X obj 309 293 f;
#X obj 12 167 f;
#X obj 61 109 t b f;
#X obj 293 109 sel 0 1, f 13;
#X obj 93 138 sel 0 1;
#X obj 12 51 * 0.01;
#X obj 293 379 list prepend pass playhead speed;
#X obj 293 403 s \$0-params;
#X obj 12 254 list prepend pass playhead pos;
#X obj 12 278 s \$0-params;
#X connect 0 0 1 0;
#X connect 1 0 25 0;
#X connect 2 0 0 1;
#X connect 3 0 0 1;
#X connect 4 0 17 0;
#X connect 4 1 6 0;
#X connect 5 0 7 1;
#X connect 5 0 23 0;
#X connect 6 0 7 1;
#X connect 7 0 8 0;
#X connect 8 0 23 0;
#X connect 9 0 10 0;
#X connect 11 0 12 0;
#X connect 13 0 22 0;
#X connect 14 0 20 0;
#X connect 15 0 9 0;
#X connect 15 0 17 0;
#X connect 16 0 19 0;
#X connect 17 0 7 0;
#X connect 18 0 0 0;
#X connect 19 0 18 0;
#X connect 19 1 21 0;
#X connect 20 0 5 0;
#X connect 20 1 4 0;
#X connect 21 0 2 0;
#X connect 21 1 3 0;
#X connect 22 0 18 0;
#X connect 23 0 24 0;
#X connect 25 0 26 0;
#X restore 12 517 pd player;
#X obj 568 267 cnv 2 265 1 empty \$0-bar empty 20 12 0 14 -133184 -70738
0;
#X obj 779 222 cnv 15 58 28 empty \$0-waveformBg-r empty 20 12 0 14
-133184 -1 0;
#N canvas 0 50 450 250 (subpatch) 0;
#X array \$0-win 2048 float 2;
#X coords 0 1 2048 -1 60 30 1 0 0;
#X restore 778 221 graph;
#X obj 673 246 nbx 3 15 -1e+037 1e+037 0 0 \$0-sample-note \$0-sample-note-r
note 41 7 0 10 -260145 -262144 -133184 48 256;
#X obj 566 365 hsl 62 10 0 100 0 0 \$0-offset-playhead-precision \$0-offset-playhead-precision-r
precision -2 -8 0 10 -260145 -262144 -133184 0 0;
#X obj 727 152 bng 10 250 50 0 \$0-loadFile \$0-loadFile-r load 15
4 0 10 -260145 -262144 -133184;
#N canvas 0 50 450 300 offset 0;
#N canvas -8 -8 1366 685 offset-pitch 0;
#X obj 222 167 symbol;
#X obj 768 41 expr (100-$f1)*0.01;
#X obj 12 12 r \$0-offset-pitch;
#X obj 222 70 r \$0-offset-pitch-unit;
#N canvas -8 -8 1366 685 unit-convert 0;
#X obj 22 182 spigot;
#X obj 61 167 tgl 15 0 empty empty empty 17 7 0 10 -262144 -1 -1 1
1;
#X obj 95 182 spigot;
#X obj 134 167 tgl 15 0 empty empty empty 17 7 0 10 -262144 -1 -1 0
1;
#X obj 22 12 inlet;
#X obj 22 128 f;
#X obj 71 12 inlet;
#X obj 61 70 list trim;
#X msg 61 128 1;
#X msg 222 128 1;
#X obj 61 41 t a b, f 11;
#X msg 135 128 0;
#X obj 95 211 expr $f1*0.01;
#X obj 61 99 route m c, f 26;
#X obj 22 274 s \$0-params;
#X obj 22 250 list prepend pass offset pitch;
#X connect 0 0 15 0;
#X connect 1 0 0 1;
#X connect 2 0 12 0;
#X connect 3 0 2 1;
#X connect 4 0 5 0;
#X connect 5 0 0 0;
#X connect 5 0 2 0;
#X connect 6 0 10 0;
#X connect 7 0 13 0;
#X connect 8 0 1 0;
#X connect 9 0 3 0;
#X connect 10 0 7 0;
#X connect 10 1 11 0;
#X connect 11 0 3 0;
#X connect 11 0 1 0;
#X connect 12 0 15 0;
#X connect 13 0 8 0;
#X connect 13 1 9 0;
#X connect 15 0 14 0;
#X restore 12 196 pd unit-convert;
#X msg 222 196 label \$1;
#X obj 222 99 sel 0 1, f 9;
#X obj 768 12 r \$0-offset-pitch-precision;
#X obj 464 12 r \$0-offset-pitch-chance;
#N canvas 676 0 681 676 unit-display 0;
#X obj 71 366 f;
#X obj 71 240 spigot;
#X obj 110 225 tgl 15 0 empty empty empty 17 7 0 10 -262144 -1 -1 1
1;
#X obj 136 240 spigot;
#X obj 175 225 tgl 15 0 empty empty empty 17 7 0 10 -262144 -1 -1 0
1;
#X msg 229 167 0;
#X obj 12 12 inlet;
#X obj 71 167 f;
#X obj 71 12 inlet;
#X msg 110 167 1;
#X msg 175 167 1;
#X msg 71 395 set \$1;
#X obj 71 196 change;
#X obj 71 99 t b f b, f 23;
#X obj 110 138 sel 1 2, f 19;
#X obj 71 41 + 1;
#X obj 71 70 change;
#X obj 71 298 expr $f1*0.01;
#X obj 136 327 expr $f1*100;
#X obj 71 424 s \$0-offset-pitch-r;
#X connect 0 0 11 0;
#X connect 1 0 17 0;
#X connect 2 0 1 1;
#X connect 3 0 18 0;
#X connect 4 0 3 1;
#X connect 5 0 2 0;
#X connect 5 0 4 0;
#X connect 6 0 7 1;
#X connect 7 0 12 0;
#X connect 8 0 15 0;
#X connect 9 0 2 0;
#X connect 10 0 4 0;
#X connect 11 0 19 0;
#X connect 12 0 1 0;
#X connect 12 0 3 0;
#X connect 13 0 7 0;
#X connect 13 1 14 0;
#X connect 13 2 5 0;
#X connect 14 0 9 0;
#X connect 14 1 10 0;
#X connect 15 0 16 0;
#X connect 16 0 13 0;
#X connect 17 0 0 0;
#X connect 17 0 7 1;
#X connect 18 0 0 0;
#X connect 18 0 7 1;
#X restore 32 167 pd unit-display;
#X obj 222 225 s \$0-offset-pitch-unit-r;
#X msg 222 128 m;
#X msg 252 128 c;
#X obj 768 119 s \$0-params;
#X obj 768 70 list prepend pass offset pitch precis;
#X obj 464 70 list prepend pass offset pitch chance;
#X connect 0 0 4 1;
#X connect 0 0 5 0;
#X connect 1 0 14 0;
#X connect 2 0 4 0;
#X connect 2 0 9 0;
#X connect 3 0 6 0;
#X connect 3 0 9 1;
#X connect 5 0 10 0;
#X connect 6 0 11 0;
#X connect 6 1 12 0;
#X connect 7 0 1 0;
#X connect 8 0 15 0;
#X connect 11 0 0 0;
#X connect 12 0 0 0;
#X connect 14 0 13 0;
#X connect 15 0 13 0;
#X restore 152 11 pd offset-pitch;
#N canvas -8 -8 1366 685 offset-duration 0;
#X obj 243 157 symbol;
#X msg 243 128 ms;
#X obj 768 41 expr (100-$f1)*0.01;
#N canvas -8 -8 1366 685 unit-convert 0;
#X obj 22 182 spigot;
#X obj 61 167 tgl 15 0 empty empty empty 17 7 0 10 -262144 -1 -1 1
1;
#X obj 95 182 spigot;
#X obj 134 167 tgl 15 0 empty empty empty 17 7 0 10 -262144 -1 -1 0
1;
#X obj 22 12 inlet;
#X obj 22 128 f;
#X obj 71 12 inlet;
#X obj 61 70 list trim;
#X msg 61 128 1;
#X msg 222 128 1;
#X obj 61 41 t a b, f 11;
#X msg 135 128 0;
#X obj 22 240 expr $f1*$f2*0.001;
#X obj 61 99 route ms sp, f 26;
#X obj 22 269 list prepend pass offset duration;
#X obj 22 293 s \$0-params;
#X obj 145 211 r \$0-sample-rate;
#X connect 0 0 12 0;
#X connect 1 0 0 1;
#X connect 2 0 14 0;
#X connect 3 0 2 1;
#X connect 4 0 5 0;
#X connect 5 0 0 0;
#X connect 5 0 2 0;
#X connect 6 0 10 0;
#X connect 7 0 13 0;
#X connect 8 0 1 0;
#X connect 9 0 3 0;
#X connect 10 0 7 0;
#X connect 10 1 11 0;
#X connect 11 0 3 0;
#X connect 11 0 1 0;
#X connect 12 0 14 0;
#X connect 13 0 8 0;
#X connect 13 1 9 0;
#X connect 14 0 15 0;
#X connect 16 0 12 1;
#X restore 12 186 pd unit-convert;
#X obj 12 12 r \$0-offset-duration;
#X obj 243 70 r \$0-offset-duration-unit;
#X msg 243 186 label \$1;
#X obj 243 99 sel 0 1;
#X obj 768 12 r \$0-offset-duration-precision;
#X obj 464 12 r \$0-offset-duration-chance;
#N canvas 676 0 681 676 unit-display 0;
#X obj 71 366 f;
#X obj 71 240 spigot;
#X obj 110 225 tgl 15 0 empty empty empty 17 7 0 10 -262144 -1 -1 1
1;
#X obj 136 240 spigot;
#X obj 175 225 tgl 15 0 empty empty empty 17 7 0 10 -262144 -1 -1 0
1;
#X msg 229 167 0;
#X obj 12 12 inlet;
#X obj 71 167 f;
#X obj 71 12 inlet;
#X msg 110 167 1;
#X msg 175 167 1;
#X msg 71 395 set \$1;
#X obj 71 298 expr $f1/($f2*0.001);
#X obj 136 327 expr $f1*($f2*0.001);
#X obj 71 196 change;
#X obj 71 99 t b f b, f 23;
#X obj 110 138 sel 1 2, f 19;
#X obj 71 41 + 1;
#X obj 71 70 change;
#X obj 71 424 s \$0-offset-duration-r;
#X obj 208 269 r \$0-sample-rate;
#X connect 0 0 11 0;
#X connect 1 0 12 0;
#X connect 2 0 1 1;
#X connect 3 0 13 0;
#X connect 4 0 3 1;
#X connect 5 0 2 0;
#X connect 5 0 4 0;
#X connect 6 0 7 1;
#X connect 7 0 14 0;
#X connect 8 0 17 0;
#X connect 9 0 2 0;
#X connect 10 0 4 0;
#X connect 11 0 19 0;
#X connect 12 0 0 0;
#X connect 12 0 7 1;
#X connect 13 0 0 0;
#X connect 13 0 7 1;
#X connect 14 0 1 0;
#X connect 14 0 3 0;
#X connect 15 0 7 0;
#X connect 15 1 16 0;
#X connect 15 2 5 0;
#X connect 16 0 9 0;
#X connect 16 1 10 0;
#X connect 17 0 18 0;
#X connect 18 0 15 0;
#X connect 20 0 12 1;
#X connect 20 0 13 1;
#X restore 32 157 pd unit-display;
#X obj 243 215 s \$0-offset-duration-unit-r;
#X msg 268 128 sp;
#X obj 768 139 s \$0-params;
#X obj 768 70 list prepend pass offset duration precis;
#X obj 464 70 list prepend pass offset duration chance;
#X connect 0 0 3 1;
#X connect 0 0 6 0;
#X connect 1 0 0 0;
#X connect 2 0 14 0;
#X connect 4 0 3 0;
#X connect 4 0 10 0;
#X connect 5 0 7 0;
#X connect 5 0 10 1;
#X connect 6 0 11 0;
#X connect 7 0 1 0;
#X connect 7 1 12 0;
#X connect 8 0 2 0;
#X connect 9 0 15 0;
#X connect 12 0 0 0;
#X connect 14 0 13 0;
#X connect 15 0 13 0;
#X restore 271 11 pd offset-duration;
#N canvas -8 -8 1366 685 offset-playhead 0;
#X obj 215 157 symbol;
#X msg 215 128 ms;
#X obj 768 41 expr (100-$f1)*0.01;
#N canvas -8 -8 1366 685 unit-convert 0;
#X obj 22 182 spigot;
#X obj 61 167 tgl 15 0 empty empty empty 17 7 0 10 -262144 -1 -1 1
1;
#X obj 95 182 spigot;
#X obj 134 167 tgl 15 0 empty empty empty 17 7 0 10 -262144 -1 -1 0
1;
#X obj 22 12 inlet;
#X obj 22 128 f;
#X obj 71 12 inlet;
#X obj 61 70 list trim;
#X msg 61 128 1;
#X msg 222 128 1;
#X obj 61 41 t a b, f 11;
#X msg 135 128 0;
#X obj 22 240 expr $f1*$f2*0.001;
#X obj 61 99 route ms sp, f 26;
#X obj 22 279 list prepend pass offset playhead;
#X obj 22 303 s \$0-params;
#X obj 145 211 r \$0-sample-rate;
#X connect 0 0 12 0;
#X connect 1 0 0 1;
#X connect 2 0 14 0;
#X connect 3 0 2 1;
#X connect 4 0 5 0;
#X connect 5 0 0 0;
#X connect 5 0 2 0;
#X connect 6 0 10 0;
#X connect 7 0 13 0;
#X connect 8 0 1 0;
#X connect 9 0 3 0;
#X connect 10 0 7 0;
#X connect 10 1 11 0;
#X connect 11 0 3 0;
#X connect 11 0 1 0;
#X connect 12 0 14 0;
#X connect 13 0 8 0;
#X connect 13 1 9 0;
#X connect 14 0 15 0;
#X connect 16 0 12 1;
#X restore 12 215 pd unit-convert;
#X msg 215 186 label \$1;
#X obj 215 99 sel 0 1;
#X obj 215 70 r \$0-offset-playhead-unit;
#X obj 768 12 r \$0-offset-playhead-precision;
#X obj 464 12 r \$0-offset-playhead-chance;
#X obj 12 12 r \$0-offset-playhead;
#X obj 215 215 s \$0-offset-playhead-unit-r;
#N canvas 676 0 681 676 unit-display 0;
#X obj 71 366 f;
#X obj 71 240 spigot;
#X obj 110 225 tgl 15 0 empty empty empty 17 7 0 10 -262144 -1 -1 1
1;
#X obj 136 240 spigot;
#X obj 175 225 tgl 15 0 empty empty empty 17 7 0 10 -262144 -1 -1 0
1;
#X msg 229 167 0;
#X obj 12 12 inlet;
#X obj 71 167 f;
#X obj 71 12 inlet;
#X msg 110 167 1;
#X msg 175 167 1;
#X msg 71 395 set \$1;
#X obj 71 298 expr $f1/($f2*0.001);
#X obj 136 327 expr $f1*($f2*0.001);
#X obj 71 196 change;
#X obj 71 99 t b f b, f 23;
#X obj 110 138 sel 1 2, f 19;
#X obj 71 41 + 1;
#X obj 71 70 change;
#X obj 71 424 s \$0-offset-playhead-r;
#X obj 208 269 r \$0-sample-rate;
#X connect 0 0 11 0;
#X connect 1 0 12 0;
#X connect 2 0 1 1;
#X connect 3 0 13 0;
#X connect 4 0 3 1;
#X connect 5 0 2 0;
#X connect 5 0 4 0;
#X connect 6 0 7 1;
#X connect 7 0 14 0;
#X connect 8 0 17 0;
#X connect 9 0 2 0;
#X connect 10 0 4 0;
#X connect 11 0 19 0;
#X connect 12 0 0 0;
#X connect 12 0 7 1;
#X connect 13 0 0 0;
#X connect 13 0 7 1;
#X connect 14 0 1 0;
#X connect 14 0 3 0;
#X connect 15 0 7 0;
#X connect 15 1 16 0;
#X connect 15 2 5 0;
#X connect 16 0 9 0;
#X connect 16 1 10 0;
#X connect 17 0 18 0;
#X connect 18 0 15 0;
#X connect 20 0 12 1;
#X connect 20 0 13 1;
#X restore 32 186 pd unit-display;
#X msg 240 128 sp;
#X obj 768 70 list prepend pass offset playhead precis;
#X obj 768 119 s \$0-params;
#X obj 464 70 list prepend pass offset playhead chance;
#X connect 0 0 3 1;
#X connect 0 0 4 0;
#X connect 1 0 0 0;
#X connect 2 0 13 0;
#X connect 4 0 10 0;
#X connect 5 0 1 0;
#X connect 5 1 12 0;
#X connect 6 0 5 0;
#X connect 6 0 11 1;
#X connect 7 0 2 0;
#X connect 8 0 15 0;
#X connect 9 0 3 0;
#X connect 9 0 11 0;
#X connect 12 0 0 0;
#X connect 13 0 14 0;
#X connect 15 0 14 0;
#X restore 12 11 pd offset-playhead;
#X restore 12 493 pd offset;
#X obj 811 286 vsl 10 101 -100 0 0 0 \$0-out \$0-out-r out: -4 -9 0
10 -260145 -262144 -133184 10000 1;
#X obj 557 157 cnv 2 1 228 empty \$0-bar empty 20 12 0 14 -133184 -70738
0;
#X obj 12 252 *~;
#N canvas 0 50 450 300 out 0;
#X msg 12 114 \$1 1;
#X obj 12 167 outlet~;
#X obj 12 90 dbtorms;
#X obj 12 138 line~;
#X obj 12 37 r \$0-out;
#X obj 12 66 + 100;
#X connect 0 0 3 0;
#X connect 2 0 0 0;
#X connect 3 0 1 0;
#X connect 4 0 5 0;
#X connect 5 0 2 0;
#X restore 230 213 pd out gain;
#X obj 212 252 *~;
#X obj 456 365 tgl 10 0 \$0-legato \$0-legato-r legato 15 4 0 10 -260145
-262144 -133184 0 1;
#X obj 508 350 tgl 10 0 \$0-steal \$0-steal-r steal 15 4 0 10 -260145
-262144 -133184 0 1;
#X obj 456 380 hradio 10 1 0 2 \$0-bendMode \$0-bendMode-r bend:_global
25 4 0 10 -260145 -262144 -133184 0;
#X obj 456 350 hradio 10 1 0 2 \$0-poly \$0-poly-r mono 25 4 0 10 -260145
-262144 -133184 0;
#X obj 461 246 cnv 2 79 1 empty \$0-bar empty 20 12 0 14 -133184 -70738
0;
#X obj 673 231 tgl 10 0 \$0-play \$0-play-r play 15 4 0 10 -260145
-262144 -133184 0 1;
#N canvas -8 -8 1366 685 midi-input 0;
#X obj 93 389 outlet;
#X obj 93 129 - 1;
#X obj 93 188 pack 0 0 0;
#X obj 93 100 poly 16 1, f 10;
#X obj 26 12 inlet;
#X obj 192 168 spigot;
#X obj 177 292 list prepend;
#X obj 177 321 list trim;
#X msg 359 263 all;
#X obj 359 176 sel 0 1, f 10;
#X msg 177 263 bend \$1;
#X obj 12 100 poly 1 1, f 10;
#X obj 12 129 - 1;
#X obj 12 188 pack 0 0 0;
#X obj 93 321 spigot;
#X obj 132 306 tgl 15 0 empty empty empty 17 7 0 10 -262144 -1 -1 0
1;
#X obj 12 321 spigot;
#X obj 51 306 tgl 15 0 empty empty empty 17 7 0 10 -262144 -1 -1 1
1;
#X obj 258 263 spigot;
#X msg 297 244 1;
#X msg 322 244 0;
#X obj 359 205 t b b;
#N canvas -8 -8 1366 685 polystuff 0;
#X obj 12 100 sel 0 1, f 9;
#X obj 12 70 t f b;
#X msg 96 100 0;
#X obj 12 149 outlet;
#X obj 96 149 outlet;
#X obj 12 41 r \$0-poly;
#X connect 0 0 3 0;
#X connect 0 1 4 0;
#X connect 1 0 0 0;
#X connect 1 1 2 0;
#X connect 2 0 4 0;
#X connect 2 0 3 0;
#X connect 5 0 1 0;
#X restore 51 277 pd polystuff;
#X text 645 86 cada mensaje noteoff se envía a la voz más antigua
que esté ocupada con sus respectiva nota;
#X text 645 11 cada mensaje noteon se envía a la siguiente voz disponible
en la polifonía \, o si voice_steal esta activado la voz más antigua
en caso de no haber voces disponibles;
#X text 237 168 filtrar noteoff;
#X msg 428 321 label \$1;
#X obj 428 297 symbol;
#X obj 26 41 route bend;
#X obj 160 51 r \$0-steal;
#X text 562 276 los valores de pitch bend se envían a las 16 voces
o a la voz más nueva en la polifonía \, dependiendo si el bend es
global o last_note respectivamente;
#X msg 428 244 bend:_global;
#X msg 438 268 bend:_last;
#X obj 177 90 expr (($f1/16383)-0.5)*$f2;
#X obj 356 42 r \$0-bendRange;
#X obj 356 66 * 2;
#X obj 428 345 s \$0-bendMode-r;
#X obj 359 147 r \$0-bendMode;
#X connect 1 0 2 0;
#X connect 1 0 5 0;
#X connect 2 0 14 0;
#X connect 3 0 1 0;
#X connect 3 1 2 1;
#X connect 3 2 2 2;
#X connect 3 2 5 1;
#X connect 4 0 28 0;
#X connect 5 0 18 0;
#X connect 6 0 7 0;
#X connect 7 0 0 0;
#X connect 8 0 6 1;
#X connect 9 0 21 0;
#X connect 9 1 19 0;
#X connect 9 1 32 0;
#X connect 10 0 6 0;
#X connect 11 0 12 0;
#X connect 11 1 13 1;
#X connect 11 2 13 2;
#X connect 12 0 13 0;
#X connect 13 0 16 0;
#X connect 14 0 0 0;
#X connect 15 0 14 1;
#X connect 16 0 0 0;
#X connect 17 0 16 1;
#X connect 18 0 6 1;
#X connect 19 0 18 1;
#X connect 20 0 18 1;
#X connect 21 0 8 0;
#X connect 21 0 31 0;
#X connect 21 1 20 0;
#X connect 22 0 17 0;
#X connect 22 1 15 0;
#X connect 26 0 36 0;
#X connect 27 0 26 0;
#X connect 28 0 33 0;
#X connect 28 1 3 0;
#X connect 28 1 11 0;
#X connect 29 0 3 1;
#X connect 31 0 27 0;
#X connect 32 0 27 0;
#X connect 33 0 10 0;
#X connect 34 0 35 0;
#X connect 35 0 33 1;
#X connect 37 0 9 0;
#X restore 12 160 pd midi-input;
#N canvas 676 0 681 676 voices 0;
#X msg 32 164 1;
#X msg 12 96 0;
#X obj 32 125 delay 10;
#X obj 112 106 symbol;
#X msg 112 130 label \$1;
#X obj 112 53 sel 0 1, f 12;
#X obj 12 12 r \$0-poly;
#X msg 112 77 mono;
#X msg 152 77 poly;
#X obj 112 154 s \$0-poly-r;
#X obj 12 222 targetall;
#X obj 12 251 outlet;
#X obj 12 193 list prepend power;
#X obj 12 61 bng 15 250 50 0 empty empty empty 17 7 0 10 -262144 -1
-1;
#X text 14 298 forcefully turns off dsp of all voices \, 10 ms after
it allows for it to be turned on again when necessary;
#X connect 0 0 12 0;
#X connect 1 0 12 0;
#X connect 2 0 0 0;
#X connect 3 0 4 0;
#X connect 4 0 9 0;
#X connect 5 0 7 0;
#X connect 5 1 8 0;
#X connect 6 0 5 0;
#X connect 6 0 13 0;
#X connect 7 0 3 0;
#X connect 8 0 3 0;
#X connect 10 0 11 0;
#X connect 12 0 10 0;
#X connect 13 0 1 0;
#X connect 13 0 2 0;
#X restore 121 150 pd voices;
#X f 11;
#X obj 778 191 bng 10 250 50 0 \$0-loadWindow \$0-loadWindow-r load
15 4 0 10 -260145 -262144 -133184;
#X obj 456 200 tgl 10 0 \$0-grain-arbit \$0-grain-arbit-r autotrigger
15 4 0 10 -260145 -262144 -133184 1 1;
#X obj 12 131 inlet, f 7;
#X obj 289 36 inlet;
#N canvas -8 -8 1366 685 route-inlet-messages 0;
#X obj 12 12 inlet;
#X msg 196 563 unrecognized message;
#N canvas 676 0 681 676 state 0;
#X obj 66 30 inlet;
#X obj 66 59 t b b;
#X msg 98 88 set;
#X obj 66 214 s \$0-state;
#N canvas 624 244 669 300 grain 0;
#X obj 54 60 f;
#X obj 54 7 inlet;
#X obj 54 266 outlet;
#X obj 72 36 r \$0-grain-duration-unit;
#X obj 100 83 r \$0-grain-duration;
#X obj 147 112 r \$0-grain-rate-unit;
#X obj 193 141 r \$0-grain-rate;
#X obj 54 170 pack f f f f f, f 27;
#X obj 240 83 r \$0-grain-arbit;
#X msg 54 199 add2 grain duration unit \$1 \, addcomma \, add2 grain
duration \$2 \, addcomma \, add2 grain rate unit \$3 \, addcomma \,
add2 grain rate \$4 \, addcomma \, add2 grain auto \$5 \, addcomma
;
#X connect 0 0 7 0;
#X connect 1 0 0 0;
#X connect 3 0 0 1;
#X connect 4 0 7 1;
#X connect 5 0 7 2;
#X connect 6 0 7 3;
#X connect 7 0 9 0;
#X connect 8 0 7 4;
#X connect 9 0 2 0;
#X restore 469 175 pd grain;
#N canvas 581 299 669 300 sample 0;
#X obj 54 60 f;
#X obj 54 7 inlet;
#X obj 54 284 outlet;
#X obj 72 36 r \$0-play;
#X obj 101 83 r \$0-playhead;
#X obj 148 112 r \$0-playhead-reset;
#X obj 195 141 r \$0-speed;
#X obj 242 83 r \$0-sample-note;
#X obj 289 141 r \$0-sample-path;
#X obj 54 170 pack f f f f f s, f 34;
#X msg 54 199 add2 sample play \$1 \, addcomma \, add2 sample playhead
\$2 \, addcomma \, add2 sample playhead reset \$3 \, addcomma \, add2
sample speed \$4 \, addcomma \, add2 sample note \$5 \, addcomma \,
add2 load sample \$6 \, addcomma;
#X connect 0 0 9 0;
#X connect 1 0 0 0;
#X connect 3 0 0 1;
#X connect 4 0 9 1;
#X connect 5 0 9 2;
#X connect 6 0 9 3;
#X connect 7 0 9 4;
#X connect 8 0 9 5;
#X connect 9 0 10 0;
#X connect 10 0 2 0;
#X restore 388 175 pd sample;
#N canvas 588 299 669 300 window 0;
#X obj 54 60 f;
#X obj 54 7 inlet;
#X obj 54 242 outlet;
#X obj 72 36 r \$0-window-sel;
#X obj 87 83 r \$0-window-smooth;
#X obj 121 112 r \$0-window-path;
#X obj 54 170 pack f f s;
#X msg 54 199 add2 window shape \$1 \, addcomma \, add2 window smooth
\$2 \, addcomma \, add2 load window \$3 \, addcomma;
#X connect 0 0 6 0;
#X connect 1 0 0 0;
#X connect 3 0 0 1;
#X connect 4 0 6 1;
#X connect 5 0 6 2;
#X connect 6 0 7 0;
#X connect 7 0 2 0;
#X restore 307 175 pd window;
#N canvas 617 313 669 300 offset 0;
#X obj 54 7 inlet;
#X obj 100 152 outlet;
#X obj 54 36 t b b b;
#N canvas 709 299 669 300 playhead 0;
#X obj 54 60 f;
#X obj 54 7 inlet;
#X obj 54 266 outlet;
#X obj 54 170 pack f f f f, f 20;
#X obj 72 36 r \$0-offset-playhead-unit;
#X obj 99 83 r \$0-offset-playhead;
#X obj 145 112 r \$0-offset-playhead-chance;
#X obj 191 141 r \$0-offset-playhead-precision;
#X msg 54 199 add2 offset playhead unit \$1 \, addcomma \, add2 offset
playhead \$2 \, addcomma \, add2 offset playhead chance \$3 \, addcomma
\, add2 offset playhead precision \$4 \, addcomma;
#X connect 0 0 3 0;
#X connect 1 0 0 0;
#X connect 3 0 8 0;
#X connect 4 0 0 1;
#X connect 5 0 3 1;
#X connect 6 0 3 2;
#X connect 7 0 3 3;
#X connect 8 0 2 0;
#X restore 100 65 pd playhead;
#N canvas 709 299 669 300 pitch 0;
#X obj 54 60 f;
#X obj 54 7 inlet;
#X obj 54 266 outlet;
#X obj 54 170 pack f f f f, f 20;
#X obj 72 36 r \$0-offset-pitch-unit;
#X obj 99 83 r \$0-offset-pitch;
#X obj 145 112 r \$0-offset-pitch-chance;
#X obj 191 141 r \$0-offset-pitch-precision;
#X msg 54 199 add2 offset pitch unit \$1 \, addcomma \, add2 offset
pitch \$2 \, addcomma \, add2 offset pitch chance \$3 \, addcomma \,
add2 offset pitch precision \$4 \, addcomma;
#X connect 0 0 3 0;
#X connect 1 0 0 0;
#X connect 3 0 8 0;
#X connect 4 0 0 1;
#X connect 5 0 3 1;
#X connect 6 0 3 2;
#X connect 7 0 3 3;
#X connect 8 0 2 0;
#X restore 77 94 pd pitch;
#N canvas 709 299 669 300 duration 0;
#X obj 54 60 f;
#X obj 54 7 inlet;
#X obj 54 266 outlet;
#X obj 54 170 pack f f f f, f 20;
#X obj 72 36 r \$0-offset-duration-unit;
#X obj 99 83 r \$0-offset-duration;
#X obj 145 112 r \$0-offset-duration-chance;
#X obj 191 141 r \$0-offset-duration-precision;
#X msg 54 199 add2 offset duration unit \$1 \, addcomma \, add2 offset
duration \$2 \, addcomma \, add2 offset duration chance \$3 \, addcomma
\, add2 offset duration precision \$4 \, addcomma;
#X connect 0 0 3 0;
#X connect 1 0 0 0;
#X connect 3 0 8 0;
#X connect 4 0 0 1;
#X connect 5 0 3 1;
#X connect 6 0 3 2;
#X connect 7 0 3 3;
#X connect 8 0 2 0;
#X restore 54 123 pd duration;
#X connect 0 0 2 0;
#X connect 2 0 5 0;
#X connect 2 1 4 0;
#X connect 2 2 3 0;
#X connect 3 0 1 0;
#X connect 4 0 1 0;
#X connect 5 0 1 0;
#X restore 227 175 pd offset;
#X obj 66 146 t b b b b b b, f 58;
#N canvas 631 278 669 300 adsr 0;
#X obj 54 60 f;
#X obj 54 7 inlet;
#X obj 54 252 outlet;
#X obj 72 36 r \$0-att;
#X obj 99 83 r \$0-dec;
#X obj 145 112 r \$0-sus;
#X obj 191 141 r \$0-rel;
#X obj 54 170 pack f f f f, f 20;
#X msg 54 199 add2 att \$1 \, addcomma \, add2 dec \$2 \, addcomma
\, add2 sus \$3 \, addcomma \, add2 rel \$4 \, addcomma;
#X connect 0 0 7 0;
#X connect 1 0 0 0;
#X connect 3 0 0 1;
#X connect 4 0 7 1;
#X connect 5 0 7 2;
#X connect 6 0 7 3;
#X connect 7 0 8 0;
#X connect 8 0 2 0;
#X restore 146 175 pd adsr;
#N canvas 355 286 669 300 global 0;
#X obj 54 60 f;
#X obj 54 7 inlet;
#X obj 54 252 outlet;
#X obj 72 36 r \$0-poly;
#X obj 91 83 r \$0-legato;
#X obj 128 112 r \$0-steal;
#X obj 240 112 r \$0-out;
#X obj 165 141 r \$0-bendMode;
#X obj 54 170 pack f f f f f f, f 27;
#X obj 202 83 r \$0-bendRange;
#X msg 54 199 add2 poly \$1 \, addcomma \, add2 legato \$2 \, addcomma
\, add2 steal \$3 \, addcomma \, add2 bendMode \$4 \, addcomma \, add2
bendRange \$5 \, addcomma \, add2 out \$6;
#X connect 0 0 8 0;
#X connect 1 0 0 0;
#X connect 3 0 0 1;
#X connect 4 0 8 1;
#X connect 5 0 8 2;
#X connect 6 0 8 5;
#X connect 7 0 8 3;
#X connect 8 0 10 0;
#X connect 9 0 8 4;
#X connect 10 0 2 0;
#X restore 66 175 pd global;
#X connect 0 0 1 0;
#X connect 1 0 8 0;
#X connect 1 1 2 0;
#X connect 2 0 3 0;
#X connect 4 0 3 0;
#X connect 5 0 3 0;
#X connect 6 0 3 0;
#X connect 7 0 3 0;
#X connect 8 0 10 0;
#X connect 8 1 9 0;
#X connect 8 2 7 0;
#X connect 8 3 6 0;
#X connect 8 4 5 0;
#X connect 8 5 4 0;
#X connect 9 0 3 0;
#X connect 10 0 3 0;
#X restore 944 344 pd state;
#X obj 317 129 route att dec sus rel, f 45;
#X obj 196 592 print granola INLET;
#N canvas 162 243 847 300 grain 0;
#X obj 12 12 inlet;
#X obj 212 265 s \$0-error;
#X obj 12 109 route float unit;
#X obj 12 148 s \$0-grain-duration-r;
#X obj 66 201 s \$0-grain-duration-unit-r;
#X obj 228 148 s \$0-grain-rate-r;
#X obj 282 206 s \$0-grain-rate-unit-r;
#X obj 470 80 t b b;
#X msg 502 109 0;
#X msg 435 109 300;
#X msg 470 109 100;
#X obj 228 109 route float unit;
#X obj 470 51 loadbang;
#X obj 145 230 s \$0-grain-arbit-r;
#X obj 66 172 != 0;
#X obj 145 172 != 0;
#X obj 282 177 != 0;
#X obj 12 70 route duration rate auto;
#X msg 400 109 1;
#X connect 0 0 17 0;
#X connect 2 0 3 0;
#X connect 2 1 14 0;
#X connect 2 2 1 0;
#X connect 7 0 10 0;
#X connect 7 0 9 0;
#X connect 7 0 18 0;
#X connect 7 1 8 0;
#X connect 8 0 14 0;
#X connect 8 0 16 0;
#X connect 9 0 3 0;
#X connect 10 0 5 0;
#X connect 11 0 5 0;
#X connect 11 1 16 0;
#X connect 11 2 1 0;
#X connect 12 0 7 0;
#X connect 14 0 4 0;
#X connect 15 0 13 0;
#X connect 16 0 6 0;
#X connect 17 0 2 0;
#X connect 17 1 11 0;
#X connect 17 2 15 0;
#X connect 17 3 1 0;
#X connect 18 0 15 0;
#X restore 12 100 pd grain;
#X obj 196 519 r \$0-error;
#X obj 196 543 bng 15 250 50 0 empty empty empty 17 7 0 10 -262144
-1 -1;
#X obj 997 373 s \$0-error;
#N canvas 12 71 847 300 sample 0;
#X obj 12 12 inlet;
#X obj 289 225 s \$0-error;
#X msg 459 51 0;
#X obj 12 109 s \$0-play-r;
#X obj 67 167 s \$0-playhead-r;
#X obj 122 109 s \$0-speed-r;
#X obj 195 138 s \$0-sample-note-r;
#X obj 125 220 s \$0-playhead-reset-r;
#X msg 484 51 48;
#X obj 459 22 loadbang;
#X obj 67 138 route float reset;
#X obj 125 196 != 0;
#X obj 12 80 != 0;
#X obj 12 51 route play playhead speed note, f 32;
#X connect 0 0 13 0;
#X connect 2 0 7 0;
#X connect 2 0 4 0;
#X connect 2 0 5 0;
#X connect 2 0 12 0;
#X connect 8 0 6 0;
#X connect 9 0 2 0;
#X connect 9 0 8 0;
#X connect 10 0 4 0;
#X connect 10 1 11 0;
#X connect 10 2 1 0;
#X connect 11 0 7 0;
#X connect 12 0 3 0;
#X connect 13 0 12 0;
#X connect 13 1 10 0;
#X connect 13 2 5 0;
#X connect 13 3 6 0;
#X connect 13 4 1 0;
#X restore 82 100 pd sample;
#N canvas 99 152 847 300 window 0;
#X obj 12 12 inlet;
#X obj 135 207 s \$0-error;
#X msg 265 51 0;
#X msg 230 51 1;
#X obj 12 90 s \$0-window-sel-r;
#X obj 73 143 s \$0-window-smooth-r;
#X obj 12 51 route shape smooth;
#X obj 265 22 loadbang;
#X obj 73 119 != 0;
#X connect 0 0 6 0;
#X connect 2 0 8 0;
#X connect 3 0 4 0;
#X connect 6 0 4 0;
#X connect 6 1 8 0;
#X connect 6 2 1 0;
#X connect 7 0 2 0;
#X connect 7 0 3 0;
#X connect 8 0 5 0;
#X restore 159 100 pd window;
#N canvas 72 191 847 300 offset 0;
#X obj 12 12 inlet;
#X obj 212 198 s \$0-error;
#N canvas 72 127 847 300 playhead 0;
#X obj 12 12 inlet;
#X obj 240 226 s \$0-error;
#X msg 283 51 0;
#X obj 12 90 s \$0-offset-playhead-r;
#X obj 12 51 route float unit chance precision;
#X obj 69 119 s \$0-offset-playhead-unit-r;
#X obj 126 148 s \$0-offset-playhead-chance-r;
#X obj 183 177 s \$0-offset-playhead-precision-r;
#X obj 283 22 loadbang;
#X connect 0 0 4 0;
#X connect 2 0 5 0;
#X connect 2 0 3 0;
#X connect 2 0 6 0;
#X connect 2 0 7 0;
#X connect 4 0 3 0;
#X connect 4 1 5 0;
#X connect 4 2 6 0;
#X connect 4 3 7 0;
#X connect 4 4 1 0;
#X connect 8 0 2 0;
#X restore 12 80 pd playhead;
#X obj 12 51 route playhead pitch duration;
#N canvas 498 288 847 300 pitch 0;
#X obj 12 12 inlet;
#X obj 240 236 s \$0-error;
#X msg 283 51 0;
#X obj 12 51 route float unit chance precision;
#X obj 12 90 s \$0-offset-pitch-r;
#X obj 69 119 s \$0-offset-pitch-unit-r;
#X obj 126 148 s \$0-offset-pitch-chance-r;
#X obj 183 177 s \$0-offset-pitch-precision-r;
#X obj 283 22 loadbang;
#X connect 0 0 3 0;
#X connect 2 0 4 0;
#X connect 2 0 5 0;
#X connect 2 0 6 0;
#X connect 2 0 7 0;
#X connect 3 0 4 0;
#X connect 3 1 5 0;
#X connect 3 2 6 0;
#X connect 3 3 7 0;
#X connect 3 4 1 0;
#X connect 8 0 2 0;
#X restore 103 80 pd pitch;
#N canvas 498 288 847 300 duration 0;
#X obj 12 12 inlet;
#X obj 240 236 s \$0-error;
#X msg 283 51 0;
#X obj 12 51 route float unit chance precision;
#X obj 12 90 s \$0-offset-duration-r;
#X obj 69 119 s \$0-offset-duration-unit-r;
#X obj 126 148 s \$0-offset-duration-chance-r;
#X obj 183 177 s \$0-offset-duration-precision-r;
#X obj 283 22 loadbang;
#X connect 0 0 3 0;
#X connect 2 0 4 0;
#X connect 2 0 5 0;
#X connect 2 0 6 0;
#X connect 2 0 7 0;
#X connect 3 0 4 0;
#X connect 3 1 5 0;
#X connect 3 2 6 0;
#X connect 3 3 7 0;
#X connect 3 4 1 0;
#X connect 8 0 2 0;
#X restore 173 80 pd duration;
#X connect 0 0 3 0;
#X connect 3 0 2 0;
#X connect 3 1 4 0;
#X connect 3 2 5 0;
#X connect 3 3 1 0;
#X restore 236 100 pd offset;
#X obj 317 158 s \$0-att-r;
#X obj 473 158 s \$0-sus-r;
#X obj 551 158 s \$0-rel-r;
#X obj 629 246 s \$0-poly-r;
#X obj 681 275 s \$0-legato-r;
#X obj 734 246 s \$0-steal-r;
#X obj 905 275 s \$0-out-r;
#X obj 395 158 s \$0-dec-r;
#X msg 760 93 0;
#X msg 503 93 100;
#X obj 12 71 route grain sample window offset load, f 44;
#N canvas 447 120 450 300 load 0;
#X obj 57 52 inlet;
#X obj 57 76 route sample window;
#X obj 57 105 s \$0-sample-path-r;
#X obj 122 129 s \$0-window-path-r;
#X obj 187 198 s \$0-error;
#X connect 0 0 1 0;
#X connect 1 0 2 0;
#X connect 1 1 3 0;
#X connect 1 2 4 0;
#X restore 256 129 pd load;
#X obj 760 64 loadbang;
#X obj 629 187 route poly legato steal bendMode bendRange out state
, f 53;
#X obj 786 275 s \$0-bendMode-r;
#X msg 859 93 2;
#X obj 839 246 s \$0-bendRange;
#X obj 629 216 != 0;
#X obj 681 216 != 0;
#X obj 734 216 != 0;
#X obj 786 216 != 0;
#X connect 0 0 22 0;
#X connect 1 0 4 0;
#X connect 3 0 12 0;
#X connect 3 1 19 0;
#X connect 3 2 13 0;
#X connect 3 3 14 0;
#X connect 3 4 25 0;
#X connect 6 0 7 0;
#X connect 7 0 1 0;
#X connect 20 0 29 0;
#X connect 20 0 31 0;
#X connect 20 0 32 0;
#X connect 20 0 30 0;
#X connect 20 0 18 0;
#X connect 21 0 13 0;
#X connect 22 0 5 0;
#X connect 22 1 9 0;
#X connect 22 2 10 0;
#X connect 22 3 11 0;
#X connect 22 4 23 0;
#X connect 22 5 3 0;
#X connect 24 0 20 0;
#X connect 24 0 21 0;
#X connect 24 0 27 0;
#X connect 25 0 29 0;
#X connect 25 1 30 0;
#X connect 25 2 31 0;
#X connect 25 3 32 0;
#X connect 25 4 28 0;
#X connect 25 5 18 0;
#X connect 25 6 2 0;
#X connect 25 7 8 0;
#X connect 27 0 28 0;
#X connect 29 0 15 0;
#X connect 30 0 16 0;
#X connect 31 0 17 0;
#X connect 32 0 26 0;
#X restore 356 94 pd route-inlet-messages;
#N canvas -8 -8 1366 685 sample 0;
#X obj 476 181 soundfiler;
#X obj 476 210 t b f;
#X obj 476 239 s \$0-reload;
#X obj 46 89 sig~;
#X obj 46 118 /~;
#X obj 46 268 phasor~;
#X msg 92 244 0;
#X obj 46 205 *~;
#X obj 88 176 /;
#X obj 46 355 tabwrite~ \$0-sample-vis;
#X obj 46 297 *~;
#X obj 806 44 r \$0-sample-note;
#X obj 476 56 r \$0-loadFile;
#X obj 476 80 openpanel;
#X obj 340 167 s \$0-sample-path;
#X obj 259 51 r \$0-sample-path-r;
#X msg 370 138 symbol \$1;
#X obj 340 99 symbol;
#X obj 259 75 route symbol;
#X obj 52 436 table \$0-sampleL;
#X obj 52 465 table \$0-sampleR;
#X obj 46 326 tabread4~ \$0-sampleL;
#X obj 550 104 f \$0;
#X obj 550 80 loadbang;
#X obj 476 128 list append;
#X msg 476 152 read -resize \$1 \$2-sampleL \$2-sampleR;
#X obj 106 147 r \$0-window-duration;
#X obj 508 292 s \$0-sample-duration;
#X obj 543 210 s \$0-sample-rate;
#X obj 88 89 r \$0-sample-duration;
#X obj 46 60 r \$0-sample-rate;
#X obj 806 73 list prepend pass sample note;
#X obj 528 321 list prepend pass sample duration;
#X obj 573 239 list prepend pass sample rate;
#X obj 573 263 s \$0-params;
#X obj 528 345 s \$0-params;
#X obj 806 102 s \$0-params;
#X connect 0 0 1 0;
#X connect 0 1 28 0;
#X connect 0 1 33 0;
#X connect 1 0 2 0;
#X connect 1 0 6 0;
#X connect 1 0 9 0;
#X connect 1 1 27 0;
#X connect 1 1 32 0;
#X connect 3 0 4 0;
#X connect 4 0 7 0;
#X connect 5 0 10 0;
#X connect 6 0 5 1;
#X connect 7 0 5 0;
#X connect 8 0 7 1;
#X connect 10 0 21 0;
#X connect 11 0 31 0;
#X connect 12 0 13 0;
#X connect 13 0 16 0;
#X connect 13 0 24 0;
#X connect 15 0 18 0;
#X connect 16 0 14 0;
#X connect 17 0 14 0;
#X connect 17 0 24 0;
#X connect 18 1 17 0;
#X connect 21 0 9 0;
#X connect 22 0 24 1;
#X connect 23 0 22 0;
#X connect 24 0 25 0;
#X connect 25 0 0 0;
#X connect 26 0 8 1;
#X connect 29 0 4 1;
#X connect 29 0 8 0;
#X connect 29 0 10 1;
#X connect 30 0 3 0;
#X connect 31 0 36 0;
#X connect 32 0 35 0;
#X connect 33 0 34 0;
#X restore 12 541 pd sample;
#X obj 289 65 route bang;
#X obj 12 310 outlet~;
#X obj 212 310 outlet~;
#X obj 305 281 r \$0-state;
#X obj 305 310 outlet;
#X obj 456 285 cnv 15 15 15 empty \$0-text dec 0 6 0 10 -262144 -133184
0;
#X obj 456 305 cnv 15 15 15 empty \$0-text sus 0 6 0 10 -262144 -133184
0;
#X obj 456 325 cnv 15 15 15 empty \$0-text rel 0 6 0 10 -262144 -133184
0;
#X obj 478 154 cnv 15 30 6 empty \$0-text grain: 1 2 0 10 -262144 -133184
0;
#X obj 500 168 hradio 10 1 0 2 \$0-grain-duration-unit \$0-grain-duration-unit-r
ms 13 18 0 10 -260145 -262144 -133184 0;
#X obj 788 157 cnv 15 30 6 empty \$0-text window: 1 2 0 10 -262144
-133184 0;
#X obj 563 246 cnv 15 15 15 empty \$0-text speed 0 6 0 10 -262144 -133184
0;
#X obj 576 276 cnv 15 30 6 empty \$0-text playhead: 1 2 0 10 -262144
-133184 0;
#X obj 604 338 cnv 15 10 6 empty \$0-text % 1 2 0 10 -262144 -133184
0;
#X obj 635 279 cnv 2 1 91 empty \$0-bar empty 20 12 0 14 -133184 -70738
0;
#X obj 641 301 nbx 5 15 -1e+037 1e+037 0 0 \$0-offset-pitch \$0-offset-pitch-r
offset 0 -8 0 10 -260145 -262144 -133184 0 256;
#X obj 641 333 nbx 3 15 0 100 0 0 \$0-offset-pitch-chance \$0-offset-pitch-chance-r
chance 0 -8 0 10 -260145 -262144 -133184 0 256;
#X obj 685 291 hradio 10 1 0 2 \$0-offset-pitch-unit \$0-offset-pitch-unit-r
m 13 18 0 10 -260145 -262144 -133184 0;
#X obj 644 365 hsl 62 10 0 100 0 0 \$0-offset-pitch-precision \$0-offset-pitch-precision-r
precision -2 -8 0 10 -260145 -262144 -133184 0 0;
#X obj 654 276 cnv 15 30 6 empty \$0-text pitch: 1 2 0 10 -262144 -133184
0;
#X obj 682 338 cnv 15 10 6 empty \$0-text % 1 2 0 10 -262144 -133184
0;
#X obj 714 279 cnv 2 1 91 empty \$0-bar empty 20 12 0 14 -133184 -70738
0;
#X obj 721 301 nbx 5 15 -1e+037 1e+037 0 0 \$0-offset-duration \$0-offset-duration-r
offset 0 -8 0 10 -260145 -262144 -133184 0 256;
#X obj 721 333 nbx 3 15 0 100 0 0 \$0-offset-duration-chance \$0-offset-duration-chance-r
chance 0 -8 0 10 -260145 -262144 -133184 0 256;
#X obj 765 291 hradio 10 1 0 2 \$0-offset-duration-unit \$0-offset-duration-unit-r
ms 13 18 0 10 -260145 -262144 -133184 0;
#X obj 724 365 hsl 62 10 0 100 0 0 \$0-offset-duration-precision \$0-offset-duration-precision-r
precision -2 -8 0 10 -260145 -262144 -133184 0 0;
#X obj 734 276 cnv 15 30 6 empty \$0-text duration: 1 2 0 10 -262144
-133184 0;
#X obj 762 338 cnv 15 10 6 empty \$0-text % 1 2 0 10 -262144 -133184
0;
#X obj 772 157 cnv 2 1 99 empty \$0-bar empty 20 12 0 14 -133184 -70738
0;
#X obj 778 205 cnv 15 55 11 empty empty empty 20 12 0 14 -262144 -66577
0;
#X obj 778 206 tgl 10 0 \$0-window-smooth \$0-window-smooth-r smooth
15 4 0 10 -260145 -262144 -133184 0 1;
#X obj 456 178 nbx 5 15 1 1e+037 0 0 \$0-grain-duration \$0-grain-duration-r
durat. 0 -8 0 10 -260145 -262144 -133184 300 256;
#X obj 778 165 hradio 10 1 0 6 \$0-window-sel \$0-window-sel-r hann
0 17 0 10 -260145 -262144 -133184 1;
#X obj 566 166 cnv 15 198 48 empty \$0-waveformBg-r empty 20 12 0 14
-133184 -1 0;
#N canvas 0 50 450 250 (subpatch) 0;
#X array \$0-sample-vis 2048 float 2;
#X coords 0 1 2048 -1 200 50 1 0 0;
#X restore 565 165 graph;
#X obj 565 151 cnv 12 90 12 empty \$0-text sample: 1 5 0 10 -262144
-133184 0;
#X obj 793 279 cnv 2 1 106 empty \$0-bar empty 20 12 0 14 -133184 -70738
0;
#N canvas -8 -8 1366 685 help 0;
#X obj 38 360 cnv 15 624 336 empty empty empty 20 12 0 14 -203904 -66577
0;
#X msg 48 376 sample play \$1;
#X text 157 369 moves the playhead through the sample at the set speed
or stops it (nonzero and 0 respectively);
#X msg 48 410 sample playhead \$1;
#X text 186 403 position of the playhead (0-100 as a percentage of
the sample's length);
#X msg 48 444 sample playhead reset \$1;
#X text 228 437 when turned on (nonzero) it will start playing the
sample from the set playhead position for each noteon \, resulting
in independent playheads when in polyphonic mode \, and when turned
off (0) every single voice will follow the same global playhead which
can be moved while the voices are active and it will affect all of
them (although they can achieve playhead independency via the offset
feature);
#X msg 48 549 sample speed \$1;
#X text 165 542 speed at which the playhead will move through the sample
(as a percentage \, where 100 corresponds to the sample's original
speed);
#X msg 48 599 sample note \$1;
#X text 158 592 if the sample were tuned \, used to set the note (midi)
so that the resulting sig~ matches the notes that are sent into it
\, although it can be used for other perhaps more creative purposes
;
#X msg 48 666 load sample \$1;
#X text 157 666 path to sample;
#X obj 38 707 cnv 15 560 142 empty empty empty 20 12 0 14 -203904 -66577
0;
#X msg 48 723 window shape \$1;
#X text 165 716 window shape (0-5 \, straight|hann|tri|tridown|triup|custom
respectively);
#X msg 48 757 window smooth \$1;
#X text 171 750 when turned on (nonzero) it will apply a second window
with small ramps at the beggining and the end in order to smooth shapes
such as straight or tridown \, when turned off (0) clicking may occur
;
#X msg 48 820 load window \$1;
#X text 158 820 path to custom window shape;
#X obj 38 860 cnv 15 596 193 empty empty empty 20 12 0 14 -203904 -66577
0;
#X msg 48 893 offset N \$1;
#X text 137 893 offset value;
#X msg 48 922 offset N unit \$1;
#X text 171 915 read offset value as ms or samps/semitones or cents
depending on the parameter(nonzero and 0 respectively);
#X msg 48 956 offset N chance \$1;
#X text 185 949 probability (as a percentage) that every new grain
applies the set offset to its corresponding parameter before getting
triggered;
#X msg 48 1006 offset N precision \$1;
#X text 207 999 the offset will be a random number between (the parameter's
inaltered value + precision% of the offset value) AND (the parameter's
inaltered value + the offset value);
#X text 46 869 ***where N stands for playhead \, pitch or duration***
;
#X obj 38 1064 cnv 15 498 307 empty empty empty 20 12 0 14 -203904
-66577 0;
#X msg 48 1074 att \$1;
#X text 102 1074 attack time in ms;
#X msg 48 1103 dec \$1;
#X text 102 1103 decay time in ms;
#X text 102 1161 release time in ms;
#X msg 48 1161 rel \$1;
#X msg 48 1132 sus \$1;
#X msg 48 1190 poly \$1;
#X text 109 1183 sets polyphonic (16 voices) or monophonic mode (nonzero
and 0 respectively);
#X msg 48 1224 legato \$1;
#X text 123 1224 legato on and off (nonzero and 0 respectively);
#X text 116 1253 legato on and off (nonzero and 0 respectively);
#X msg 48 1253 steal \$1;
#X msg 48 1282 bendMode \$1;
#X text 137 1275 pitch bend mode global or last note (nonzero and 0
respectively);
#X msg 48 1316 bendRange \$1;
#X text 143 1316 pitch bend range \, positive and negative \, in semitones
;
#X msg 48 1345 out \$1;
#X text 102 1345 output gain in dB;
#X obj 38 150 cnv 15 588 199 empty empty empty 20 12 0 14 -203904 -66577
0;
#X msg 48 160 grain duration \$1;
#X text 179 160 length of each grain in ms/samps;
#X msg 48 189 grain duration unit \$1;
#X text 213 182 read grain duration value as ms or samples (nonzero
and 0 respectively);
#X msg 48 223 grain rate \$1;
#X text 150 223 rate at which the grains will be triggered in ms/samps
;
#X msg 48 252 grain rate unit \$1;
#X text 185 245 read grain rate value as ms or samples (nonzero and
0 respectively);
#X text 35 126 INLET 1:;
#X text 35 23 INLET 0:;
#X obj 38 47 cnv 15 281 63 empty empty empty 20 12 0 14 -203904 -66577
0;
#X msg 48 57 \$1 \$2;
#X msg 48 81 bend \$1;
#X text 109 81 pitch bend (from 0 to 16383);
#X text 95 57 midi note and velocity pairs;
#X obj 784 109 cnv 15 148 39 empty empty empty 20 12 0 14 -204800 -66577
0;
#X text 781 85 OUTLET 0:;
#X obj 794 119 sig~;
#X text 834 119 left channel;
#X obj 953 109 cnv 15 154 39 empty empty empty 20 12 0 14 -204800 -66577
0;
#X obj 963 119 sig~;
#X text 950 85 OUTLET 1:;
#X text 1002 119 right channel;
#X obj 784 188 cnv 15 491 105 empty empty empty 20 12 0 14 -204800
-66577 0;
#X text 781 164 OUTLET 2:;
#X msg 794 204 set foo;
#X text 855 197 where foo stands for a list of every parameter properly
formatted to be sent back into the abstraction \, in other words plug
this outlet to a message and when the [state( mesage is received it
will save to it the current state of the abstraction (keep in mind
that the message box will be emptied before writing to it);
#X obj 784 333 cnv 15 441 91 empty empty empty 20 12 0 14 -261234 -66577
0;
#X text 783 309 WARNING:;
#X obj 38 1382 cnv 15 350 39 empty empty empty 20 12 0 14 -203904 -66577
0;
#X msg 48 1392 state \$1;
#X text 115 1392 save current state of the abstraction;
#X obj 48 320 bang;
#X text 87 320 triggers a single grain;
#X text 150 279 turns the automatic triggering of grains based on the
set rate off and on (nonzero and 0 respectively);
#X msg 48 286 grain auto \$1;
#X text 791 342 -when in polyphonic mode (especially if using very
small rate values) cpu usage may increase quite a bit with each voice
\, technically it allows up to 16 voices but in the pc i developed
this with (i5-4440) the buffer tends to overflow before using them
all;
#X text 102 1132 sustain value (0-100 as a percentage);
#X connect 1 0 3 0;
#X connect 3 0 5 0;
#X connect 5 0 7 0;
#X connect 7 0 9 0;
#X connect 9 0 11 0;
#X connect 14 0 16 0;
#X connect 16 0 18 0;
#X connect 21 0 23 0;
#X connect 23 0 25 0;
#X connect 25 0 27 0;
#X connect 31 0 33 0;
#X connect 33 0 37 0;
#X connect 36 0 38 0;
#X connect 37 0 36 0;
#X connect 38 0 40 0;
#X connect 40 0 43 0;
#X connect 43 0 44 0;
#X connect 44 0 46 0;
#X connect 46 0 48 0;
#X connect 51 0 53 0;
#X connect 53 0 55 0;
#X connect 55 0 57 0;
#X connect 57 0 86 0;
#X connect 62 0 63 0;
#X connect 86 0 83 0;
#X restore 12 12 pd help;
#X msg 289 150 all bang;
#N canvas 0 50 450 300 params 0;
#X obj 165 135 r \$0-params;
#X obj 165 198 targetall;
#X obj 165 237 outlet;
#X obj 276 87 loadbang;
#X obj 276 111 f \$0;
#X obj 276 135 list prepend pass ind;
#X connect 0 0 1 0;
#X connect 1 0 2 0;
#X connect 3 0 4 0;
#X connect 4 0 5 0;
#X connect 5 0 1 0;
#X restore 212 150 pd params;
#X obj 12 189 clone granola-voice~ 16, f 29;
#X connect 29 0 47 0;
#X connect 30 0 29 1;
#X connect 30 0 31 1;
#X connect 31 0 48 0;
#X connect 38 0 86 0;
#X connect 39 0 86 1;
#X connect 42 0 38 0;
#X connect 43 0 46 0;
#X connect 46 0 84 0;
#X connect 46 1 44 0;
#X connect 49 0 50 0;
#X connect 84 0 86 1;
#X connect 85 0 86 1;
#X connect 86 0 29 0;
#X connect 86 1 31 0;
#X coords 0 -1 1 1 394 256 1 450 143;
