#N canvas 3 35 1360 708 12;
#X obj 27 232 - 1;
#X obj 27 262 pack 0 0 0;
#X obj 27 172 unpack, f 10;
#X msg 27 142 1 1;
#X obj 27 640 *~;
#X obj 27 669 outlet~;
#X obj 229 640 *~;
#X obj 229 669 outlet~;
#X obj 175 12 inlet;
#X obj 180 212 unpack f f;
#X obj 247 242 / 127;
#X obj 180 242 spigot;
#X obj 260 118 t f f;
#X obj 113 152 spigot;
#X obj 113 182 route bend;
#X obj 113 272 f;
#X obj 113 212 t b f;
#X obj 113 302 +, f 5;
#X obj 113 122 inlet;
#X obj 175 42 route bang adsr power rate pass;
#X obj 27 112 metro, f 9;
#X obj 27 82 route metro float;
#N canvas 686 35 677 708 help 0;
#X text 12 12 inlet 0: mensajes midi (nota + velocity);
#X text 12 39 inlet 1: recibe múltiples mensajes (bang enciende un
grano \, adsr trae parámetros de envolvente \, power apaga todas las
notas al cambiar entre mono y poly además de evitar que la inlet 0
reciba notas [power 0] y vuelve a permitir que la inlet 0 reciba notas
[power 1] \, rate activa o desactiva el encendido automático de los
granos [rate metro 1/0] y a qué frecuencia [rate float] \, y todos
los mensajes con el prefijo pass son enviados directamente a todas
las instancias de granos del [clone]);
#X text 12 189 la velocity de la nota midi se utiliza para disparar
la envolvente de la voz \, mientras que la altura de la nota es enviada
a todos los granos \; para encender los granos uso el falso mensaje
de nota midi [1 1( en conjunción con el objeto [poly] para así poder
iterar ordenadamente las instancias de granos del [clone] \, luego
esa "entrada midi" se convierte en un simple bang que le indica al
grano que debe encenderse;
#X text 31 361 (para más información revisar [pd help] dentro de
[granola-grain~]);
#X restore 1268 659 pd help;
#X text 932 588 esta abstracción está pensada para ser instanciada
por un objeto [clone] y representa una voz del sintetizador \, está
constituida por una serie de granos producidos por otro [clone];
#X obj 260 147 sel 0;
#X msg 260 212 0;
#X obj 247 272 t f f, f 10;
#X obj 113 534 list trim;
#X obj 113 509 list prepend all;
#X obj 346 534 list trim;
#X obj 346 509 list prepend all;
#X obj 409 424 f, f 5;
#X obj 247 594 pd-adsr/adsr~;
#X obj 27 202 poly 10 1, f 10;
#X obj 27 564 clone ./granola-grain~ 10;
#X obj 427 244 route rel;
#X obj 409 274 f;
#X obj 409 299 t b f;
#X obj 409 324 delay;
#X msg 409 349 0;
#X obj 409 194 sel 0;
#X msg 504 244 1;
#X msg 356 479 switch \$1;
#X obj 409 374 t b f;
#X obj 409 399 delay 6;
#X obj 472 394 loadbang;
#X msg 472 419 0;
#X obj 556 323 *;
#X obj 594 233 t b f;
#X obj 574 263 /, f 5;
#X obj 574 293 t b f;
#X obj 556 463 list prepend phas;
#X obj 556 123 route playhead sample;
#X obj 574 203 route rate duration;
#X obj 556 163 route speed pos;
#X obj 742 203 route manual noteon;
#X msg 791 288 0;
#X msg 816 288 1;
#X obj 752 288 f;
#X obj 752 318 spigot;
#X msg 752 258 bang;
#X obj 556 353 phasor~, f 27;
#X obj 742 228 t f b;
#X obj 556 433 *;
#X obj 556 378 env~;
#X obj 556 403 dbtorms;
#X obj 1037 533 switch~;
#X obj 1006 503 f, f 5;
#X obj 1024 283 route rel;
#X obj 1006 308 f;
#X obj 1006 333 t b f;
#X obj 1006 358 delay;
#X msg 1006 408 0;
#X obj 1006 233 sel 0, f 14;
#X msg 1101 283 1;
#X obj 1006 433 t b f;
#X obj 1069 478 loadbang;
#X msg 1069 503 0;
#X obj 1006 458 delay 5;
#X obj 910 183 r \$0-vel;
#X obj 1024 258 r \$0-adsr;
#X obj 217 72 s \$0-adsr;
#X obj 335 564 r \$0-adsr;
#X obj 444 149 r \$0-adsr;
#X obj 874 409 swap;
#X obj 793 449 f;
#X obj 874 539 s \$0-vel;
#X obj 874 509 / 127;
#X obj 793 379 route bend, f 12;
#X obj 793 409 t b f;
#X obj 793 479 +, f 5;
#X obj 247 564 f;
#X obj 265 539 r \$0-vel;
#X obj 247 514 r \$0-adsr-on;
#X obj 910 208 t b f f, f 23;
#X obj 910 233 s \$0-adsr-on;
#X obj 1068 353 == 0;
#X obj 1006 383 spigot;
#X connect 0 0 1 0;
#X connect 1 0 34 0;
#X connect 2 0 33 0;
#X connect 2 1 33 1;
#X connect 3 0 2 0;
#X connect 4 0 5 0;
#X connect 6 0 7 0;
#X connect 8 0 19 0;
#X connect 9 0 11 0;
#X connect 9 1 11 1;
#X connect 9 1 10 0;
#X connect 10 0 26 0;
#X connect 11 0 15 0;
#X connect 12 0 24 0;
#X connect 12 1 13 1;
#X connect 13 0 14 0;
#X connect 13 0 88 0;
#X connect 14 0 16 0;
#X connect 14 1 9 0;
#X connect 15 0 17 0;
#X connect 16 0 15 0;
#X connect 16 1 17 1;
#X connect 18 0 13 0;
#X connect 19 0 3 0;
#X connect 19 1 35 0;
#X connect 19 1 81 0;
#X connect 19 2 12 0;
#X connect 19 3 21 0;
#X connect 19 4 30 0;
#X connect 19 4 52 0;
#X connect 20 0 3 0;
#X connect 21 0 20 0;
#X connect 21 1 20 1;
#X connect 24 0 25 0;
#X connect 25 0 26 0;
#X connect 25 0 86 0;
#X connect 26 1 40 0;
#X connect 27 0 34 1;
#X connect 27 0 60 0;
#X connect 28 0 27 0;
#X connect 29 0 34 2;
#X connect 30 0 29 0;
#X connect 32 0 6 1;
#X connect 32 0 4 1;
#X connect 33 0 0 0;
#X connect 33 1 1 1;
#X connect 33 2 1 2;
#X connect 34 0 4 0;
#X connect 34 1 6 0;
#X connect 35 0 36 1;
#X connect 36 0 37 0;
#X connect 37 0 38 0;
#X connect 37 1 38 1;
#X connect 38 0 39 0;
#X connect 39 0 43 0;
#X connect 40 0 36 0;
#X connect 40 1 41 0;
#X connect 41 0 31 0;
#X connect 42 0 30 0;
#X connect 43 0 44 0;
#X connect 43 1 31 1;
#X connect 44 0 31 0;
#X connect 45 0 46 0;
#X connect 47 0 61 0;
#X connect 48 0 49 0;
#X connect 48 1 49 1;
#X connect 48 1 63 1;
#X connect 49 0 50 0;
#X connect 50 0 47 0;
#X connect 50 1 47 1;
#X connect 51 0 30 0;
#X connect 52 0 54 0;
#X connect 52 1 53 0;
#X connect 53 0 49 0;
#X connect 53 1 48 0;
#X connect 54 0 47 0;
#X connect 54 1 55 0;
#X connect 55 0 62 0;
#X connect 55 1 57 0;
#X connect 55 1 58 1;
#X connect 56 0 59 1;
#X connect 57 0 59 1;
#X connect 58 0 59 0;
#X connect 59 0 61 1;
#X connect 60 0 58 0;
#X connect 61 0 64 0;
#X connect 62 0 61 1;
#X connect 62 1 56 0;
#X connect 63 0 51 0;
#X connect 64 0 65 0;
#X connect 65 0 63 0;
#X connect 67 0 66 0;
#X connect 68 0 69 1;
#X connect 69 0 70 0;
#X connect 70 0 71 0;
#X connect 70 1 71 1;
#X connect 71 0 97 0;
#X connect 72 0 75 0;
#X connect 72 0 42 0;
#X connect 73 0 69 0;
#X connect 73 1 74 0;
#X connect 74 0 67 0;
#X connect 74 0 42 0;
#X connect 75 0 78 0;
#X connect 75 1 67 1;
#X connect 76 0 77 0;
#X connect 77 0 66 0;
#X connect 78 0 67 0;
#X connect 79 0 94 0;
#X connect 80 0 68 0;
#X connect 82 0 32 1;
#X connect 84 0 87 0;
#X connect 84 1 85 0;
#X connect 85 0 90 0;
#X connect 87 0 86 0;
#X connect 88 0 89 0;
#X connect 88 1 84 0;
#X connect 89 0 85 0;
#X connect 89 1 90 1;
#X connect 90 0 28 0;
#X connect 91 0 32 0;
#X connect 92 0 91 1;
#X connect 93 0 91 0;
#X connect 94 0 95 0;
#X connect 94 1 73 0;
#X connect 94 2 96 0;
#X connect 96 0 97 1;
#X connect 97 0 72 0;
