#N canvas -8 -8 1366 685 12;
#X obj 421 144 cnv 15 551 374 empty \$0-text empty 20 12 0 14 -70738
-183085 0;
#X obj 12 335 dac~, f 26;
#N canvas 676 0 681 676 adsr 0;
#X obj 12 148 targetall;
#X obj 12 207 outlet;
#X obj 96 148 targetall;
#X obj 180 148 targetall;
#X obj 264 148 targetall;
#X obj 348 148 targetall;
#X msg 348 119 legato \$1;
#X msg 264 119 rel \$1;
#X msg 180 119 sus \$1;
#X obj 180 90 * 0.01;
#X msg 96 119 dec \$1;
#X msg 12 119 att \$1;
#X msg 473 119 anticlip \$1;
#X obj 473 148 targetall;
#X obj 348 12 r \$0-legato;
#X obj 264 12 r \$0-rel;
#X obj 180 12 r \$0-sus;
#X obj 96 12 r \$0-dec;
#X obj 12 12 r \$0-att;
#X obj 473 12 r \$0-init;
#X msg 473 90 1;
#X msg 358 90 0;
#X msg 190 61 100;
#X obj 190 229 s \$0-sus-r;
#X msg 190 200 set \$1;
#X connect 0 0 1 0;
#X connect 2 0 1 0;
#X connect 3 0 1 0;
#X connect 4 0 1 0;
#X connect 5 0 1 0;
#X connect 6 0 5 0;
#X connect 7 0 4 0;
#X connect 8 0 3 0;
#X connect 9 0 8 0;
#X connect 10 0 2 0;
#X connect 11 0 0 0;
#X connect 12 0 13 0;
#X connect 13 0 1 0;
#X connect 14 0 6 0;
#X connect 15 0 7 0;
#X connect 16 0 9 0;
#X connect 17 0 10 0;
#X connect 18 0 11 0;
#X connect 19 0 21 0;
#X connect 19 0 22 0;
#X connect 19 0 20 0;
#X connect 20 0 12 0;
#X connect 21 0 6 0;
#X connect 22 0 9 0;
#X connect 22 0 24 0;
#X connect 24 0 23 0;
#X restore 131 160 pd adsr;
#X obj 854 175 hradio 15 1 0 6 \$0-window-sel-s \$0-window-sel-r empty
0 -8 0 10 -49933 -183085 -183085 1;
#N canvas -8 -8 1366 685 loadfile 0;
#X obj 367 244 soundfiler;
#X obj 12 13 r \$0-loadFile-s;
#X obj 367 273 t b f;
#X obj 367 312 s \$0-reload;
#X obj 434 273 s dMab-sample-rate;
#X msg 367 215 read -resize \$1 dMab-sampleL dMab-sampleR;
#X obj 367 41 receive openpanel;
#X obj 367 70 pack s f;
#X msg 367 99 \$2 \$1;
#X obj 367 128 route 1;
#X obj 131 13 r \$0-loadWindow-s;
#X obj 12 42 t b b;
#X obj 131 42 t b b;
#X msg 163 71 2;
#X msg 44 71 1;
#X msg 12 129 openpanel;
#X obj 163 100 s \$0-openpanel-num;
#X obj 420 12 r \$0-openpanel-num;
#X obj 12 158 send camomile;
#X obj 189 187 openpanel;
#X obj 189 234 s openpanel;
#X obj 367 157 symbol;
#X obj 678 186 s \$0-path-sample;
#X obj 442 128 r \$0-path-sample-open;
#X obj 126 293 sig~;
#X obj 126 322 /~;
#X obj 126 264 r dMab-sample-rate;
#X obj 126 441 phasor~;
#X msg 172 412 0;
#X obj 126 409 *~;
#X obj 168 380 /;
#X obj 126 530 tabread4~ dMab-sampleL;
#X obj 126 559 tabwrite~ \$0-sample-vis;
#X obj 126 470 *~;
#X obj 186 351 r dMab-window-duration;
#X obj 609 51 table dMab-sampleL;
#X obj 609 80 table dMab-sampleR;
#X obj 399 389 s dMab-sample-duration;
#X obj 168 293 r dMab-sample-duration;
#X obj 168 322 r dMab-sample-duration;
#X obj 890 102 s dMab-sample-note;
#X obj 890 63 r \$0-sample-note;
#X obj 813 44 r \$0-init;
#X msg 813 73 48;
#X obj 813 131 s \$0-sample-note-r;
#X msg 813 102 set \$1;
#X connect 0 0 2 0;
#X connect 0 1 4 0;
#X connect 1 0 11 0;
#X connect 2 0 3 0;
#X connect 2 0 28 0;
#X connect 2 0 32 0;
#X connect 2 1 37 0;
#X connect 5 0 0 0;
#X connect 6 0 7 0;
#X connect 7 0 8 0;
#X connect 8 0 9 0;
#X connect 9 0 21 0;
#X connect 10 0 12 0;
#X connect 11 0 15 0;
#X connect 11 0 19 0;
#X connect 11 1 14 0;
#X connect 12 0 15 0;
#X connect 12 0 19 0;
#X connect 12 1 13 0;
#X connect 13 0 16 0;
#X connect 14 0 16 0;
#X connect 15 0 18 0;
#X connect 17 0 7 1;
#X connect 19 0 20 0;
#X connect 21 0 5 0;
#X connect 21 0 22 0;
#X connect 23 0 21 0;
#X connect 24 0 25 0;
#X connect 25 0 29 0;
#X connect 26 0 24 0;
#X connect 27 0 33 0;
#X connect 28 0 27 1;
#X connect 29 0 27 0;
#X connect 30 0 29 1;
#X connect 31 0 32 0;
#X connect 33 0 31 0;
#X connect 34 0 30 1;
#X connect 38 0 25 1;
#X connect 39 0 30 0;
#X connect 39 0 33 1;
#X connect 41 0 40 0;
#X connect 42 0 43 0;
#X connect 43 0 40 0;
#X connect 43 0 45 0;
#X connect 45 0 44 0;
#X restore 12 493 pd loadfile;
#N canvas -8 -8 1366 685 window 0;
#X obj 26 192 samplerate~;
#X obj 12 138 bng 15 250 50 0 empty empty empty 17 7 0 10 -262144 -1
-1;
#X msg 104 206 0.5;
#X obj 26 216 / 2048;
#X obj 26 240 osc~;
#X obj 26 264 *~ 0.5;
#X obj 26 288 +~ 0.5;
#X obj 93 235 phasor~;
#X msg 139 206 0;
#X obj 17 337 selector8~, f 11;
#X obj 168 264 expr~ 1-$v1;
#X obj 92 293 expr~ if($v1 > 0.5 \, 1-$v1 \, $v1)*2;
#X obj 269 371 bng 15 250 50 0 empty empty empty 17 7 0 10 -262144
-1 -1;
#X msg 350 371 2048;
#X obj 350 342 loadbang;
#X obj 26 163 r pd-dsp-started;
#X obj 12 80 sel 0;
#X obj 44 109 t b f;
#X obj 304 400 s dMab-window-duration;
#X obj 12 366 tabwrite~ dMab-window;
#X obj 12 41 change;
#X obj 252 235 tabplay~ \$0-window-custom;
#N canvas 0 50 450 250 (subpatch) 0;
#X array \$0-window-custom 2048 float 2;
#X coords 0 1 2048 -1 100 50 1 0 0;
#X restore 807 304 graph;
#X obj 707 283 soundfiler;
#X obj 788 147 f \$0;
#X obj 788 118 loadbang;
#X obj 707 337 symbol;
#X obj 707 366 route symbol;
#X obj 707 395 bng 15 250 50 0 empty empty empty 17 7 0 10 -262144
-1 -1;
#X obj 707 312 bng 15 250 50 0 empty empty empty 17 7 0 10 -262144
-1 -1;
#X obj 707 225 list prepend;
#X msg 707 254 read \$2 \$1-window-custom;
#X obj 12 12 r \$0-window-sel;
#X obj 131 12 r \$0-init;
#X obj 707 420 f;
#X obj 707 449 sel 5;
#X msg 707 478 5;
#X obj 707 41 receive openpanel;
#X obj 707 70 pack s f;
#X msg 707 99 \$2 \$1;
#X obj 707 128 route 2;
#X obj 760 12 receive \$0-openpanel-num;
#X obj 725 391 r \$0-window-sel;
#X obj 269 342 delay 10;
#X obj 269 429 until;
#X obj 269 458 f;
#X obj 318 458 + 1;
#X obj 269 487 t f f, f 10;
#X obj 269 545 t b b;
#X msg 318 429 0;
#X obj 269 516 sel, f 12;
#X obj 350 545 t b f;
#X msg 350 574 1;
#X obj 350 603 tabwrite dMab-window;
#X obj 900 186 s \$0-path-window;
#X obj 707 157 symbol;
#X obj 549 123 r \$0-path-window-open;
#N canvas 540 171 450 300 display-name 0;
#X obj 12 11 inlet;
#X msg 72 79 cos;
#X msg 122 79 tridown;
#X msg 175 79 triup;
#X msg 12 79 straight;
#X msg 97 79 tri;
#X obj 12 40 sel 0 1 2 3 4 5, f 32;
#X msg 12 137 label \$1;
#X obj 12 108 symbol;
#X obj 44 195 s \$0-window-sel-label-r;
#X msg 214 79 custom;
#X obj 12 282 s camomile;
#X msg 12 253 gui redraw;
#X obj 12 224 delay 10;
#X obj 12 166 t b a;
#X connect 0 0 6 0;
#X connect 1 0 8 0;
#X connect 2 0 8 0;
#X connect 3 0 8 0;
#X connect 4 0 8 0;
#X connect 5 0 8 0;
#X connect 6 0 4 0;
#X connect 6 1 1 0;
#X connect 6 2 5 0;
#X connect 6 3 2 0;
#X connect 6 4 3 0;
#X connect 6 5 10 0;
#X connect 7 0 14 0;
#X connect 8 0 7 0;
#X connect 10 0 8 0;
#X connect 12 0 11 0;
#X connect 13 0 12 0;
#X connect 14 0 13 0;
#X connect 14 1 9 0;
#X restore 516 79 pd display-name;
#X obj 201 41 r \$0-window-sel;
#X obj 131 41 delay 10;
#X obj 131 70 f 1;
#X obj 131 128 s \$0-window-sel-r;
#X msg 131 99 set \$1;
#X connect 0 0 3 0;
#X connect 1 0 2 0;
#X connect 1 0 8 0;
#X connect 1 0 19 0;
#X connect 1 0 21 0;
#X connect 2 0 4 1;
#X connect 3 0 4 0;
#X connect 3 0 7 0;
#X connect 4 0 5 0;
#X connect 5 0 6 0;
#X connect 6 0 9 1;
#X connect 7 0 10 0;
#X connect 7 0 11 0;
#X connect 7 0 9 4;
#X connect 8 0 7 1;
#X connect 9 0 19 0;
#X connect 10 0 9 3;
#X connect 11 0 9 2;
#X connect 12 0 44 0;
#X connect 13 0 18 0;
#X connect 13 0 50 1;
#X connect 14 0 13 0;
#X connect 15 0 0 0;
#X connect 16 0 43 0;
#X connect 16 1 17 0;
#X connect 17 0 1 0;
#X connect 17 1 9 0;
#X connect 20 0 16 0;
#X connect 20 0 57 0;
#X connect 21 0 9 5;
#X connect 23 0 29 0;
#X connect 24 0 30 1;
#X connect 25 0 24 0;
#X connect 26 0 27 0;
#X connect 27 0 28 0;
#X connect 28 0 34 0;
#X connect 29 0 26 0;
#X connect 30 0 31 0;
#X connect 31 0 23 0;
#X connect 32 0 20 0;
#X connect 33 0 59 0;
#X connect 34 0 35 0;
#X connect 35 0 36 0;
#X connect 36 0 17 0;
#X connect 37 0 38 0;
#X connect 38 0 39 0;
#X connect 39 0 40 0;
#X connect 40 0 55 0;
#X connect 41 0 38 1;
#X connect 42 0 34 1;
#X connect 43 0 12 0;
#X connect 44 0 45 0;
#X connect 45 0 47 0;
#X connect 46 0 45 1;
#X connect 47 0 50 0;
#X connect 47 1 46 0;
#X connect 48 0 49 0;
#X connect 48 1 44 1;
#X connect 49 0 45 1;
#X connect 50 0 48 0;
#X connect 50 1 51 0;
#X connect 51 0 52 0;
#X connect 51 1 53 1;
#X connect 52 0 53 0;
#X connect 55 0 30 0;
#X connect 55 0 54 0;
#X connect 56 0 55 0;
#X connect 58 0 60 1;
#X connect 59 0 60 0;
#X connect 60 0 16 0;
#X connect 60 0 62 0;
#X connect 60 0 57 0;
#X connect 62 0 61 0;
#X restore 12 589 pd window;
#N canvas 674 0 683 676 smooth 0;
#N canvas 0 50 450 250 (subpatch) 0;
#X array dMab-smooth 2048 float 2;
#X coords 0 1 2048 -1 100 50 1 0 0;
#X restore 12 204 graph;
#X obj 12 12 r \$0-window-smooth-s;
#X obj 212 126 loadbang;
#X obj 12 129 s dMab-window-smooth;
#X obj 212 155 delay 10;
#N canvas 0 50 450 300 fill 0;
#X obj 93 157 t b f;
#X msg 93 186 1;
#X obj 93 97 r dMab-window-duration;
#X obj 12 41 until;
#X obj 12 70 f;
#X obj 61 70 + 1;
#X obj 12 99 t f f, f 10;
#X obj 12 157 t b b;
#X msg 61 41 0;
#X obj 12 128 sel, f 12;
#X obj 93 215 tabwrite dMab-smooth;
#X obj 12 12 inlet;
#X connect 0 0 1 0;
#X connect 0 1 10 1;
#X connect 1 0 10 0;
#X connect 2 0 9 1;
#X connect 3 0 4 0;
#X connect 4 0 6 0;
#X connect 5 0 4 1;
#X connect 6 0 9 0;
#X connect 6 1 5 0;
#X connect 7 0 8 0;
#X connect 7 1 3 1;
#X connect 8 0 4 1;
#X connect 9 0 7 0;
#X connect 9 1 0 0;
#X connect 11 0 3 0;
#X restore 222 184 pd fill;
#N canvas 0 50 450 300 fadein 0;
#X obj 12 41 until;
#X obj 12 70 f;
#X obj 61 70 + 1;
#X obj 12 99 t f f, f 10;
#X obj 12 157 t b b;
#X msg 61 41 0;
#X obj 65 215 tabwrite dMab-smooth;
#X obj 12 12 inlet;
#X obj 12 128 sel 205, f 8;
#X obj 65 157 t f f;
#X obj 65 186 / 205;
#X connect 0 0 1 0;
#X connect 1 0 3 0;
#X connect 2 0 1 1;
#X connect 3 0 8 0;
#X connect 3 1 2 0;
#X connect 4 0 5 0;
#X connect 4 1 0 1;
#X connect 5 0 1 1;
#X connect 7 0 0 0;
#X connect 8 0 4 0;
#X connect 8 1 9 0;
#X connect 9 0 10 0;
#X connect 9 1 6 1;
#X connect 10 0 6 0;
#X restore 222 242 pd fadein;
#N canvas 0 50 476 300 fadeout 0;
#X obj 12 41 until;
#X obj 12 70 f;
#X obj 61 70 + 1;
#X obj 12 99 t f f, f 10;
#X obj 12 157 t b b;
#X msg 61 41 0;
#X obj 65 215 tabwrite dMab-smooth;
#X obj 12 12 inlet;
#X obj 12 128 sel 205, f 8;
#X obj 65 157 t f f;
#X obj 65 186 / 205;
#X obj 297 147 r dMab-window-duration;
#X obj 202 176 expr $f2-2-$f1;
#X msg 305 116 2048;
#X connect 0 0 1 0;
#X connect 1 0 3 0;
#X connect 2 0 1 1;
#X connect 3 0 8 0;
#X connect 3 1 2 0;
#X connect 4 0 5 0;
#X connect 4 1 0 1;
#X connect 5 0 1 1;
#X connect 7 0 0 0;
#X connect 8 0 4 0;
#X connect 8 1 9 0;
#X connect 9 0 10 0;
#X connect 9 1 12 0;
#X connect 10 0 6 0;
#X connect 11 0 12 1;
#X connect 12 0 6 1;
#X connect 13 0 12 1;
#X restore 222 300 pd fadeout;
#X obj 212 213 delay 10;
#X obj 212 271 delay 10;
#X obj 212 329 delay 10;
#X obj 212 416 tabwrite dMab-smooth;
#X msg 349 387 2047;
#X obj 212 358 t b b;
#X msg 212 387 0;
#X obj 12 61 change;
#X obj 166 12 r \$0-init;
#X msg 166 41 0;
#X obj 12 100 + 1;
#X connect 1 0 15 0;
#X connect 2 0 4 0;
#X connect 4 0 5 0;
#X connect 4 0 8 0;
#X connect 8 0 9 0;
#X connect 8 0 6 0;
#X connect 9 0 7 0;
#X connect 9 0 10 0;
#X connect 10 0 13 0;
#X connect 12 0 11 1;
#X connect 13 0 14 0;
#X connect 13 1 12 0;
#X connect 14 0 11 0;
#X connect 15 0 18 0;
#X connect 16 0 17 0;
#X connect 17 0 18 0;
#X connect 18 0 3 0;
#X restore 12 565 pd smooth;
#N canvas 564 322 450 300 grain 0;
#N canvas 676 0 681 676 grain-duration 0;
#X obj 194 157 symbol;
#X msg 169 128 ms;
#X msg 194 128 samp;
#X msg 226 128 sync;
#N canvas -8 -8 1366 685 unit-convert 0;
#X obj 22 182 spigot;
#X obj 61 167 tgl 15 0 empty empty empty 17 7 0 10 -262144 -1 -1 1
1;
#X obj 183 182 spigot;
#X obj 222 167 tgl 15 0 empty empty empty 17 7 0 10 -262144 -1 -1 0
1;
#X obj 12 12 inlet;
#X obj 12 128 f;
#X obj 61 12 inlet;
#X obj 61 70 list trim;
#X msg 61 128 1;
#X msg 222 128 1;
#X obj 61 41 t a b, f 11;
#X obj 61 99 route ms samp, f 26;
#X msg 135 128 0;
#X obj 22 250 expr $f1*$f2*0.001;
#X obj 183 250 expr $f1/($f2*0.001);
#X obj 320 211 r dMab-sample-rate;
#X obj 183 279 s dMab-grain-duration-ms;
#X obj 22 279 s dMab-grain-duration;
#X connect 0 0 13 0;
#X connect 0 0 16 0;
#X connect 1 0 0 1;
#X connect 2 0 14 0;
#X connect 2 0 17 0;
#X connect 3 0 2 1;
#X connect 4 0 5 0;
#X connect 5 0 0 0;
#X connect 5 0 2 0;
#X connect 6 0 10 0;
#X connect 7 0 11 0;
#X connect 8 0 1 0;
#X connect 9 0 3 0;
#X connect 10 0 7 0;
#X connect 10 1 12 0;
#X connect 11 0 8 0;
#X connect 11 1 9 0;
#X connect 12 0 3 0;
#X connect 12 0 1 0;
#X connect 13 0 17 0;
#X connect 14 0 16 0;
#X connect 15 0 13 1;
#X connect 15 0 14 1;
#X restore 12 254 pd unit-convert;
#N canvas 676 0 681 676 unit-display 0;
#X obj 71 327 f;
#X obj 71 201 spigot;
#X obj 110 186 tgl 15 0 empty empty empty 17 7 0 10 -262144 -1 -1 1
1;
#X obj 137 201 spigot;
#X obj 176 186 tgl 15 0 empty empty empty 17 7 0 10 -262144 -1 -1 0
1;
#X msg 229 128 0;
#X obj 12 12 inlet;
#X obj 71 128 f;
#X obj 71 12 inlet;
#X obj 110 70 list trim;
#X msg 110 128 1;
#X msg 176 128 1;
#X obj 71 41 t b a b, f 23;
#X obj 71 385 s \$0-grain-duration-r;
#X msg 71 356 set \$1;
#X obj 71 259 expr $f1/($f2*0.001);
#X obj 208 230 r dMab-sample-rate;
#X obj 137 288 expr $f1*($f2*0.001);
#X obj 110 99 route ms samp sync, f 29;
#X obj 71 157 change;
#X connect 0 0 14 0;
#X connect 1 0 15 0;
#X connect 2 0 1 1;
#X connect 3 0 17 0;
#X connect 4 0 3 1;
#X connect 5 0 2 0;
#X connect 5 0 4 0;
#X connect 6 0 7 1;
#X connect 7 0 19 0;
#X connect 8 0 12 0;
#X connect 9 0 18 0;
#X connect 10 0 2 0;
#X connect 11 0 4 0;
#X connect 12 0 7 0;
#X connect 12 1 9 0;
#X connect 12 2 5 0;
#X connect 14 0 13 0;
#X connect 15 0 0 0;
#X connect 15 0 7 1;
#X connect 16 0 15 1;
#X connect 16 0 17 1;
#X connect 17 0 0 0;
#X connect 17 0 7 1;
#X connect 18 0 10 0;
#X connect 18 1 11 0;
#X connect 19 0 1 0;
#X connect 19 0 3 0;
#X restore 22 186 pd unit-display;
#X obj 12 147 r \$0-grain-duration;
#X obj 169 12 r \$0-grain-duration-unit;
#X obj 32 225 r \$0-reload;
#X obj 169 70 change;
#X msg 194 186 label \$1;
#X obj 194 331 s camomile;
#X msg 194 302 gui redraw;
#X obj 194 273 delay 10;
#X obj 194 215 t b a;
#X obj 226 244 s \$0-grain-duration-label-r;
#X obj 92 16 r \$0-init;
#X obj 169 99 sel 0 1 2, f 12;
#X msg 92 70 300;
#X obj 92 45 t b b;
#X msg 124 70 0;
#X obj 92 360 s \$0-grain-duration-r;
#X msg 92 331 set \$1;
#X connect 0 0 5 1;
#X connect 0 0 4 1;
#X connect 0 0 10 0;
#X connect 1 0 0 0;
#X connect 2 0 0 0;
#X connect 3 0 0 0;
#X connect 6 0 4 0;
#X connect 6 0 5 0;
#X connect 7 0 9 0;
#X connect 8 0 4 0;
#X connect 9 0 17 0;
#X connect 10 0 14 0;
#X connect 12 0 11 0;
#X connect 13 0 12 0;
#X connect 14 0 13 0;
#X connect 14 1 15 0;
#X connect 16 0 19 0;
#X connect 17 0 1 0;
#X connect 17 1 2 0;
#X connect 17 2 3 0;
#X connect 18 0 4 0;
#X connect 18 0 5 0;
#X connect 18 0 22 0;
#X connect 19 0 18 0;
#X connect 19 1 20 0;
#X connect 20 0 17 0;
#X connect 22 0 21 0;
#X restore 12 12 pd grain-duration;
#N canvas -7 0 681 676 grain-rate 0;
#X obj 176 177 symbol;
#X msg 151 148 ms;
#X msg 176 148 samp;
#X msg 208 148 sync;
#X obj 12 167 r \$0-grain-rate;
#X obj 151 12 r \$0-grain-rate-unit;
#X obj 32 245 r \$0-reload;
#N canvas -8 -8 1366 685 unit-convert 0;
#X obj 22 182 spigot;
#X obj 61 167 tgl 15 0 empty empty empty 17 7 0 10 -262144 -1 -1 1
1;
#X obj 183 182 spigot;
#X obj 222 167 tgl 15 0 empty empty empty 17 7 0 10 -262144 -1 -1 0
1;
#X obj 12 12 inlet;
#X obj 12 128 f;
#X obj 61 12 inlet;
#X obj 61 70 list trim;
#X msg 61 128 1;
#X msg 222 128 1;
#X obj 61 41 t a b, f 11;
#X obj 61 99 route ms samp, f 26;
#X msg 135 128 0;
#X obj 183 211 expr $f1/($f2*0.001);
#X obj 320 182 r dMab-sample-rate;
#X obj 22 240 s dMab-grain-rate;
#X connect 0 0 15 0;
#X connect 1 0 0 1;
#X connect 2 0 13 0;
#X connect 3 0 2 1;
#X connect 4 0 5 0;
#X connect 5 0 0 0;
#X connect 5 0 2 0;
#X connect 6 0 10 0;
#X connect 7 0 11 0;
#X connect 8 0 1 0;
#X connect 9 0 3 0;
#X connect 10 0 7 0;
#X connect 10 1 12 0;
#X connect 11 0 8 0;
#X connect 11 1 9 0;
#X connect 12 0 3 0;
#X connect 12 0 1 0;
#X connect 13 0 15 0;
#X connect 14 0 13 1;
#X restore 12 274 pd unit-convert;
#N canvas -8 -8 1366 685 unit-display 0;
#X obj 71 327 f;
#X obj 71 201 spigot;
#X obj 110 186 tgl 15 0 empty empty empty 17 7 0 10 -262144 -1 -1 1
1;
#X obj 135 201 spigot;
#X obj 174 186 tgl 15 0 empty empty empty 17 7 0 10 -262144 -1 -1 0
1;
#X msg 229 128 0;
#X obj 12 12 inlet;
#X obj 71 128 f;
#X obj 71 12 inlet;
#X obj 110 70 list trim;
#X msg 110 128 1;
#X msg 174 128 1;
#X obj 71 41 t b a b, f 23;
#X msg 71 356 set \$1;
#X obj 71 259 expr $f1/($f2*0.001);
#X obj 208 230 r dMab-sample-rate;
#X obj 135 288 expr $f1*($f2*0.001);
#X obj 71 385 s \$0-grain-rate-r;
#X obj 110 99 route ms samp sync, f 28;
#X obj 71 157 change;
#X connect 0 0 13 0;
#X connect 1 0 14 0;
#X connect 2 0 1 1;
#X connect 3 0 16 0;
#X connect 4 0 3 1;
#X connect 5 0 2 0;
#X connect 5 0 4 0;
#X connect 6 0 7 1;
#X connect 7 0 19 0;
#X connect 8 0 12 0;
#X connect 9 0 18 0;
#X connect 10 0 2 0;
#X connect 11 0 4 0;
#X connect 12 0 7 0;
#X connect 12 1 9 0;
#X connect 12 2 5 0;
#X connect 13 0 17 0;
#X connect 14 0 0 0;
#X connect 14 0 7 1;
#X connect 15 0 14 1;
#X connect 15 0 16 1;
#X connect 16 0 0 0;
#X connect 16 0 7 1;
#X connect 18 0 10 0;
#X connect 18 1 11 0;
#X connect 19 0 1 0;
#X connect 19 0 3 0;
#X restore 22 206 pd unit-display;
#X obj 151 70 change;
#X msg 465 148 1;
#X msg 495 148 0;
#X obj 465 177 tgl 15 0 empty empty empty 17 7 0 10 -262144 -1 -1 1
1;
#X obj 640 202 expr if($f1==0 \, 1 \, 0);
#X obj 640 226 tgl 15 0 empty empty empty 17 7 0 10 -262144 -1 -1 0
1;
#N canvas 109 43 1366 685 sync 0;
#X obj 51 318 inlet;
#X obj 12 347 spigot;
#X obj 12 12 receive playhead;
#X obj 12 41 route position;
#X msg 12 206 \$1;
#X obj 12 264 int;
#X obj 12 293 change;
#X obj 12 322 bng 15 250 50 0 empty empty empty 17 7 0 10 -262144 -1
-1;
#X obj 12 235 expr $f1*$f2;
#X obj 93 177 pack;
#X obj 135 128 t b f;
#X obj 93 206 expr $f2/$f1;
#X obj 93 70 r \$0-grain-rate-numerator;
#X obj 135 99 r \$0-grain-rate-denominator;
#X obj 12 376 s dMab-grain-rate-sync;
#X obj 58 99 r \$0-init;
#X msg 58 128 1;
#X connect 0 0 1 1;
#X connect 1 0 14 0;
#X connect 2 0 3 0;
#X connect 3 0 4 0;
#X connect 4 0 8 0;
#X connect 5 0 6 0;
#X connect 6 0 7 0;
#X connect 7 0 1 0;
#X connect 8 0 5 0;
#X connect 9 0 11 0;
#X connect 10 0 9 0;
#X connect 10 1 9 1;
#X connect 11 0 8 1;
#X connect 12 0 9 0;
#X connect 13 0 10 0;
#X connect 15 0 16 0;
#X connect 16 0 9 1;
#X connect 16 0 9 0;
#X restore 640 246 pd sync;
#X obj 465 246 s dMab-grain-rate-metro;
#X obj 465 61 r \$0-grain-rate-sync;
#X msg 176 206 label \$1;
#X obj 208 264 s \$0-grain-rate-label-r;
#X obj 176 351 s camomile;
#X msg 176 322 gui redraw;
#X obj 176 293 delay 10;
#X obj 176 235 t b a;
#X obj 465 90 change;
#X obj 151 99 sel 0 1 2, f 29;
#X obj 74 12 r \$0-init;
#X msg 74 70 100;
#X obj 388 61 r \$0-init;
#X msg 388 90 0;
#X obj 465 119 sel 0 1, f 9;
#X obj 74 41 t b b;
#X msg 106 70 0;
#X msg 74 351 set \$1;
#X obj 74 380 s \$0-grain-rate-r;
#X connect 0 0 7 1;
#X connect 0 0 8 1;
#X connect 0 0 18 0;
#X connect 1 0 0 0;
#X connect 2 0 0 0;
#X connect 3 0 0 0;
#X connect 4 0 7 0;
#X connect 4 0 8 0;
#X connect 5 0 9 0;
#X connect 6 0 7 0;
#X connect 9 0 25 0;
#X connect 10 0 12 0;
#X connect 11 0 12 0;
#X connect 12 0 13 0;
#X connect 12 0 16 0;
#X connect 13 0 14 0;
#X connect 14 0 15 0;
#X connect 17 0 24 0;
#X connect 18 0 23 0;
#X connect 21 0 20 0;
#X connect 22 0 21 0;
#X connect 23 0 22 0;
#X connect 23 1 19 0;
#X connect 24 0 30 0;
#X connect 25 0 1 0;
#X connect 25 1 2 0;
#X connect 25 2 3 0;
#X connect 26 0 31 0;
#X connect 27 0 8 0;
#X connect 27 0 7 0;
#X connect 27 0 33 0;
#X connect 28 0 29 0;
#X connect 29 0 30 0;
#X connect 30 0 10 0;
#X connect 30 1 11 0;
#X connect 31 0 27 0;
#X connect 31 1 32 0;
#X connect 32 0 25 0;
#X connect 33 0 34 0;
#X restore 145 12 pd grain-rate;
#X restore 12 469 pd grain;
#X obj 575 268 hsl 130 15 -300 300 0 0 \$0-speed-slide-s \$0-speed-slide-r
empty -2 -8 0 10 -49933 -183085 -183085 8600 0;
#X obj 575 225 hsl 199 15 0 1 0 0 \$0-playhead-s \$0-playhead-r empty
-2 -8 0 10 -49933 -183085 -183085 0 0;
#X obj 445 242 nbx 5 19 1 9999 0 0 \$0-grain-rate-s \$0-grain-rate-r
empty 0 -8 0 10 -49933 -183085 -183085 100 256;
#X obj 505 181 hradio 15 1 0 2 \$0-grain-duration-unit-s \$0-grain-duration-unit-r
empty 0 -8 0 10 -49933 -183085 -183085 0;
#X obj 445 197 nbx 5 18 1 9999 0 0 \$0-grain-duration-s \$0-grain-duration-r
empty 0 -8 0 10 -49933 -183085 -183085 300 256;
#X obj 591 245 cnv 15 15 15 empty \$0-text reset_on_noteon 0 6 0 14
-70738 -183085 0;
#X obj 566 366 nbx 5 18 -9999 9999 0 0 \$0-offset-time-s \$0-offset-time-r
empty 0 -8 0 10 -49933 -183085 -183085 0 256;
#X obj 566 410 nbx 3 18 0 100 0 0 \$0-offset-time-amount-s \$0-offset-time-amount-r
empty 0 -8 0 10 -49933 -183085 -183085 0 256;
#X obj 566 350 cnv 15 15 15 empty \$0-text offset 0 6 0 14 -70738 -183085
0;
#X obj 566 394 cnv 15 15 15 empty \$0-text chance 0 6 0 14 -70738 -183085
0;
#X obj 566 325 cnv 15 15 15 empty \$0-text playhead: 0 6 0 14 -70738
-183085 0;
#X obj 609 412 cnv 15 15 15 empty \$0-text % 0 6 0 14 -70738 -183085
0;
#X obj 626 350 hradio 15 1 0 2 \$0-offset-time-unit-s \$0-offset-time-unit-r
empty 0 -8 0 10 -49933 -183085 -183085 0;
#X obj 505 227 hradio 15 1 0 2 \$0-grain-rate-unit-s \$0-grain-rate-unit-r
empty 0 -8 0 10 -49933 -183085 -183085 0;
#X obj 456 309 cnv 15 15 15 empty \$0-text envelope: 0 6 0 14 -70738
-183085 0;
#X obj 468 157 cnv 15 15 15 empty \$0-text grain: 0 6 0 14 -70738 -183085
0;
#X obj 445 181 cnv 15 15 15 empty \$0-grain-duration-label durat. 0
6 0 14 -70738 -183085 0;
#X obj 446 226 cnv 15 15 15 empty \$0-text rate 0 6 0 14 -70738 -183085
0;
#X obj 651 283 nbx 5 18 -999 999 0 0 \$0-speed-s \$0-speed-r empty
0 -8 0 10 -49933 -183085 -183085 100 256;
#X obj 467 331 nbx 5 18 0 9999 0 0 \$0-att-s \$0-att-r empty 0 -8 0
10 -49933 -183085 -183085 0 256;
#X obj 527 333 cnv 15 15 15 empty \$0-text ms 0 6 0 14 -70738 -183085
0;
#X obj 467 353 nbx 5 18 0 9999 0 0 \$0-dec-s \$0-dec-r empty 0 -8 0
10 -49933 -183085 -183085 0 256;
#X obj 527 355 cnv 15 15 15 empty \$0-text ms 0 6 0 14 -70738 -183085
0;
#X obj 467 375 nbx 5 18 0 100 0 0 \$0-sus-s \$0-sus-r empty 0 -8 0
10 -49933 -183085 -183085 100 256;
#X obj 467 397 nbx 5 18 0 9999 0 0 \$0-rel-s \$0-rel-r empty 0 -8 0
10 -49933 -183085 -183085 0 256;
#X obj 527 399 cnv 15 15 15 empty \$0-text ms 0 6 0 14 -70738 -183085
0;
#X obj 439 333 cnv 15 15 15 empty \$0-text att 0 6 0 14 -70738 -183085
0;
#X obj 439 355 cnv 15 15 15 empty \$0-text dec 0 6 0 14 -70738 -183085
0;
#X obj 439 377 cnv 15 15 15 empty \$0-text sus 0 6 0 14 -70738 -183085
0;
#X obj 439 399 cnv 15 15 15 empty \$0-text rel 0 6 0 14 -70738 -183085
0;
#X obj 737 267 cnv 15 15 15 empty \$0-text origin_note 0 6 0 14 -70738
-183085 0;
#X obj 607 287 cnv 15 15 15 empty \$0-text speed 0 6 0 14 -70738 -183085
0;
#X obj 572 246 tgl 15 0 \$0-playhead-reset-s \$0-playhead-reset-r empty
17 7 0 10 -49933 -183085 -183085 0 1;
#X obj 873 157 cnv 15 15 15 empty \$0-text window: 0 6 0 14 -70738
-183085 0;
#N canvas -8 -8 1366 685 player 0;
#X obj 12 196 list prepend;
#X obj 12 225 list trim;
#X msg 70 167 manual;
#X msg 116 167 noteon;
#X obj 547 148 t b b;
#X msg 503 206 0;
#X msg 558 206 1;
#X obj 519 322 spigot;
#X obj 519 350 * 0.01;
#X msg 603 322 set \$1;
#X obj 603 350 s \$0-speed-slide-r;
#X obj 12 254 s dMab-playhead-pos;
#X obj 503 379 s dMab-speed;
#X obj 779 263 r \$0-speed-slide-s;
#X obj 779 322 s \$0-speed-r;
#X obj 12 12 r \$0-playhead;
#X obj 503 51 r \$0-play;
#X obj 519 235 r \$0-speed;
#X obj 61 41 r \$0-playhead-reset;
#X obj 519 293 f;
#X obj 12 167 f;
#X obj 61 70 t b f;
#X obj 93 99 change;
#X obj 503 80 change;
#X obj 503 109 sel 0 1, f 13;
#X obj 416 51 r \$0-init;
#X msg 603 264 100;
#X obj 603 235 r \$0-init;
#X obj 149 80 r \$0-init;
#X msg 149 109 0;
#X obj 93 138 sel 0 1;
#X msg 723 293 set \$1;
#X obj 416 138 s \$0-play-r;
#X msg 416 109 set \$1;
#X msg 416 80 0;
#X connect 0 0 1 0;
#X connect 1 0 11 0;
#X connect 2 0 0 1;
#X connect 3 0 0 1;
#X connect 4 0 19 0;
#X connect 4 1 6 0;
#X connect 5 0 7 1;
#X connect 5 0 12 0;
#X connect 6 0 7 1;
#X connect 7 0 8 0;
#X connect 8 0 12 0;
#X connect 9 0 10 0;
#X connect 13 0 14 0;
#X connect 15 0 20 0;
#X connect 16 0 23 0;
#X connect 17 0 9 0;
#X connect 17 0 19 0;
#X connect 18 0 21 0;
#X connect 19 0 7 0;
#X connect 20 0 0 0;
#X connect 21 0 20 0;
#X connect 21 1 22 0;
#X connect 22 0 30 0;
#X connect 23 0 24 0;
#X connect 24 0 5 0;
#X connect 24 1 4 0;
#X connect 25 0 34 0;
#X connect 26 0 19 0;
#X connect 26 0 9 0;
#X connect 26 0 31 0;
#X connect 27 0 26 0;
#X connect 28 0 29 0;
#X connect 29 0 30 0;
#X connect 30 0 2 0;
#X connect 30 1 3 0;
#X connect 31 0 14 0;
#X connect 33 0 32 0;
#X connect 34 0 24 0;
#X connect 34 0 33 0;
#X restore 12 517 pd player;
#X obj 560 315 cnv 2 400 1 empty \$0-bar empty 20 12 0 14 -183085 -70738
0;
#X obj 555 323 cnv 2 1 148 empty \$0-bar empty 20 12 0 14 -183085 -70738
0;
#X obj 854 251 cnv 15 100 50 empty \$0-waveformBg-r empty 20 12 0 14
-183085 -1 0;
#N canvas 0 50 450 250 (subpatch) 0;
#X array dMab-window 2048 float 0;
#X coords 0 1 2047 -1 100 50 1 0 0;
#X restore 854 251 graph;
#X obj 566 437 cnv 15 15 15 empty \$0-text precision 0 6 0 14 -70738
-183085 0;
#X obj 677 366 nbx 5 18 -999 999 0 0 \$0-offset-pitch-s \$0-offset-pitch-r
empty 0 -8 0 10 -49933 -183085 -183085 0 256;
#X obj 677 350 cnv 15 15 15 empty \$0-text offset 0 6 0 14 -70738 -183085
0;
#X obj 737 350 hradio 15 1 0 2 \$0-offset-pitch-unit-s \$0-offset-pitch-unit-r
empty 0 -8 0 10 -49933 -183085 -183085 0;
#X obj 677 410 nbx 3 18 0 100 0 0 \$0-offset-pitch-amount-s \$0-offset-pitch-amount-r
empty 0 -8 0 10 -49933 -183085 -183085 0 256;
#X obj 677 394 cnv 15 15 15 empty \$0-text chance 0 6 0 14 -70738 -183085
0;
#X obj 720 412 cnv 15 15 15 empty \$0-text % 0 6 0 14 -70738 -183085
0;
#X obj 677 437 cnv 15 15 15 empty \$0-text precision 0 6 0 14 -70738
-183085 0;
#X obj 737 283 nbx 3 18 0 127 0 0 \$0-sample-note-s \$0-sample-note-r
empty 0 -8 0 10 -49933 -183085 -183085 48 256;
#X obj 759 499 cnv 15 103 15 empty \$0-colors-extra granola_v1.0 1
7 0 14 -183085 -70738 0;
#X obj 569 454 hsl 85 15 0 100 0 0 \$0-offset-time-precis-s \$0-offset-time-precis-r
empty -2 -8 0 10 -49933 -183085 -183085 0 0;
#X obj 680 454 hsl 85 15 0 100 0 0 \$0-offset-pitch-precis-s \$0-offset-pitch-precis-r
empty -2 -8 0 10 -49933 -183085 -183085 0 0;
#X obj 677 325 cnv 15 15 15 empty \$0-text pitch: 0 6 0 14 -70738 -183085
0;
#X obj 711 285 cnv 15 15 15 empty \$0-text % 0 6 0 14 -70738 -183085
0;
#N canvas -8 -8 1366 685 color-palette 0;
#X obj 201 84 pack symbol symbol symbol;
#X msg 201 113 color \$1 \$2 \$3;
#X obj 12 142 s \$0-colors-back;
#X obj 12 84 pack symbol symbol symbol;
#X msg 12 113 color \$1 \$2 \$3;
#X obj 201 142 s \$0-colors-element;
#X msg 201 12 list #303030 #b0b0b0 #b0b0b0, f 7;
#X msg 12 13 list #444444 #b0b0b0 #b0b0b0, f 7;
#X obj 390 84 pack symbol symbol symbol;
#X msg 390 113 color \$1 \$2 \$3;
#X obj 390 142 s \$0-colors-extra;
#X msg 390 13 list #b0b0b0 #b0b0b0 #444444, f 7;
#X obj 579 84 pack symbol symbol symbol;
#X msg 579 113 color \$1 \$2 \$3;
#X msg 579 13 list #b0b0b0 #444444 #000000, f 7;
#X obj 579 142 s \$0-colors-waveformBg;
#X connect 0 0 1 0;
#X connect 1 0 5 0;
#X connect 3 0 4 0;
#X connect 4 0 2 0;
#X connect 6 0 0 0;
#X connect 7 0 3 0;
#X connect 8 0 9 0;
#X connect 9 0 10 0;
#X connect 11 0 8 0;
#X connect 12 0 13 0;
#X connect 13 0 15 0;
#X connect 14 0 12 0;
#X restore 12 445 pd color-palette;
#X obj 801 177 cnv 15 15 15 empty \$0-text load 0 6 0 14 -70738 -183085
0;
#X obj 782 178 bng 15 250 50 0 \$0-loadFile-s \$0-loadFile-r empty
17 7 0 10 -49933 -183085 -183085;
#N canvas 0 50 450 300 offset 0;
#N canvas -8 -8 1366 685 offset-time 0;
#X obj 215 157 symbol;
#X msg 215 128 ms;
#X msg 240 128 samp;
#X obj 667 41 expr (100-$f1)*0.01;
#X obj 464 80 s dMab-offset-time-amount;
#X obj 667 80 s dMab-offset-time-precis;
#X obj 12 12 r \$0-offset-time;
#X obj 215 41 r \$0-offset-time-unit;
#X obj 667 12 r \$0-offset-time-precis;
#N canvas -8 -8 1366 685 unit-convert 0;
#X obj 22 182 spigot;
#X obj 61 167 tgl 15 0 empty empty empty 17 7 0 10 -262144 -1 -1 1
1;
#X obj 95 182 spigot;
#X obj 134 167 tgl 15 0 empty empty empty 17 7 0 10 -262144 -1 -1 0
1;
#X obj 22 12 inlet;
#X obj 22 128 f;
#X obj 71 12 inlet;
#X obj 61 70 list trim;
#X msg 61 128 1;
#X msg 222 128 1;
#X obj 61 41 t a b, f 11;
#X obj 61 99 route ms samp, f 26;
#X msg 135 128 0;
#X obj 22 240 expr $f1*$f2*0.001;
#X obj 145 211 r dMab-sample-rate;
#X obj 22 269 s dMab-offset-time;
#X connect 0 0 13 0;
#X connect 1 0 0 1;
#X connect 2 0 15 0;
#X connect 3 0 2 1;
#X connect 4 0 5 0;
#X connect 5 0 0 0;
#X connect 5 0 2 0;
#X connect 6 0 10 0;
#X connect 7 0 11 0;
#X connect 8 0 1 0;
#X connect 9 0 3 0;
#X connect 10 0 7 0;
#X connect 10 1 12 0;
#X connect 11 0 8 0;
#X connect 11 1 9 0;
#X connect 12 0 3 0;
#X connect 12 0 1 0;
#X connect 13 0 15 0;
#X connect 14 0 13 1;
#X restore 12 215 pd unit-convert;
#X obj 215 70 change;
#N canvas -8 -8 1366 685 unit-display 0;
#X obj 71 327 f;
#X obj 71 201 spigot;
#X obj 110 186 tgl 15 0 empty empty empty 17 7 0 10 -262144 -1 -1 1
1;
#X obj 136 201 spigot;
#X obj 175 186 tgl 15 0 empty empty empty 17 7 0 10 -262144 -1 -1 0
1;
#X msg 229 128 0;
#X obj 12 12 inlet;
#X obj 71 128 f;
#X obj 71 12 inlet;
#X obj 110 70 list trim;
#X msg 110 128 1;
#X msg 175 128 1;
#X obj 71 41 t b a b, f 23;
#X obj 110 99 route ms samp, f 19;
#X msg 71 356 set \$1;
#X obj 71 259 expr $f1/($f2*0.001);
#X obj 208 230 r dMab-sample-rate;
#X obj 136 288 expr $f1*($f2*0.001);
#X obj 71 385 s \$0-offset-time-r;
#X obj 71 157 change;
#X connect 0 0 14 0;
#X connect 1 0 15 0;
#X connect 2 0 1 1;
#X connect 3 0 17 0;
#X connect 4 0 3 1;
#X connect 5 0 2 0;
#X connect 5 0 4 0;
#X connect 6 0 7 1;
#X connect 7 0 19 0;
#X connect 8 0 12 0;
#X connect 9 0 13 0;
#X connect 10 0 2 0;
#X connect 11 0 4 0;
#X connect 12 0 7 0;
#X connect 12 1 9 0;
#X connect 12 2 5 0;
#X connect 13 0 10 0;
#X connect 13 1 11 0;
#X connect 14 0 18 0;
#X connect 15 0 0 0;
#X connect 15 0 7 1;
#X connect 16 0 15 1;
#X connect 16 0 17 1;
#X connect 17 0 0 0;
#X connect 17 0 7 1;
#X connect 19 0 1 0;
#X connect 19 0 3 0;
#X restore 22 186 pd unit-display;
#X obj 464 12 r \$0-offset-time-amount;
#X msg 215 186 label \$1;
#X obj 247 244 s \$0-offset-time-label-r;
#X obj 215 331 s camomile;
#X msg 215 302 gui redraw;
#X obj 215 273 delay 10;
#X obj 215 215 t b a;
#X obj 138 12 r \$0-init;
#X msg 170 70 0;
#X obj 215 99 sel 0 1;
#X obj 138 41 t b b;
#X msg 138 70 0;
#X obj 878 12 r \$0-init;
#X msg 878 41 0;
#X obj 138 360 s \$0-offset-time-r;
#X msg 138 331 set \$1;
#X connect 0 0 9 1;
#X connect 0 0 11 1;
#X connect 0 0 13 0;
#X connect 1 0 0 0;
#X connect 2 0 0 0;
#X connect 3 0 5 0;
#X connect 6 0 9 0;
#X connect 6 0 11 0;
#X connect 7 0 10 0;
#X connect 8 0 3 0;
#X connect 10 0 21 0;
#X connect 12 0 4 0;
#X connect 13 0 18 0;
#X connect 16 0 15 0;
#X connect 17 0 16 0;
#X connect 18 0 17 0;
#X connect 18 1 14 0;
#X connect 19 0 22 0;
#X connect 20 0 21 0;
#X connect 21 0 1 0;
#X connect 21 1 2 0;
#X connect 22 0 23 0;
#X connect 22 1 20 0;
#X connect 23 0 11 0;
#X connect 23 0 9 0;
#X connect 23 0 27 0;
#X connect 24 0 25 0;
#X connect 25 0 4 0;
#X connect 25 0 3 0;
#X connect 27 0 26 0;
#X restore 12 11 pd offset-time;
#N canvas -8 -8 1366 685 offset-pitch 0;
#X msg 222 128 mid;
#X msg 252 128 cent;
#X obj 222 167 symbol;
#X obj 586 51 expr (100-$f1)*0.01;
#X obj 586 80 s dMab-offset-pitch-precis;
#X obj 390 80 s dMab-offset-pitch-amount;
#X obj 12 12 r \$0-offset-pitch;
#X obj 390 12 r \$0-offset-pitch-amount;
#X obj 586 12 r \$0-offset-pitch-precis;
#X obj 222 12 r \$0-offset-pitch-unit;
#N canvas -8 -8 1366 685 unit-convert 0;
#X obj 22 182 spigot;
#X obj 61 167 tgl 15 0 empty empty empty 17 7 0 10 -262144 -1 -1 1
1;
#X obj 95 182 spigot;
#X obj 134 167 tgl 15 0 empty empty empty 17 7 0 10 -262144 -1 -1 0
1;
#X obj 22 12 inlet;
#X obj 22 128 f;
#X obj 71 12 inlet;
#X obj 61 70 list trim;
#X msg 61 128 1;
#X msg 222 128 1;
#X obj 61 41 t a b, f 11;
#X msg 135 128 0;
#X obj 61 99 route mid cent, f 26;
#X obj 95 211 expr $f1*0.01;
#X obj 22 250 s dMab-offset-pitch;
#X connect 0 0 14 0;
#X connect 1 0 0 1;
#X connect 2 0 13 0;
#X connect 3 0 2 1;
#X connect 4 0 5 0;
#X connect 5 0 0 0;
#X connect 5 0 2 0;
#X connect 6 0 10 0;
#X connect 7 0 12 0;
#X connect 8 0 1 0;
#X connect 9 0 3 0;
#X connect 10 0 7 0;
#X connect 10 1 11 0;
#X connect 11 0 3 0;
#X connect 11 0 1 0;
#X connect 12 0 8 0;
#X connect 12 1 9 0;
#X connect 13 0 14 0;
#X restore 12 196 pd unit-convert;
#N canvas -8 -8 1366 685 unit-display 0;
#X obj 71 327 f;
#X obj 71 201 spigot;
#X obj 110 186 tgl 15 0 empty empty empty 17 7 0 10 -262144 -1 -1 1
1;
#X obj 136 201 spigot;
#X obj 175 186 tgl 15 0 empty empty empty 17 7 0 10 -262144 -1 -1 0
1;
#X msg 229 128 0;
#X obj 12 12 inlet;
#X obj 71 128 f;
#X obj 71 12 inlet;
#X obj 110 70 list trim;
#X msg 110 128 1;
#X msg 175 128 1;
#X obj 71 41 t b a b, f 23;
#X msg 71 356 set \$1;
#X obj 110 99 route mid cent, f 19;
#X obj 71 259 expr $f1*0.01;
#X obj 136 288 expr $f1*100;
#X obj 71 385 s \$0-offset-pitch-r;
#X obj 71 157 change;
#X connect 0 0 13 0;
#X connect 1 0 15 0;
#X connect 2 0 1 1;
#X connect 3 0 16 0;
#X connect 4 0 3 1;
#X connect 5 0 2 0;
#X connect 5 0 4 0;
#X connect 6 0 7 1;
#X connect 7 0 18 0;
#X connect 8 0 12 0;
#X connect 9 0 14 0;
#X connect 10 0 2 0;
#X connect 11 0 4 0;
#X connect 12 0 7 0;
#X connect 12 1 9 0;
#X connect 12 2 5 0;
#X connect 13 0 17 0;
#X connect 14 0 10 0;
#X connect 14 1 11 0;
#X connect 15 0 0 0;
#X connect 15 0 7 1;
#X connect 16 0 0 0;
#X connect 16 0 7 1;
#X connect 18 0 1 0;
#X connect 18 0 3 0;
#X restore 22 167 pd unit-display;
#X msg 222 196 label \$1;
#X obj 222 341 s camomile;
#X msg 222 312 gui redraw;
#X obj 222 283 delay 10;
#X obj 222 225 t b a;
#X obj 254 254 s \$0-offset-pitch-label-r;
#X obj 222 70 change;
#X obj 222 99 sel 0 1, f 9;
#X obj 145 12 r \$0-init;
#X obj 145 41 t b b;
#X msg 177 70 0;
#X msg 145 70 0;
#X obj 818 22 r \$0-init;
#X msg 818 51 0;
#X msg 145 341 set \$1;
#X obj 145 370 s \$0-offset-pitch-r;
#X connect 0 0 2 0;
#X connect 1 0 2 0;
#X connect 2 0 11 1;
#X connect 2 0 10 1;
#X connect 2 0 12 0;
#X connect 3 0 4 0;
#X connect 6 0 11 0;
#X connect 6 0 10 0;
#X connect 7 0 5 0;
#X connect 8 0 3 0;
#X connect 9 0 18 0;
#X connect 12 0 16 0;
#X connect 14 0 13 0;
#X connect 15 0 14 0;
#X connect 16 0 15 0;
#X connect 16 1 17 0;
#X connect 18 0 19 0;
#X connect 19 0 0 0;
#X connect 19 1 1 0;
#X connect 20 0 21 0;
#X connect 21 0 23 0;
#X connect 21 1 22 0;
#X connect 22 0 19 0;
#X connect 23 0 11 0;
#X connect 23 0 10 0;
#X connect 23 0 26 0;
#X connect 24 0 25 0;
#X connect 25 0 5 0;
#X connect 25 0 3 0;
#X connect 26 0 27 0;
#X restore 124 11 pd offset-pitch;
#N canvas -8 -8 1366 685 offset-duration 0;
#X obj 243 157 symbol;
#X msg 243 128 ms;
#X msg 268 128 samp;
#X obj 701 41 expr (100-$f1)*0.01;
#N canvas -8 -8 1366 685 unit-convert 0;
#X obj 22 182 spigot;
#X obj 61 167 tgl 15 0 empty empty empty 17 7 0 10 -262144 -1 -1 1
1;
#X obj 95 182 spigot;
#X obj 134 167 tgl 15 0 empty empty empty 17 7 0 10 -262144 -1 -1 0
1;
#X obj 22 12 inlet;
#X obj 22 128 f;
#X obj 71 12 inlet;
#X obj 61 70 list trim;
#X msg 61 128 1;
#X msg 222 128 1;
#X obj 61 41 t a b, f 11;
#X obj 61 99 route ms samp, f 26;
#X msg 135 128 0;
#X obj 22 240 expr $f1*$f2*0.001;
#X obj 145 211 r dMab-sample-rate;
#X obj 22 269 s dMab-offset-duration;
#X connect 0 0 13 0;
#X connect 1 0 0 1;
#X connect 2 0 15 0;
#X connect 3 0 2 1;
#X connect 4 0 5 0;
#X connect 5 0 0 0;
#X connect 5 0 2 0;
#X connect 6 0 10 0;
#X connect 7 0 11 0;
#X connect 8 0 1 0;
#X connect 9 0 3 0;
#X connect 10 0 7 0;
#X connect 10 1 12 0;
#X connect 11 0 8 0;
#X connect 11 1 9 0;
#X connect 12 0 3 0;
#X connect 12 0 1 0;
#X connect 13 0 15 0;
#X connect 14 0 13 1;
#X restore 12 186 pd unit-convert;
#X obj 243 70 change;
#N canvas -8 -8 1366 685 unit-display 0;
#X obj 71 327 f;
#X obj 71 201 spigot;
#X obj 110 186 tgl 15 0 empty empty empty 17 7 0 10 -262144 -1 -1 1
1;
#X obj 136 201 spigot;
#X obj 175 186 tgl 15 0 empty empty empty 17 7 0 10 -262144 -1 -1 0
1;
#X msg 229 128 0;
#X obj 12 12 inlet;
#X obj 71 128 f;
#X obj 71 12 inlet;
#X obj 110 70 list trim;
#X msg 110 128 1;
#X msg 175 128 1;
#X obj 71 41 t b a b, f 23;
#X obj 110 99 route ms samp, f 19;
#X msg 71 356 set \$1;
#X obj 71 259 expr $f1/($f2*0.001);
#X obj 208 230 r dMab-sample-rate;
#X obj 136 288 expr $f1*($f2*0.001);
#X obj 71 385 s \$0-offset-duration-r;
#X obj 71 157 change;
#X connect 0 0 14 0;
#X connect 1 0 15 0;
#X connect 2 0 1 1;
#X connect 3 0 17 0;
#X connect 4 0 3 1;
#X connect 5 0 2 0;
#X connect 5 0 4 0;
#X connect 6 0 7 1;
#X connect 7 0 19 0;
#X connect 8 0 12 0;
#X connect 9 0 13 0;
#X connect 10 0 2 0;
#X connect 11 0 4 0;
#X connect 12 0 7 0;
#X connect 12 1 9 0;
#X connect 12 2 5 0;
#X connect 13 0 10 0;
#X connect 13 1 11 0;
#X connect 14 0 18 0;
#X connect 15 0 0 0;
#X connect 15 0 7 1;
#X connect 16 0 15 1;
#X connect 16 0 17 1;
#X connect 17 0 0 0;
#X connect 17 0 7 1;
#X connect 19 0 1 0;
#X connect 19 0 3 0;
#X restore 22 157 pd unit-display;
#X obj 12 12 r \$0-offset-duration;
#X obj 243 41 r \$0-offset-duration-unit;
#X obj 484 12 r \$0-offset-duration-amount;
#X obj 701 12 r \$0-offset-duration-precis;
#X obj 701 70 s dMab-offset-duration-precis;
#X obj 484 70 s dMab-offset-duration-amount;
#X msg 243 186 label \$1;
#X obj 243 331 s camomile;
#X msg 243 302 gui redraw;
#X obj 243 273 delay 10;
#X obj 243 215 t b a;
#X obj 275 244 s \$0-offset-duration-label-r;
#X obj 243 99 sel 0 1;
#X obj 166 12 r \$0-init;
#X obj 166 41 t b b;
#X msg 198 70 0;
#X msg 166 70 0;
#X obj 954 12 r \$0-init;
#X msg 954 41 0;
#X msg 166 331 set \$1;
#X obj 166 360 s \$0-offset-duration-r;
#X connect 0 0 4 1;
#X connect 0 0 6 1;
#X connect 0 0 13 0;
#X connect 1 0 0 0;
#X connect 2 0 0 0;
#X connect 3 0 11 0;
#X connect 5 0 19 0;
#X connect 7 0 4 0;
#X connect 7 0 6 0;
#X connect 8 0 5 0;
#X connect 9 0 12 0;
#X connect 10 0 3 0;
#X connect 13 0 17 0;
#X connect 15 0 14 0;
#X connect 16 0 15 0;
#X connect 17 0 16 0;
#X connect 17 1 18 0;
#X connect 19 0 1 0;
#X connect 19 1 2 0;
#X connect 20 0 21 0;
#X connect 21 0 23 0;
#X connect 21 1 22 0;
#X connect 22 0 19 0;
#X connect 23 0 6 0;
#X connect 23 0 4 0;
#X connect 23 0 26 0;
#X connect 24 0 25 0;
#X connect 25 0 3 0;
#X connect 25 0 12 0;
#X connect 26 0 27 0;
#X restore 243 11 pd offset-duration;
#X restore 12 541 pd offset;
#X obj 788 366 nbx 5 18 -999 999 0 0 \$0-offset-duration-s \$0-offset-duration-r
empty 0 -8 0 10 -49933 -183085 -183085 0 256;
#X obj 788 350 cnv 15 15 15 empty \$0-text offset 0 6 0 14 -70738 -183085
0;
#X obj 848 350 hradio 15 1 0 2 \$0-offset-duration-unit-s \$0-offset-duration-unit-r
empty 0 -8 0 10 -49933 -183085 -183085 1;
#X obj 788 410 nbx 3 18 0 100 0 0 \$0-offset-duration-amount-s \$0-offset-duration-amount-r
empty 0 -8 0 10 -49933 -183085 -183085 0 256;
#X obj 788 394 cnv 15 15 15 empty \$0-text chance 0 6 0 14 -70738 -183085
0;
#X obj 831 412 cnv 15 15 15 empty \$0-text % 0 6 0 14 -70738 -183085
0;
#X obj 788 437 cnv 15 15 15 empty \$0-text precision 0 6 0 14 -70738
-183085 0;
#X obj 791 454 hsl 85 15 0 100 0 0 \$0-offset-duration-precis-s \$0-offset-duration-precis-r
empty -2 -8 0 10 -49933 -183085 -183085 0 0;
#X obj 788 325 cnv 15 15 15 empty \$0-text duration: 0 6 0 14 -70738
-183085 0;
#X obj 777 329 cnv 2 1 91 empty \$0-bar empty 20 12 0 14 -183085 -70738
0;
#N canvas -7 0 681 676 camomile 0;
#N canvas -8 -8 1366 685 parameters-receive 0;
#X obj 12 12 r param;
#N canvas -8 -8 1366 685 r-global 0;
#X obj 12 12 inlet;
#X obj 12 100 change;
#X obj 141 100 change;
#X obj 270 100 change;
#X obj 385 100 change;
#X msg 22 129 set \$1;
#X msg 151 129 set \$1;
#X msg 280 129 set \$1;
#X msg 395 129 set \$1;
#X obj 12 71 route 1;
#X obj 22 158 s \$0-out-gain-r;
#X obj 151 158 s \$0-bendMode-r;
#X obj 280 158 s \$0-legato-r;
#X obj 12 187 s \$0-out-gain;
#X obj 141 187 s \$0-bendMode;
#X obj 270 187 s \$0-legato;
#X obj 395 158 s \$0-voice-steal-r;
#X obj 385 187 s \$0-voice-steal;
#X obj 535 100 change;
#X msg 545 129 set \$1;
#X obj 545 158 s \$0-voice-poly-r;
#X obj 535 187 s \$0-voice-poly;
#X obj 141 71 route 2;
#X obj 270 71 route 3;
#X obj 385 71 route 4;
#X obj 535 71 route 5;
#X obj 678 100 change;
#X msg 688 129 set \$1;
#X obj 688 158 s \$0-channels-r;
#X obj 678 187 s \$0-channels;
#X obj 678 71 route 6;
#X connect 0 0 9 0;
#X connect 0 0 22 0;
#X connect 0 0 23 0;
#X connect 0 0 24 0;
#X connect 0 0 25 0;
#X connect 0 0 30 0;
#X connect 1 0 5 0;
#X connect 1 0 13 0;
#X connect 2 0 6 0;
#X connect 2 0 14 0;
#X connect 3 0 7 0;
#X connect 3 0 15 0;
#X connect 4 0 8 0;
#X connect 4 0 17 0;
#X connect 5 0 10 0;
#X connect 6 0 11 0;
#X connect 7 0 12 0;
#X connect 8 0 16 0;
#X connect 9 0 1 0;
#X connect 18 0 19 0;
#X connect 18 0 21 0;
#X connect 19 0 20 0;
#X connect 22 0 2 0;
#X connect 23 0 3 0;
#X connect 24 0 4 0;
#X connect 25 0 18 0;
#X connect 26 0 27 0;
#X connect 26 0 29 0;
#X connect 27 0 28 0;
#X connect 30 0 26 0;
#X restore 19 51 pd r-global;
#N canvas -8 0 1370 685 r-grain 0;
#X obj 12 12 inlet;
#X obj 12 100 change;
#X obj 218 100 change;
#X obj 389 100 change;
#X obj 567 100 change;
#X msg 22 129 set \$1;
#X msg 228 129 set \$1;
#X msg 399 129 set \$1;
#X msg 577 129 set \$1;
#X obj 22 158 s \$0-grain-duration-unit-r;
#X obj 12 187 s \$0-grain-duration-unit;
#X obj 228 158 s \$0-grain-duration-r;
#X obj 218 187 s \$0-grain-duration;
#X obj 399 158 s \$0-grain-rate-unit-r;
#X obj 389 187 s \$0-grain-rate-unit;
#X obj 577 158 s \$0-grain-rate-r;
#X obj 567 187 s \$0-grain-rate;
#X obj 923 100 change;
#X msg 933 129 set \$1;
#X obj 710 100 change;
#X msg 720 129 set \$1;
#X obj 933 158 s \$0-grain-rate-denominator-r;
#X obj 923 187 s \$0-grain-rate-denominator;
#X obj 710 187 s \$0-grain-rate-numerator;
#X obj 720 158 s \$0-grain-rate-numerator-r;
#X obj 1150 100 change;
#X msg 1160 129 set \$1;
#X obj 1160 158 s \$0-grain-rate-sync-r;
#X obj 1150 187 s \$0-grain-rate-sync;
#X obj 12 71 route 7;
#X obj 218 71 route 8;
#X obj 389 71 route 9;
#X obj 567 71 route 10;
#X obj 710 71 route 11;
#X obj 923 71 route 12;
#X obj 1150 71 route 13;
#X connect 0 0 29 0;
#X connect 0 0 30 0;
#X connect 0 0 31 0;
#X connect 0 0 32 0;
#X connect 0 0 33 0;
#X connect 0 0 34 0;
#X connect 0 0 35 0;
#X connect 1 0 5 0;
#X connect 1 0 10 0;
#X connect 2 0 6 0;
#X connect 2 0 12 0;
#X connect 3 0 7 0;
#X connect 3 0 14 0;
#X connect 4 0 8 0;
#X connect 4 0 16 0;
#X connect 5 0 9 0;
#X connect 6 0 11 0;
#X connect 7 0 13 0;
#X connect 8 0 15 0;
#X connect 17 0 18 0;
#X connect 17 0 22 0;
#X connect 18 0 21 0;
#X connect 19 0 20 0;
#X connect 19 0 23 0;
#X connect 20 0 24 0;
#X connect 25 0 26 0;
#X connect 25 0 28 0;
#X connect 26 0 27 0;
#X connect 29 0 1 0;
#X connect 30 0 2 0;
#X connect 31 0 3 0;
#X connect 32 0 4 0;
#X connect 33 0 19 0;
#X connect 34 0 17 0;
#X connect 35 0 25 0;
#X restore 29 80 pd r-grain;
#N canvas 394 302 792 300 r-window 0;
#X obj 12 12 inlet;
#X obj 12 100 change;
#X obj 155 100 change;
#X msg 22 129 set \$1;
#X msg 165 129 set \$1;
#X obj 22 158 s \$0-window-sel-r;
#X obj 165 158 s \$0-window-smooth-r;
#X obj 155 187 s \$0-window-smooth;
#X obj 12 187 s \$0-window-sel;
#X obj 12 71 route 14;
#X obj 155 71 route 15;
#X connect 0 0 9 0;
#X connect 0 0 10 0;
#X connect 1 0 3 0;
#X connect 1 0 8 0;
#X connect 2 0 4 0;
#X connect 2 0 7 0;
#X connect 3 0 5 0;
#X connect 4 0 6 0;
#X connect 9 0 1 0;
#X connect 10 0 2 0;
#X restore 39 109 pd r-window;
#N canvas 431 188 792 300 r-offset-time 0;
#X obj 12 12 inlet;
#X obj 12 100 change;
#X obj 197 100 change;
#X msg 22 129 set \$1;
#X msg 207 129 set \$1;
#X obj 347 100 change;
#X obj 546 100 change;
#X msg 357 129 set \$1;
#X msg 556 129 set \$1;
#X obj 12 187 s \$0-offset-time-unit;
#X obj 197 187 s \$0-offset-time;
#X obj 347 187 s \$0-offset-time-amount;
#X obj 546 187 s \$0-offset-time-precis;
#X obj 22 158 s \$0-offset-time-unit-r;
#X obj 207 158 s \$0-offset-time-r;
#X obj 357 158 s \$0-offset-time-amount-r;
#X obj 556 158 s \$0-offset-time-precis-r;
#X obj 12 71 route 20;
#X obj 197 71 route 21;
#X obj 347 71 route 22;
#X obj 546 71 route 23;
#X connect 0 0 17 0;
#X connect 0 0 18 0;
#X connect 0 0 19 0;
#X connect 0 0 20 0;
#X connect 1 0 3 0;
#X connect 1 0 9 0;
#X connect 2 0 4 0;
#X connect 2 0 10 0;
#X connect 3 0 13 0;
#X connect 4 0 14 0;
#X connect 5 0 7 0;
#X connect 5 0 11 0;
#X connect 6 0 8 0;
#X connect 6 0 12 0;
#X connect 7 0 15 0;
#X connect 8 0 16 0;
#X connect 17 0 1 0;
#X connect 18 0 2 0;
#X connect 19 0 5 0;
#X connect 20 0 6 0;
#X restore 59 167 pd r-offset-time;
#N canvas 394 302 792 300 r-offset-pitch 0;
#X obj 12 12 inlet;
#X obj 12 100 change;
#X obj 204 100 change;
#X msg 22 129 set \$1;
#X msg 214 129 set \$1;
#X obj 351 100 change;
#X obj 557 100 change;
#X msg 361 129 set \$1;
#X msg 567 129 set \$1;
#X obj 12 187 s \$0-offset-pitch-unit;
#X obj 204 187 s \$0-offset-pitch;
#X obj 351 187 s \$0-offset-pitch-amount;
#X obj 557 187 s \$0-offset-pitch-precis;
#X obj 567 158 s \$0-offset-pitch-precis-r;
#X obj 361 158 s \$0-offset-pitch-amount-r;
#X obj 214 158 s \$0-offset-pitch-r;
#X obj 22 158 s \$0-offset-pitch-unit-r;
#X obj 12 71 route 24;
#X obj 204 71 route 25;
#X obj 351 71 route 26;
#X obj 557 71 route 27;
#X connect 0 0 17 0;
#X connect 0 0 18 0;
#X connect 0 0 19 0;
#X connect 0 0 20 0;
#X connect 1 0 3 0;
#X connect 1 0 9 0;
#X connect 2 0 4 0;
#X connect 2 0 10 0;
#X connect 3 0 16 0;
#X connect 4 0 15 0;
#X connect 5 0 7 0;
#X connect 5 0 11 0;
#X connect 6 0 8 0;
#X connect 6 0 12 0;
#X connect 7 0 14 0;
#X connect 8 0 13 0;
#X connect 17 0 1 0;
#X connect 18 0 2 0;
#X connect 19 0 5 0;
#X connect 20 0 6 0;
#X restore 69 196 pd r-offset-pitch;
#N canvas 394 302 792 300 r-offset-duration 0;
#X obj 12 12 inlet;
#X obj 12 100 change;
#X obj 225 100 change;
#X msg 22 129 set \$1;
#X msg 235 129 set \$1;
#X obj 403 100 change;
#X obj 630 100 change;
#X msg 413 129 set \$1;
#X msg 640 129 set \$1;
#X obj 22 158 s \$0-offset-duration-unit-r;
#X obj 235 158 s \$0-offset-duration-r;
#X obj 225 187 s \$0-offset-duration;
#X obj 12 187 s \$0-offset-duration-unit;
#X obj 403 187 s \$0-offset-duration-amount;
#X obj 413 158 s \$0-offset-duration-amount-r;
#X obj 640 158 s \$0-offset-duration-precis-r;
#X obj 630 187 s \$0-offset-duration-precis;
#X obj 12 71 route 28;
#X obj 225 71 route 29;
#X obj 403 71 route 30;
#X obj 630 71 route 31;
#X connect 0 0 17 0;
#X connect 0 0 18 0;
#X connect 0 0 19 0;
#X connect 0 0 20 0;
#X connect 1 0 3 0;
#X connect 1 0 12 0;
#X connect 2 0 4 0;
#X connect 2 0 11 0;
#X connect 3 0 9 0;
#X connect 4 0 10 0;
#X connect 5 0 7 0;
#X connect 5 0 13 0;
#X connect 6 0 8 0;
#X connect 6 0 16 0;
#X connect 7 0 14 0;
#X connect 8 0 15 0;
#X connect 17 0 1 0;
#X connect 18 0 2 0;
#X connect 19 0 5 0;
#X connect 20 0 6 0;
#X restore 79 225 pd r-offset-duration;
#N canvas -11 158 1024 300 r-player 0;
#X obj 12 12 inlet;
#X obj 12 100 change;
#X obj 141 100 change;
#X obj 284 100 change;
#X msg 22 129 set \$1;
#X msg 151 129 set \$1;
#X msg 294 129 set \$1;
#X obj 392 100 change;
#X msg 402 129 set \$1;
#X obj 22 158 s \$0-playhead-r;
#X obj 12 187 s \$0-playhead;
#X obj 294 158 s \$0-speed-r;
#X obj 284 187 s \$0-speed;
#X obj 563 100 change;
#X msg 573 129 set \$1;
#X obj 402 158 s \$0-playhead-reset-r;
#X obj 392 187 s \$0-playhead-reset;
#X obj 573 158 s \$0-play-r;
#X obj 563 187 s \$0-play;
#X obj 151 158 s \$0-sample-note-r;
#X obj 141 187 s \$0-sample-note;
#X obj 12 71 route 32;
#X obj 141 71 route 33;
#X obj 284 71 route 34;
#X obj 392 71 route 35;
#X obj 563 71 route 36;
#X connect 0 0 21 0;
#X connect 0 0 22 0;
#X connect 0 0 23 0;
#X connect 0 0 24 0;
#X connect 0 0 25 0;
#X connect 1 0 4 0;
#X connect 1 0 10 0;
#X connect 2 0 5 0;
#X connect 2 0 20 0;
#X connect 3 0 6 0;
#X connect 3 0 12 0;
#X connect 4 0 9 0;
#X connect 5 0 19 0;
#X connect 6 0 11 0;
#X connect 7 0 8 0;
#X connect 7 0 16 0;
#X connect 8 0 15 0;
#X connect 13 0 14 0;
#X connect 13 0 18 0;
#X connect 14 0 17 0;
#X connect 21 0 1 0;
#X connect 22 0 2 0;
#X connect 23 0 3 0;
#X connect 24 0 7 0;
#X connect 25 0 13 0;
#X restore 89 254 pd r-player;
#N canvas 394 302 792 300 r-adsr 0;
#X obj 12 12 inlet;
#X obj 12 100 change;
#X obj 155 100 change;
#X msg 22 129 set \$1;
#X msg 165 129 set \$1;
#X obj 319 100 change;
#X obj 462 100 change;
#X msg 329 129 set \$1;
#X msg 472 129 set \$1;
#X obj 22 158 s \$0-att-r;
#X obj 165 158 s \$0-dec-r;
#X obj 329 158 s \$0-sus-r;
#X obj 472 158 s \$0-rel-r;
#X obj 462 187 s \$0-rel;
#X obj 319 187 s \$0-sus;
#X obj 155 187 s \$0-dec;
#X obj 12 187 s \$0-att;
#X obj 12 71 route 16;
#X obj 155 71 route 17;
#X obj 319 71 route 18;
#X obj 462 71 route 19;
#X connect 0 0 17 0;
#X connect 0 0 18 0;
#X connect 0 0 19 0;
#X connect 0 0 20 0;
#X connect 1 0 3 0;
#X connect 1 0 16 0;
#X connect 2 0 4 0;
#X connect 2 0 15 0;
#X connect 3 0 9 0;
#X connect 4 0 10 0;
#X connect 5 0 7 0;
#X connect 5 0 14 0;
#X connect 6 0 8 0;
#X connect 6 0 13 0;
#X connect 7 0 11 0;
#X connect 8 0 12 0;
#X connect 17 0 1 0;
#X connect 18 0 2 0;
#X connect 19 0 5 0;
#X connect 20 0 6 0;
#X restore 49 138 pd r-adsr;
#X connect 0 0 1 0;
#X connect 0 0 2 0;
#X connect 0 0 3 0;
#X connect 0 0 8 0;
#X connect 0 0 4 0;
#X connect 0 0 5 0;
#X connect 0 0 6 0;
#X connect 0 0 7 0;
#X restore 12 12 pd parameters-receive;
#N canvas -8 -8 1366 685 parameters-send 0;
#X obj 12 234 send camomile;
#N canvas -8 -8 1366 685 s-global 0;
#X obj 12 12 r \$0-out-gain-s;
#X obj 12 149 t b f b;
#X msg 151 207 param change \$1 1;
#X msg 161 265 param change \$1 0;
#X msg 35 265 param set \$1 \$2;
#X obj 161 236 f;
#X obj 35 207 swap;
#X obj 35 236 pack;
#X obj 12 80 t f b;
#X obj 179 178 f;
#X msg 224 159 1;
#X obj 250 12 r \$0-legato-s;
#X obj 131 80 t f b;
#X obj 250 80 t f b;
#X obj 355 80 t f b;
#X obj 151 324 outlet;
#X obj 131 12 r \$0-bendMode-s;
#X obj 355 12 r \$0-voice-steal-s;
#X obj 365 41 s \$0-voice-steal;
#X obj 260 41 s \$0-legato;
#X obj 22 41 s \$0-out-gain;
#X obj 142 41 s \$0-bendMode;
#X obj 505 41 s \$0-voice-poly;
#X obj 495 12 r \$0-voice-poly-s;
#X obj 495 80 t f b;
#X msg 259 159 2;
#X msg 294 159 3;
#X msg 387 159 4;
#X msg 527 159 5;
#X obj 628 80 t f b;
#X obj 628 12 r \$0-channels-s;
#X obj 638 41 s \$0-channels;
#X msg 660 159 6;
#X connect 0 0 20 0;
#X connect 0 0 8 0;
#X connect 1 0 5 0;
#X connect 1 1 6 0;
#X connect 1 2 9 0;
#X connect 2 0 15 0;
#X connect 3 0 15 0;
#X connect 4 0 15 0;
#X connect 5 0 3 0;
#X connect 6 0 7 0;
#X connect 6 1 7 1;
#X connect 7 0 4 0;
#X connect 8 0 1 0;
#X connect 8 1 10 0;
#X connect 9 0 5 1;
#X connect 9 0 6 1;
#X connect 9 0 2 0;
#X connect 10 0 9 1;
#X connect 11 0 19 0;
#X connect 11 0 13 0;
#X connect 12 0 1 0;
#X connect 12 1 25 0;
#X connect 13 0 1 0;
#X connect 13 1 26 0;
#X connect 14 0 1 0;
#X connect 14 1 27 0;
#X connect 16 0 21 0;
#X connect 16 0 12 0;
#X connect 17 0 18 0;
#X connect 17 0 14 0;
#X connect 23 0 22 0;
#X connect 23 0 24 0;
#X connect 24 0 1 0;
#X connect 24 1 28 0;
#X connect 25 0 9 1;
#X connect 26 0 9 1;
#X connect 27 0 9 1;
#X connect 28 0 9 1;
#X connect 29 0 1 0;
#X connect 29 1 32 0;
#X connect 30 0 29 0;
#X connect 30 0 31 0;
#X connect 32 0 9 1;
#X restore 12 12 pd s-global;
#N canvas -8 -8 1366 685 s-grain 0;
#X obj 12 139 t b f b;
#X msg 151 197 param change \$1 1;
#X msg 161 255 param change \$1 0;
#X msg 35 255 param set \$1 \$2;
#X obj 161 226 f;
#X obj 35 197 swap;
#X obj 35 226 pack;
#X obj 12 80 t f b;
#X obj 179 168 f;
#X obj 208 80 t f b;
#X obj 369 80 t f b;
#X obj 537 80 t f b;
#X obj 151 314 outlet;
#X obj 12 12 r \$0-grain-duration-unit-s;
#X obj 208 12 r \$0-grain-duration-s;
#X obj 369 12 r \$0-grain-rate-unit-s;
#X obj 379 41 s \$0-grain-rate-unit;
#X obj 219 41 s \$0-grain-duration;
#X obj 22 41 s \$0-grain-duration-unit;
#X obj 537 12 r \$0-grain-rate-s;
#X obj 547 41 s \$0-grain-rate;
#X obj 873 80 t f b;
#X obj 670 80 t f b;
#X obj 883 41 s \$0-grain-rate-denominator;
#X obj 873 12 r \$0-grain-rate-denominator-s;
#X obj 680 41 s \$0-grain-rate-numerator;
#X obj 670 12 r \$0-grain-rate-numerator-s;
#X obj 1090 80 t f b;
#X obj 1100 41 s \$0-grain-rate-sync;
#X obj 1090 12 r \$0-grain-rate-sync-s;
#X msg 224 149 7;
#X msg 259 149 8;
#X msg 401 149 9;
#X msg 569 149 10;
#X msg 702 149 11;
#X msg 905 149 12;
#X msg 1122 149 13;
#X connect 0 0 4 0;
#X connect 0 1 5 0;
#X connect 0 2 8 0;
#X connect 1 0 12 0;
#X connect 2 0 12 0;
#X connect 3 0 12 0;
#X connect 4 0 2 0;
#X connect 5 0 6 0;
#X connect 5 1 6 1;
#X connect 6 0 3 0;
#X connect 7 0 0 0;
#X connect 7 1 30 0;
#X connect 8 0 4 1;
#X connect 8 0 5 1;
#X connect 8 0 1 0;
#X connect 9 0 0 0;
#X connect 9 1 31 0;
#X connect 10 0 0 0;
#X connect 10 1 32 0;
#X connect 11 0 0 0;
#X connect 11 1 33 0;
#X connect 13 0 18 0;
#X connect 13 0 7 0;
#X connect 14 0 9 0;
#X connect 14 0 17 0;
#X connect 15 0 16 0;
#X connect 15 0 10 0;
#X connect 19 0 11 0;
#X connect 19 0 20 0;
#X connect 21 0 0 0;
#X connect 21 1 35 0;
#X connect 22 0 0 0;
#X connect 22 1 34 0;
#X connect 24 0 21 0;
#X connect 24 0 23 0;
#X connect 26 0 22 0;
#X connect 26 0 25 0;
#X connect 27 0 0 0;
#X connect 27 1 36 0;
#X connect 29 0 27 0;
#X connect 29 0 28 0;
#X connect 30 0 8 1;
#X connect 31 0 8 1;
#X connect 32 0 8 1;
#X connect 33 0 8 1;
#X connect 34 0 8 1;
#X connect 35 0 8 1;
#X connect 36 0 8 1;
#X restore 22 41 pd s-grain;
#N canvas -8 -8 1366 685 s-window 0;
#X obj 12 149 t b f b;
#X msg 151 207 param change \$1 1;
#X msg 161 265 param change \$1 0;
#X msg 35 265 param set \$1 \$2;
#X obj 161 236 f;
#X obj 35 207 swap;
#X obj 35 236 pack;
#X obj 12 80 t f b;
#X obj 179 178 f;
#X obj 200 80 t f b;
#X obj 151 324 outlet;
#X obj 22 41 s \$0-window-sel;
#X obj 12 12 r \$0-window-sel-s;
#X obj 200 12 r \$0-window-smooth-s;
#X obj 211 41 s \$0-window-smooth;
#X msg 197 159 14;
#X msg 232 159 15;
#X connect 0 0 4 0;
#X connect 0 1 5 0;
#X connect 0 2 8 0;
#X connect 1 0 10 0;
#X connect 2 0 10 0;
#X connect 3 0 10 0;
#X connect 4 0 2 0;
#X connect 5 0 6 0;
#X connect 5 1 6 1;
#X connect 6 0 3 0;
#X connect 7 0 0 0;
#X connect 7 1 15 0;
#X connect 8 0 4 1;
#X connect 8 0 5 1;
#X connect 8 0 1 0;
#X connect 9 0 0 0;
#X connect 9 1 16 0;
#X connect 12 0 7 0;
#X connect 12 0 11 0;
#X connect 13 0 9 0;
#X connect 13 0 14 0;
#X connect 15 0 8 1;
#X connect 16 0 8 1;
#X restore 32 70 pd s-window;
#N canvas -8 -8 1366 685 s-offset-time 0;
#X obj 12 149 t b f b;
#X msg 151 207 param change \$1 1;
#X msg 161 265 param change \$1 0;
#X msg 35 265 param set \$1 \$2;
#X obj 161 236 f;
#X obj 35 207 swap;
#X obj 35 236 pack;
#X obj 12 80 t f b;
#X obj 179 178 f;
#X obj 200 80 t f b;
#X obj 151 324 outlet;
#X obj 340 80 t f b;
#X obj 536 80 t f b;
#X obj 12 12 r \$0-offset-time-unit-s;
#X obj 22 41 s \$0-offset-time-unit;
#X obj 200 12 r \$0-offset-time-s;
#X obj 211 41 s \$0-offset-time;
#X obj 340 12 r \$0-offset-time-amount-s;
#X obj 351 41 s \$0-offset-time-amount;
#X obj 536 12 r \$0-offset-time-precis-s;
#X obj 547 41 s \$0-offset-time-precis;
#X msg 197 159 20;
#X msg 232 159 21;
#X msg 372 159 22;
#X msg 568 159 23;
#X connect 0 0 4 0;
#X connect 0 1 5 0;
#X connect 0 2 8 0;
#X connect 1 0 10 0;
#X connect 2 0 10 0;
#X connect 3 0 10 0;
#X connect 4 0 2 0;
#X connect 5 0 6 0;
#X connect 5 1 6 1;
#X connect 6 0 3 0;
#X connect 7 0 0 0;
#X connect 7 1 21 0;
#X connect 8 0 4 1;
#X connect 8 0 5 1;
#X connect 8 0 1 0;
#X connect 9 0 0 0;
#X connect 9 1 22 0;
#X connect 11 0 0 0;
#X connect 11 1 23 0;
#X connect 12 0 0 0;
#X connect 12 1 24 0;
#X connect 13 0 14 0;
#X connect 13 0 7 0;
#X connect 15 0 9 0;
#X connect 15 0 16 0;
#X connect 17 0 11 0;
#X connect 17 0 18 0;
#X connect 19 0 12 0;
#X connect 19 0 20 0;
#X connect 21 0 8 1;
#X connect 22 0 8 1;
#X connect 23 0 8 1;
#X connect 24 0 8 1;
#X restore 52 128 pd s-offset-time;
#N canvas -8 -8 1366 685 s-offset-pitch 0;
#X obj 12 149 t b f b;
#X msg 151 207 param change \$1 1;
#X msg 161 265 param change \$1 0;
#X msg 35 265 param set \$1 \$2;
#X obj 161 236 f;
#X obj 35 207 swap;
#X obj 35 236 pack;
#X obj 12 80 t f b;
#X obj 179 178 f;
#X obj 200 80 t f b;
#X obj 151 324 outlet;
#X obj 347 80 t f b;
#X obj 543 80 t f b;
#X obj 12 12 r \$0-offset-pitch-unit-s;
#X obj 22 41 s \$0-offset-pitch-unit;
#X obj 211 41 s \$0-offset-pitch;
#X obj 200 12 r \$0-offset-pitch-s;
#X obj 347 12 r \$0-offset-pitch-amount-s;
#X obj 358 41 s \$0-offset-pitch-amount;
#X obj 543 12 r \$0-offset-pitch-precis-s;
#X obj 554 41 s \$0-offset-pitch-precis;
#X msg 197 159 24;
#X msg 232 159 25;
#X msg 379 159 26;
#X msg 575 159 27;
#X connect 0 0 4 0;
#X connect 0 1 5 0;
#X connect 0 2 8 0;
#X connect 1 0 10 0;
#X connect 2 0 10 0;
#X connect 3 0 10 0;
#X connect 4 0 2 0;
#X connect 5 0 6 0;
#X connect 5 1 6 1;
#X connect 6 0 3 0;
#X connect 7 0 0 0;
#X connect 7 1 21 0;
#X connect 8 0 4 1;
#X connect 8 0 5 1;
#X connect 8 0 1 0;
#X connect 9 0 0 0;
#X connect 9 1 22 0;
#X connect 11 0 0 0;
#X connect 11 1 23 0;
#X connect 12 0 0 0;
#X connect 12 1 24 0;
#X connect 13 0 14 0;
#X connect 13 0 7 0;
#X connect 16 0 9 0;
#X connect 16 0 15 0;
#X connect 17 0 11 0;
#X connect 17 0 18 0;
#X connect 19 0 12 0;
#X connect 19 0 20 0;
#X connect 21 0 8 1;
#X connect 22 0 8 1;
#X connect 23 0 8 1;
#X connect 24 0 8 1;
#X restore 52 147 pd s-offset-pitch;
#N canvas -8 -8 1366 685 s-offset-duration 0;
#X obj 12 149 t b f b;
#X msg 151 207 param change \$1 1;
#X msg 161 265 param change \$1 0;
#X msg 35 265 param set \$1 \$2;
#X obj 161 236 f;
#X obj 35 207 swap;
#X obj 35 236 pack;
#X obj 12 80 t f b;
#X obj 179 178 f;
#X obj 221 80 t f b;
#X obj 151 324 outlet;
#X obj 389 80 t f b;
#X obj 606 80 t f b;
#X obj 606 12 r \$0-offset-duration-precis-s;
#X obj 617 41 s \$0-offset-duration-precis;
#X obj 389 12 r \$0-offset-duration-amount-s;
#X obj 400 41 s \$0-offset-duration-amount;
#X obj 232 41 s \$0-offset-duration;
#X obj 221 12 r \$0-offset-duration-s;
#X obj 22 41 s \$0-offset-duration-unit;
#X obj 12 12 r \$0-offset-duration-unit-s;
#X msg 197 159 28;
#X msg 253 159 29;
#X msg 421 159 30;
#X msg 638 159 31;
#X connect 0 0 4 0;
#X connect 0 1 5 0;
#X connect 0 2 8 0;
#X connect 1 0 10 0;
#X connect 2 0 10 0;
#X connect 3 0 10 0;
#X connect 4 0 2 0;
#X connect 5 0 6 0;
#X connect 5 1 6 1;
#X connect 6 0 3 0;
#X connect 7 0 0 0;
#X connect 7 1 21 0;
#X connect 8 0 4 1;
#X connect 8 0 5 1;
#X connect 8 0 1 0;
#X connect 9 0 0 0;
#X connect 9 1 22 0;
#X connect 11 0 0 0;
#X connect 11 1 23 0;
#X connect 12 0 0 0;
#X connect 12 1 24 0;
#X connect 13 0 12 0;
#X connect 13 0 14 0;
#X connect 15 0 11 0;
#X connect 15 0 16 0;
#X connect 18 0 9 0;
#X connect 18 0 17 0;
#X connect 20 0 19 0;
#X connect 20 0 7 0;
#X connect 21 0 8 1;
#X connect 22 0 8 1;
#X connect 23 0 8 1;
#X connect 24 0 8 1;
#X restore 52 166 pd s-offset-duration;
#N canvas -8 -8 1366 685 s-player 0;
#X obj 12 149 t b f b;
#X msg 151 207 param change \$1 1;
#X msg 161 265 param change \$1 0;
#X msg 35 265 param set \$1 \$2;
#X obj 161 236 f;
#X obj 35 207 swap;
#X obj 35 236 pack;
#X obj 179 178 f;
#X obj 12 80 t f b;
#X obj 200 80 t f b;
#X obj 340 80 t f b;
#X obj 151 324 outlet;
#X obj 438 80 t f b;
#X obj 12 12 r \$0-playhead-s;
#X obj 23 41 s \$0-playhead;
#X obj 350 41 s \$0-speed;
#X obj 340 12 r \$0-speed-s;
#X obj 448 41 s \$0-playhead-reset;
#X obj 438 12 r \$0-playhead-reset-s;
#X obj 599 80 t f b;
#X obj 599 12 r \$0-play-s;
#X obj 609 41 s \$0-play;
#X obj 210 41 s \$0-sample-note;
#X obj 200 12 r \$0-sample-note-s;
#X msg 197 159 32;
#X msg 232 159 33;
#X msg 372 159 34;
#X msg 470 159 35;
#X msg 631 159 36;
#X connect 0 0 4 0;
#X connect 0 1 5 0;
#X connect 0 2 7 0;
#X connect 1 0 11 0;
#X connect 2 0 11 0;
#X connect 3 0 11 0;
#X connect 4 0 2 0;
#X connect 5 0 6 0;
#X connect 5 1 6 1;
#X connect 6 0 3 0;
#X connect 7 0 4 1;
#X connect 7 0 5 1;
#X connect 7 0 1 0;
#X connect 8 0 0 0;
#X connect 8 1 24 0;
#X connect 9 0 0 0;
#X connect 9 1 25 0;
#X connect 10 0 0 0;
#X connect 10 1 26 0;
#X connect 12 0 0 0;
#X connect 12 1 27 0;
#X connect 13 0 8 0;
#X connect 13 0 14 0;
#X connect 16 0 10 0;
#X connect 16 0 15 0;
#X connect 18 0 12 0;
#X connect 18 0 17 0;
#X connect 19 0 0 0;
#X connect 19 1 28 0;
#X connect 20 0 19 0;
#X connect 20 0 21 0;
#X connect 23 0 9 0;
#X connect 23 0 22 0;
#X connect 24 0 7 1;
#X connect 25 0 7 1;
#X connect 26 0 7 1;
#X connect 27 0 7 1;
#X connect 28 0 7 1;
#X restore 62 195 pd s-player;
#N canvas -8 -8 1366 685 s-adsr 0;
#X obj 12 149 t b f b;
#X msg 151 207 param change \$1 1;
#X msg 161 265 param change \$1 0;
#X msg 35 265 param set \$1 \$2;
#X obj 161 236 f;
#X obj 35 207 swap;
#X obj 35 236 pack;
#X obj 12 80 t f b;
#X obj 179 178 f;
#X obj 200 80 t f b;
#X obj 151 324 outlet;
#X obj 360 80 t f b;
#X obj 510 80 t f b;
#X obj 22 41 s \$0-att;
#X obj 211 41 s \$0-dec;
#X obj 371 41 s \$0-sus;
#X obj 521 41 s \$0-rel;
#X obj 510 12 r \$0-rel-s;
#X obj 360 12 r \$0-sus-s;
#X obj 200 12 r \$0-dec-s;
#X obj 12 12 r \$0-att-s;
#X msg 197 159 16;
#X msg 232 159 17;
#X msg 392 159 18;
#X msg 542 159 19;
#X connect 0 0 4 0;
#X connect 0 1 5 0;
#X connect 0 2 8 0;
#X connect 1 0 10 0;
#X connect 2 0 10 0;
#X connect 3 0 10 0;
#X connect 4 0 2 0;
#X connect 5 0 6 0;
#X connect 5 1 6 1;
#X connect 6 0 3 0;
#X connect 7 0 0 0;
#X connect 7 1 21 0;
#X connect 8 0 4 1;
#X connect 8 0 5 1;
#X connect 8 0 1 0;
#X connect 9 0 0 0;
#X connect 9 1 22 0;
#X connect 11 0 0 0;
#X connect 11 1 23 0;
#X connect 12 0 0 0;
#X connect 12 1 24 0;
#X connect 17 0 12 0;
#X connect 17 0 16 0;
#X connect 18 0 11 0;
#X connect 18 0 15 0;
#X connect 19 0 9 0;
#X connect 19 0 14 0;
#X connect 20 0 7 0;
#X connect 20 0 13 0;
#X connect 21 0 8 1;
#X connect 22 0 8 1;
#X connect 23 0 8 1;
#X connect 24 0 8 1;
#X restore 42 99 pd s-adsr;
#X connect 1 0 0 0;
#X connect 2 0 0 0;
#X connect 3 0 0 0;
#X connect 4 0 0 0;
#X connect 5 0 0 0;
#X connect 6 0 0 0;
#X connect 7 0 0 0;
#X connect 8 0 0 0;
#X restore 173 12 pd parameters-send;
#X text 36 67 ac est el cdigo necesario para que camomile y el
host puedan leer y escribir cada parmetro apropiadamente \, como
tambin guardar y cargar el estado del parche;
#N canvas -8 -8 1600 857 save 0;
#X obj 12 9 receive save;
#X obj 12 67 send camomile;
#N canvas -7 0 681 676 save-paths 0;
#X obj 12 12 inlet;
#X obj 208 395 outlet;
#X obj 12 80 t b b, f 9;
#X obj 208 337 list prepend save;
#X obj 208 366 list trim;
#X obj 208 109 text size \$0-path-sample;
#X obj 112 12 text define \$0-path-sample;
#X obj 308 12 text define \$0-path-window;
#X obj 208 167 until;
#X obj 208 138 t f b, f 7;
#X obj 254 167 f 0;
#X obj 208 201 f, f 7;
#X obj 208 230 t f f;
#X obj 281 201 + 1;
#X obj 208 259 text get \$0-path-sample;
#X obj 12 177 until;
#X obj 12 148 t f b, f 7;
#X obj 58 177 f 0;
#X obj 12 211 f;
#X obj 12 240 t f f;
#X obj 71 211 + 1;
#X obj 12 269 text get \$0-path-window;
#X obj 12 119 text size \$0-path-window;
#X obj 112 41 r \$0-path-sample;
#X obj 112 70 text set \$0-path-sample;
#X obj 308 41 r \$0-path-window;
#X obj 308 70 text set \$0-path-window;
#X obj 208 288 list prepend 1;
#X obj 12 298 list prepend 2;
#X connect 0 0 2 0;
#X connect 2 0 22 0;
#X connect 2 1 5 0;
#X connect 3 0 4 0;
#X connect 4 0 1 0;
#X connect 5 0 9 0;
#X connect 8 0 11 0;
#X connect 9 0 8 0;
#X connect 9 1 10 0;
#X connect 10 0 11 1;
#X connect 11 0 12 0;
#X connect 12 0 14 0;
#X connect 12 1 13 0;
#X connect 13 0 11 1;
#X connect 14 0 27 0;
#X connect 15 0 18 0;
#X connect 16 0 15 0;
#X connect 16 1 17 0;
#X connect 17 0 18 1;
#X connect 18 0 19 0;
#X connect 19 0 21 0;
#X connect 19 1 20 0;
#X connect 20 0 18 1;
#X connect 21 0 28 0;
#X connect 22 0 16 0;
#X connect 23 0 24 0;
#X connect 25 0 26 0;
#X connect 27 0 3 0;
#X connect 28 0 3 0;
#X restore 12 38 pd save-paths;
#X connect 0 0 2 0;
#X connect 2 0 1 0;
#X restore 323 12 pd save;
#N canvas 430 15 681 676 load 0;
#N canvas -8 -8 1366 685 load-paths 0;
#X obj 12 12 inlet;
#X obj 12 41 route 1 2, f 18;
#X obj 73 99 s \$0-path-window-open;
#X obj 12 70 s \$0-path-sample-open;
#X connect 0 0 1 0;
#X connect 1 0 3 0;
#X connect 1 1 2 0;
#X restore 132 41 pd load-paths;
#X f 15;
#X obj 12 12 receive load;
#X connect 1 0 0 0;
#X restore 386 12 pd load;
#X restore 12 421 pd camomile;
#X obj 967 147 cnv 2 1 345 empty \$0-bar empty 20 12 0 14 -183085 -70738
0;
#X obj 432 513 cnv 2 320 1 empty \$0-bar empty 20 12 0 14 -183085 -70738
0;
#X obj 433 147 cnv 2 527 1 empty \$0-bar empty 20 12 0 14 -183085 -70738
0;
#X obj 902 352 vsl 15 114 0 100 0 0 \$0-out-gain-s \$0-out-gain-r empty
0 -9 0 10 -49933 -183085 -183085 10170 1;
#X obj 922 350 cnv 15 10 10 empty \$0-text 100dB 0 7 0 12 -70738 -183085
0;
#X obj 922 459 cnv 15 10 10 empty \$0-text 0dB 0 7 0 12 -70738 -183085
0;
#X obj 910 325 cnv 15 15 15 empty \$0-text out: 0 7 0 14 -70738 -183085
0;
#X obj 424 147 cnv 2 1 367 empty \$0-bar empty 20 12 0 14 -183085 -70738
0;
#X obj 555 155 cnv 2 1 153 empty \$0-bar empty 20 12 0 14 -183085 -70738
0;
#X obj 841 155 cnv 2 1 153 empty \$0-bar empty 20 12 0 14 -183085 -70738
0;
#X obj 12 247 *~;
#N canvas 0 50 450 300 out 0;
#X msg 12 99 \$1 1;
#X obj 12 167 outlet~;
#X obj 12 70 dbtorms;
#X obj 12 128 line~;
#X obj 12 31 r \$0-out-gain;
#X obj 117 12 r \$0-init;
#X msg 117 41 90;
#X obj 117 99 s \$0-out-gain-r;
#X msg 117 70 set \$1;
#X connect 0 0 3 0;
#X connect 2 0 0 0;
#X connect 3 0 1 0;
#X connect 4 0 2 0;
#X connect 5 0 6 0;
#X connect 6 0 2 0;
#X connect 6 0 8 0;
#X connect 8 0 7 0;
#X restore 209 218 pd out gain;
#X obj 191 247 *~;
#X obj 439 445 tgl 15 0 \$0-legato-s \$0-legato-r empty 17 7 0 10 -49933
-183085 -183085 0 1;
#X obj 459 444 cnv 15 15 15 empty \$0-legato-text legato 0 7 0 12 -70738
-183085 0;
#X obj 439 467 tgl 15 0 \$0-voice-steal-s \$0-voice-steal-r empty 17
7 0 10 -49933 -183085 -183085 0 1;
#X obj 459 466 cnv 15 15 15 empty \$0-text steal 0 7 0 12 -70738 -183085
0;
#X obj 439 489 hradio 15 1 0 2 \$0-bendMode-s \$0-bendMode-r empty
0 -8 0 10 -49933 -183085 -183085 0;
#X obj 439 423 hradio 15 1 0 2 \$0-voice-poly-s \$0-voice-poly-r empty
0 -8 0 10 -49933 -183085 -183085 0;
#X obj 432 299 cnv 2 116 1 empty \$0-bar empty 20 12 0 14 -183085 -70738
0;
#X obj 560 478 cnv 2 324 1 empty \$0-bar empty 20 12 0 14 -183085 -70738
0;
#X obj 647 489 bng 15 250 50 0 \$0-panic-s \$0-panic-r empty 17 7 0
10 -49933 -183085 -183085;
#X obj 666 488 cnv 15 15 15 empty \$0-text midi_panic 0 7 0 12 -70738
-183085 0;
#X obj 888 323 cnv 2 1 148 empty \$0-bar empty 20 12 0 14 -183085 -70738
0;
#X obj 782 204 tgl 15 0 \$0-play-s \$0-play-r empty 17 7 0 10 -49933
-183085 -183085 0 1;
#X obj 801 203 cnv 15 15 15 empty \$0-play-label-r play 0 6 0 14 -70738
-183085 0;
#X obj 777 329 cnv 2 1 142 empty \$0-bar empty 20 12 0 14 -183085 -70738
0;
#X obj 666 329 cnv 2 1 91 empty \$0-bar empty 20 12 0 14 -183085 -70738
0;
#X obj 666 329 cnv 2 1 142 empty \$0-bar empty 20 12 0 14 -183085 -70738
0;
#X obj 12 73 notein, f 7;
#X obj 12 102 pack;
#X obj 100 102 bendin;
#N canvas -8 -8 1366 685 midi-input 0;
#X obj 93 389 outlet;
#X obj 93 129 - 1;
#X obj 93 188 pack 0 0 0;
#X obj 93 100 poly 16 1, f 10;
#X obj 12 12 inlet;
#X obj 177 12 inlet;
#X obj 192 168 spigot;
#X obj 177 292 list prepend;
#X obj 177 321 list trim;
#X msg 359 263 all;
#X obj 359 176 sel 0 1, f 10;
#X msg 177 263 bend \$1;
#X obj 12 100 poly 1 1, f 10;
#X obj 12 129 - 1;
#X obj 12 188 pack 0 0 0;
#X obj 93 321 spigot;
#X obj 132 306 tgl 15 0 empty empty empty 17 7 0 10 -262144 -1 -1 0
1;
#X obj 12 321 spigot;
#X obj 51 306 tgl 15 0 empty empty empty 17 7 0 10 -262144 -1 -1 1
1;
#X obj 160 51 r \$0-voice-steal;
#X obj 359 118 r \$0-bendMode;
#X obj 177 90 expr (($f1/16383)-0.5)*4;
#X obj 258 263 spigot;
#X msg 297 244 1;
#X msg 322 244 0;
#X obj 359 205 t b b;
#N canvas -8 -8 1366 685 polystuff 0;
#X obj 12 41 r \$0-voice-poly;
#X obj 12 100 sel 0 1, f 9;
#X obj 12 70 t f b;
#X msg 96 100 0;
#X obj 12 149 outlet;
#X obj 96 149 outlet;
#X obj 131 12 r \$0-init;
#X msg 131 41 0;
#X connect 0 0 2 0;
#X connect 1 0 4 0;
#X connect 1 1 5 0;
#X connect 2 0 1 0;
#X connect 2 1 3 0;
#X connect 3 0 5 0;
#X connect 3 0 4 0;
#X connect 6 0 7 0;
#X connect 7 0 2 0;
#X restore 51 277 pd polystuff;
#X text 645 86 cada mensaje noteoff se enva a la voz ms antigua
que est ocupada con sus respectiva nota;
#X text 645 11 cada mensaje noteon se enva a la siguiente voz disponible
en la polifona \, o si voice_steal esta activado la voz ms antigua
en caso de no haber voces disponibles;
#X text 562 276 los valores de pitch bend se envan a las 16 voces
o a la voz ms nueva en la polifona \, dependiendo si el bend_mode
es global o last_note respectivamente;
#X text 237 168 filtrar noteoff;
#X obj 508 360 s \$0-bendMode-label;
#X msg 428 302 label \$1;
#X obj 428 273 symbol;
#X msg 428 244 global;
#X msg 484 244 last_note;
#X obj 428 418 s camomile;
#X msg 428 389 gui redraw;
#X obj 428 360 delay 10;
#X obj 428 331 t b a;
#X obj 464 118 r \$0-init;
#X msg 464 147 0;
#X obj 359 147 change;
#X connect 1 0 2 0;
#X connect 1 0 6 0;
#X connect 2 0 15 0;
#X connect 3 0 1 0;
#X connect 3 1 2 1;
#X connect 3 2 2 2;
#X connect 3 2 6 1;
#X connect 4 0 12 0;
#X connect 4 0 3 0;
#X connect 5 0 21 0;
#X connect 6 0 22 0;
#X connect 7 0 8 0;
#X connect 8 0 0 0;
#X connect 9 0 7 1;
#X connect 10 0 25 0;
#X connect 10 1 23 0;
#X connect 10 1 35 0;
#X connect 11 0 7 0;
#X connect 12 0 13 0;
#X connect 12 1 14 1;
#X connect 12 2 14 2;
#X connect 13 0 14 0;
#X connect 14 0 17 0;
#X connect 15 0 0 0;
#X connect 16 0 15 1;
#X connect 17 0 0 0;
#X connect 18 0 17 1;
#X connect 19 0 3 1;
#X connect 20 0 42 0;
#X connect 21 0 11 0;
#X connect 22 0 7 1;
#X connect 23 0 22 1;
#X connect 24 0 22 1;
#X connect 25 0 9 0;
#X connect 25 0 34 0;
#X connect 25 1 24 0;
#X connect 26 0 18 0;
#X connect 26 1 16 0;
#X connect 32 0 39 0;
#X connect 33 0 32 0;
#X connect 34 0 33 0;
#X connect 35 0 33 0;
#X connect 37 0 36 0;
#X connect 38 0 37 0;
#X connect 39 0 38 0;
#X connect 39 1 31 0;
#X connect 40 0 41 0;
#X connect 41 0 10 0;
#X connect 42 0 10 0;
#X restore 12 131 pd midi-input;
#N canvas 676 0 681 676 voices 0;
#X msg 22 255 1;
#X msg 22 187 0;
#X obj 12 313 outlet;
#X obj 12 12 r \$0-voice-poly;
#X text 20 391 forzosamente apaga el dsp de todas las voces \, luego
de 10 ms vuelve a permitir que sea encendido;
#X obj 75 148 s \$0-panic-r;
#X msg 170 148 5;
#X obj 170 177 s \$0-rel;
#X obj 12 119 t b b, f 23;
#X obj 57 245 s \$0-rel-r;
#X obj 12 216 delay 10;
#X obj 12 158 delay 10;
#X obj 12 284 targetall;
#X obj 247 167 symbol;
#X msg 247 196 label \$1;
#X obj 247 341 s camomile;
#X msg 247 312 gui redraw;
#X obj 247 283 delay 10;
#X obj 247 225 t b a;
#X obj 279 254 s \$0-voice-poly-label;
#X obj 12 70 change;
#X msg 247 138 monophonic;
#X msg 329 138 polyphonic;
#X obj 247 109 sel 0 1, f 24;
#X obj 131 12 r \$0-init;
#X msg 131 41 0;
#X connect 0 0 12 0;
#X connect 1 0 12 0;
#X connect 3 0 20 0;
#X connect 6 0 7 0;
#X connect 8 0 5 0;
#X connect 8 0 11 0;
#X connect 8 1 6 0;
#X connect 10 0 0 0;
#X connect 10 0 9 0;
#X connect 11 0 1 0;
#X connect 11 0 10 0;
#X connect 12 0 2 0;
#X connect 13 0 14 0;
#X connect 14 0 18 0;
#X connect 16 0 15 0;
#X connect 17 0 16 0;
#X connect 18 0 17 0;
#X connect 18 1 19 0;
#X connect 20 0 8 0;
#X connect 20 0 23 0;
#X connect 21 0 13 0;
#X connect 22 0 13 0;
#X connect 23 0 21 0;
#X connect 23 1 22 0;
#X connect 24 0 25 0;
#X connect 25 0 8 0;
#X connect 25 0 23 0;
#X restore 191 160 pd voices;
#X f 11;
#X obj 873 210 cnv 15 15 15 empty \$0-text load 0 6 0 14 -70738 -183085
0;
#X obj 854 211 bng 15 250 50 0 \$0-loadWindow-s \$0-loadWindow-r empty
17 7 0 10 -49933 -183085 -183085;
#X obj 849 235 cnv 20 100 15 empty \$0-text empty 20 12 0 14 -70738
-183085 0;
#X obj 854 231 tgl 15 0 \$0-window-smooth-s \$0-window-smooth-r empty
17 7 0 10 -49933 -183085 -183085 0 1;
#X obj 873 230 cnv 15 15 15 empty \$0-text smooth 0 6 0 14 -70738 -183085
0;
#X obj 574 174 cnv 15 200 50 empty \$0-waveformBg-r empty 20 12 0 14
-183085 -1 0;
#X obj 568 157 cnv 20 100 15 empty \$0-text empty 20 12 0 14 -70738
-183085 0;
#X obj 574 157 cnv 15 15 15 empty \$0-text sample: 0 6 0 14 -70738
-183085 0;
#X obj 866 499 cnv 15 102 15 empty \$0-author dylan_martin 1 7 0 14
-183085 -70738 0;
#X obj 722 246 hradio 15 1 0 2 \$0-channels-s \$0-channels-r empty
0 -8 0 10 -49933 -183085 -183085 2;
#N canvas -8 -8 1366 685 channels 0;
#X obj 401 32 r \$0-channels;
#X obj 401 150 outlet;
#X obj 401 121 expr if($f1==1 \, 0 \, 1);
#X obj 457 150 outlet;
#X obj 572 169 symbol;
#X msg 572 198 label \$1;
#X obj 572 343 s camomile;
#X msg 572 314 gui redraw;
#X obj 572 285 delay 10;
#X obj 572 227 t b a;
#X obj 604 256 s \$0-channels-label;
#X obj 506 32 r \$0-init;
#X msg 572 140 mono;
#X msg 623 140 stereo;
#X obj 572 111 sel 0 1, f 15;
#X obj 401 61 change;
#X msg 506 61 0;
#X connect 0 0 15 0;
#X connect 2 0 1 0;
#X connect 4 0 5 0;
#X connect 5 0 9 0;
#X connect 7 0 6 0;
#X connect 8 0 7 0;
#X connect 9 0 8 0;
#X connect 9 1 10 0;
#X connect 11 0 16 0;
#X connect 12 0 4 0;
#X connect 13 0 4 0;
#X connect 14 0 12 0;
#X connect 14 1 13 0;
#X connect 15 0 14 0;
#X connect 15 0 3 0;
#X connect 15 0 2 0;
#X connect 16 0 14 0;
#X connect 16 0 3 0;
#X connect 16 0 2 0;
#X restore 135 273 pd channels;
#X obj 191 306 *~;
#X obj 117 306 *~;
#X obj 488 271 nbx 2 19 1 99 0 0 \$0-grain-rate-numerator-s \$0-grain-rate-numerator-r
empty 0 -8 0 10 -49933 -183085 -183085 1 256;
#X obj 518 271 nbx 2 19 1 99 0 0 \$0-grain-rate-denominator-s \$0-grain-rate-denominator-r
empty 0 -8 0 10 -49933 -183085 -183085 1 256;
#X obj 12 189 clone grain-voice~ 16, f 26;
#N canvas -8 -8 1366 685 panic 0;
#X obj 48 32 r \$0-panic-s;
#X obj 48 61 until;
#X obj 48 90 f;
#X obj 97 90 + 1;
#X obj 48 119 t f f, f 10;
#X obj 48 148 sel 128;
#X obj 48 177 t b b;
#X msg 97 61 0;
#X obj 94 235 outlet;
#X msg 94 177 \$1 0;
#X obj 94 206 targetall;
#X connect 0 0 1 0;
#X connect 1 0 2 0;
#X connect 2 0 4 0;
#X connect 3 0 2 1;
#X connect 4 0 5 0;
#X connect 4 1 3 0;
#X connect 5 0 6 0;
#X connect 5 1 9 0;
#X connect 6 0 7 0;
#X connect 6 1 1 1;
#X connect 7 0 2 1;
#X connect 9 0 10 0;
#X connect 10 0 8 0;
#X restore 71 160 pd panic;
#X obj 432 273 tgl 15 0 \$0-grain-rate-sync-s \$0-grain-rate-sync-r
empty 17 7 0 10 -49933 -183085 -183085 0 1;
#X obj 451 272 cnv 15 15 15 empty \$0-text sync 0 6 0 14 -70738 -183085
0;
#N canvas 0 50 450 250 (subpatch) 0;
#X array \$0-sample-vis 2048 float 0;
#X coords 0 1 2047 -1 200 50 1 0 0;
#X restore 574 174 graph;
#X obj 854 192 cnv 15 15 15 empty \$0-window-sel-label-r cos 0 6 0
14 -70738 -183085 0;
#X obj 505 199 cnv 15 15 15 empty \$0-grain-duration-label-r ms 0 6
0 14 -70738 -183085 0;
#X obj 505 245 cnv 15 15 15 empty \$0-grain-rate-label-r ms 0 6 0 14
-70738 -183085 0;
#X obj 474 422 cnv 15 15 15 empty \$0-voice-poly-label monophonic 0
7 0 12 -70738 -183085 0;
#X obj 549 488 cnv 15 15 15 empty \$0-bendMode-label global 0 7 0 12
-70738 -183085 0;
#X obj 473 488 cnv 15 15 15 empty \$0-bendMode-text bend_mode: 0 7
0 12 -70738 -183085 0;
#X obj 626 368 cnv 15 15 15 empty \$0-offset-time-label-r ms 0 6 0
14 -70738 -183085 0;
#X obj 737 368 cnv 15 15 15 empty \$0-offset-pitch-label-r mid 0 6
0 14 -70738 -183085 0;
#X obj 848 368 cnv 15 15 15 empty \$0-offset-duration-label-r ms 0
6 0 14 -70738 -183085 0;
#X obj 756 245 cnv 15 15 15 empty \$0-channels-label mono 0 7 0 12
-70738 -183085 0;
#X obj 287 30 loadbang;
#X obj 287 59 s \$0-init;
#X connect 2 0 125 2;
#X connect 86 0 1 0;
#X connect 86 0 122 0;
#X connect 87 0 86 1;
#X connect 87 0 88 1;
#X connect 88 0 121 0;
#X connect 105 0 106 0;
#X connect 105 1 106 1;
#X connect 106 0 108 0;
#X connect 107 0 108 1;
#X connect 108 0 125 0;
#X connect 109 0 125 3;
#X connect 120 0 122 1;
#X connect 120 1 121 1;
#X connect 121 0 1 1;
#X connect 122 0 1 1;
#X connect 125 0 86 0;
#X connect 125 1 88 0;
#X connect 126 0 125 1;
#X connect 140 0 141 0;
#X coords 0 -1 1 1 553 376 1 420 143;
