#N canvas 793 0 798 729 12;
#X obj 27 285 - 1;
#X obj 27 314 pack 0 0 0;
#X obj 27 256 poly 16 1, f 10;
#X obj 27 227 unpack;
#X msg 27 198 1 1;
#X obj 27 576 *~;
#X obj 27 605 outlet~;
#X obj 192 576 *~;
#X obj 192 605 outlet~;
#X obj 109 169 inlet;
#X obj 370 285 inlet;
#X obj 329 353 adsr~, f 24;
#X obj 176 256 unpack f f;
#X obj 329 285 / 127;
#X obj 176 285 spigot;
#X obj 109 353 targetall;
#N canvas 676 0 681 676 switch 0;
#X obj 82 12 inlet~;
#X obj 82 99 snapshot~;
#X obj 205 16 loadbang;
#X obj 205 45 tgl 15 0 empty empty empty 17 7 0 10 -262144 -1 -1 1
1;
#X obj 12 12 r \$0-vel;
#X floatatom 82 131 5 0 0 0 - - -;
#X msg 12 188 1;
#X msg 82 188 0;
#X obj 82 159 sel 0;
#X obj 12 227 outlet;
#X obj 82 70 *~ 1;
#X obj 138 12 inlet;
#X obj 205 70 metro 1000;
#X obj 138 41 t b f;
#X connect 0 0 10 0;
#X connect 1 0 5 0;
#X connect 2 0 3 0;
#X connect 3 0 12 0;
#X connect 4 0 6 0;
#X connect 5 0 8 0;
#X connect 6 0 9 0;
#X connect 7 0 9 0;
#X connect 8 0 7 0;
#X connect 10 0 1 0;
#X connect 11 0 13 0;
#X connect 12 0 1 0;
#X connect 13 0 12 0;
#X connect 13 1 10 1;
#X restore 328 382 pd switch;
#X obj 328 411 switch~;
#X obj 243 285 s \$0-vel;
#X obj 370 314 route att dec sus rel, f 24;
#X obj 94 53 r dMab-grain-rate;
#X obj 388 100 inlet;
#X obj 388 149 t f f;
#X text 394 117 power;
#X obj 109 198 spigot;
#X obj 109 227 route bend;
#X obj 27 24 r dMab-grain-rate-metro;
#X obj 27 527 clone grain-instance~ 16;
#X obj 192 498 targetall;
#X obj 192 411 change;
#X obj 192 440 sel 1;
#X msg 192 469 zzz;
#X obj 37 111 r dMab-grain-rate-sync;
#X obj 27 140 spigot;
#X obj 174 169 inlet;
#X obj 27 82 metro 1000;
#X obj 109 295 f;
#X obj 109 256 t b f;
#X obj 109 324 +, f 5;
#X floatatom 51 375 5 0 0 0 - - -;
#X connect 0 0 1 0;
#X connect 1 0 27 0;
#X connect 2 0 0 0;
#X connect 2 1 1 1;
#X connect 2 2 1 2;
#X connect 3 0 2 0;
#X connect 3 1 2 1;
#X connect 4 0 3 0;
#X connect 5 0 6 0;
#X connect 7 0 8 0;
#X connect 9 0 24 0;
#X connect 10 0 19 0;
#X connect 11 0 7 1;
#X connect 11 0 5 1;
#X connect 11 0 16 0;
#X connect 12 0 14 0;
#X connect 12 1 13 0;
#X connect 12 1 14 1;
#X connect 12 1 18 0;
#X connect 13 0 11 0;
#X connect 14 0 36 0;
#X connect 15 0 27 1;
#X connect 16 0 17 0;
#X connect 16 0 29 0;
#X connect 16 0 33 1;
#X connect 19 0 11 1;
#X connect 19 1 11 2;
#X connect 19 2 11 3;
#X connect 19 3 11 4;
#X connect 19 4 11 0;
#X connect 20 0 35 1;
#X connect 21 0 22 0;
#X connect 22 0 16 1;
#X connect 22 1 24 1;
#X connect 24 0 25 0;
#X connect 25 0 37 0;
#X connect 25 1 12 0;
#X connect 26 0 35 0;
#X connect 27 0 5 0;
#X connect 27 1 7 0;
#X connect 28 0 27 2;
#X connect 29 0 30 0;
#X connect 30 0 31 0;
#X connect 31 0 28 0;
#X connect 32 0 33 0;
#X connect 33 0 4 0;
#X connect 34 0 24 0;
#X connect 35 0 33 0;
#X connect 36 0 38 0;
#X connect 37 0 36 0;
#X connect 37 1 38 1;
#X connect 38 0 15 0;
#X connect 38 0 39 0;
