#N canvas -8 -8 1366 685 12;
#X obj 27 246 - 1;
#X obj 27 275 pack 0 0 0;
#X obj 27 217 poly 16 1, f 10;
#X obj 27 188 unpack;
#X msg 27 159 1 1;
#X obj 27 613 *~;
#X obj 27 642 outlet~;
#X obj 229 613 *~;
#X obj 229 642 outlet~;
#X obj 175 6 inlet;
#X obj 180 217 unpack f f;
#X obj 247 241 / 127;
#X obj 180 246 spigot;
#N canvas -8 -8 1366 685 switch 0;
#X obj 93 12 inlet~;
#X obj 93 89 snapshot~;
#X obj 170 40 tgl 15 0 empty empty empty 17 7 0 10 #fcfcfc #000000
#000000 0 1;
#X msg 12 162 1;
#X msg 93 167 0;
#X obj 93 143 sel 0;
#X obj 170 60 metro 500;
#X obj 12 225 change;
#X obj 12 89 sel 0;
#X obj 93 196 spigot, f 9;
#X msg 178 167 1;
#X msg 153 167 0;
#X obj 178 138 delay 10;
#X obj 12 249 outlet;
#X text 16 342 este subparche recibe todas la envolvente \, si dicha
señal es igual a 0 entonces el dsp de esta voz se apaga hasta recibir
la próxima nota midi;
#X obj 44 113 t b b;
#X text 244 150 cuando se recibe un mensaje de noteon \, el dsp se
enciende y luego de un delay de 10 ms se permite el apagado;
#X obj 12 12 r \$0-dsp;
#X msg 170 16 0;
#X msg 195 16 1;
#X connect 0 0 1 0;
#X connect 1 0 5 0;
#X connect 2 0 6 0;
#X connect 3 0 7 0;
#X connect 4 0 9 0;
#X connect 5 0 4 0;
#X connect 6 0 1 0;
#X connect 7 0 13 0;
#X connect 8 0 19 0;
#X connect 8 1 15 0;
#X connect 9 0 7 0;
#X connect 10 0 9 1;
#X connect 11 0 9 1;
#X connect 12 0 10 0;
#X connect 15 0 3 0;
#X connect 15 1 12 0;
#X connect 15 1 11 0;
#X connect 15 1 18 0;
#X connect 17 0 8 0;
#X connect 18 0 2 0;
#X connect 19 0 2 0;
#X restore 261 376 pd switch;
#X obj 261 521 switch~;
#X obj 260 118 t f f;
#X obj 113 159 spigot;
#X obj 113 188 route bend;
#X obj 113 275 f;
#X obj 113 217 t b f;
#X obj 113 304 +, f 5;
#X obj 113 130 inlet;
#X obj 175 31 route bang adsr power rate pass;
#X obj 27 120 metro, f 9;
#X obj 27 91 route metro float;
#N canvas 638 86 450 555 help 0;
#X text 12 12 inlet 0: mensajes midi (nota + velocity);
#X text 12 39 inlet 1: recibe múltiples mensajes (bang enciende un
grano \, adsr trae parámetros de envolvente \, power apaga todas las
notas al cambiar entre mono y poly además de evitar que la inlet 0
reciba notas [power 0] y vuelve a permitir que la inlet 0 reciba notas
[power 1] \, rate activa o desactiva el encendido automático de los
granos [rate metro 1/0] y a qué frecuencia [rate float] \, y todos
los mensajes con el prefijo pass son enviados directamente a todas
las instancias de granos del [clone]);
#X text 12 189 la velocity de la nota midi se utiliza para disparar
la envolvente de la voz \, mientras que la altura de la nota es enviada
a todos los granos \; para encender los granos uso el falso mensaje
de nota midi [1 1( en conjunción con el objeto [poly] para así poder
iterar ordenadamente las instancias de granos del [clone] \, luego
esa "entrada midi" se convierte en un simple bang que le indica al
grano que debe encenderse;
#X text 31 361 (para más información revisar [pd help] dentro de
[granola-grain~]);
#X restore 720 639 pd help;
#X text 373 580 esta abstracción está pensada para ser instanciada
por un objeto [clone] y representa una voz del sintetizador \, está
constituida por una serie de granos producidos por otro [clone];
#X obj 260 147 sel 0;
#X msg 260 217 0;
#X obj 247 294 s \$0-vel;
#X obj 247 323 r \$0-vel;
#X obj 247 270 t f f, f 10;
#X obj 314 294 s \$0-dsp;
#X obj 113 357 list trim;
#X obj 113 333 list prepend all;
#X obj 346 535 list trim;
#X obj 346 511 list prepend all;
#X obj 27 564 clone ./granola-grain~ 16;
#X obj 261 400 t b f, f 7;
#X obj 261 497 f;
#X obj 247 347 pd-adsr/adsr~;
#X obj 307 444 * 15;
#X obj 261 473 delay, f 7;
#X msg 356 482 switch \$1;
#X connect 0 0 1 0;
#X connect 1 0 37 0;
#X connect 2 0 0 0;
#X connect 2 1 1 1;
#X connect 2 2 1 2;
#X connect 3 0 2 0;
#X connect 3 1 2 1;
#X connect 4 0 3 0;
#X connect 5 0 6 0;
#X connect 7 0 8 0;
#X connect 9 0 22 0;
#X connect 10 0 12 0;
#X connect 10 1 12 1;
#X connect 10 1 11 0;
#X connect 11 0 31 0;
#X connect 12 0 18 0;
#X connect 13 0 38 0;
#X connect 15 0 27 0;
#X connect 15 1 16 1;
#X connect 16 0 17 0;
#X connect 17 0 19 0;
#X connect 17 1 10 0;
#X connect 18 0 20 0;
#X connect 19 0 18 0;
#X connect 19 1 20 1;
#X connect 20 0 34 0;
#X connect 21 0 16 0;
#X connect 22 0 4 0;
#X connect 22 1 40 1;
#X connect 22 2 15 0;
#X connect 22 3 24 0;
#X connect 22 4 36 0;
#X connect 23 0 4 0;
#X connect 24 0 23 0;
#X connect 24 1 23 1;
#X connect 27 0 28 0;
#X connect 28 0 31 0;
#X connect 30 0 40 0;
#X connect 31 0 29 0;
#X connect 31 1 32 0;
#X connect 33 0 37 1;
#X connect 34 0 33 0;
#X connect 35 0 37 2;
#X connect 36 0 35 0;
#X connect 37 0 5 0;
#X connect 37 1 7 0;
#X connect 38 0 42 0;
#X connect 38 1 39 1;
#X connect 38 1 41 0;
#X connect 38 1 43 0;
#X connect 39 0 14 0;
#X connect 40 0 7 1;
#X connect 40 0 5 1;
#X connect 40 0 13 0;
#X connect 41 0 42 1;
#X connect 42 0 39 0;
#X connect 43 0 36 0;
