#N canvas 3 35 677 708 12;
#X obj 408 12 inlet;
#X obj 408 42 t b b;
#X obj 93 297 +;
#X obj 93 337 t f f;
#X obj 126 367 +;
#X obj 93 397 pack f f f;
#X msg 93 427 \$1 \, \$2 \$3;
#X obj 93 457 line~;
#X obj 93 616 *~;
#X obj 93 645 outlet~;
#X obj 180 616 *~;
#X obj 180 645 outlet~;
#X obj 360 340 f;
#X obj 360 390 pack f f;
#X msg 360 420 0 \, \$1 \$2;
#X obj 360 450 line~;
#X obj 360 550 *~;
#X obj 552 12 inlet;
#X obj 657 100 route manual noteon;
#X msg 706 165 0;
#X msg 731 165 1;
#X obj 667 165 f;
#X obj 667 195 spigot;
#X obj 657 225 s \$0-phase;
#X text 593 12 midi note;
#X text 449 12 grain on;
#X obj 408 102 s \$0-on;
#X obj 360 250 r \$0-on;
#X obj 93 207 r \$0-on;
#N canvas 459 35 449 708 pitch 0;
#X obj 12 547 outlet;
#X obj 12 477 f;
#X obj 12 507 *;
#X obj 12 272 -, f 4;
#X obj 90 332 mtof;
#X obj 12 417 /;
#X obj 47 447 t b f;
#X obj 30 72 r \$0-midiNote;
#X obj 75 162 t b f;
#X obj 44 202 -, f 5;
#N canvas 914 35 449 708 pitch-offset 0;
#X obj 12 460 outlet;
#X obj 12 41 random 100;
#X obj 42 243 random;
#X obj 42 301 t b f, f 8;
#X obj 42 330 f;
#X obj 42 272 * 0.01;
#X obj 42 359 spigot;
#X obj 130 360 spigot;
#X msg 12 128 0;
#X obj 12 99 sel 0 1, f 9;
#X obj 93 41 r \$0-offset-pitch-chance;
#X obj 60 128 r \$0-offset-pitch;
#X obj 113 330 r \$0-offset-pitch-precis;
#X obj 12 70 <, f 12;
#X obj 169 300 == 0;
#X obj 81 158 t f f, f 7;
#X obj 127 188 > 0;
#X obj 81 188 * 100;
#X obj 81 213 abs;
#X obj 95 370 *;
#X obj 42 410 -;
#X obj 130 410 +;
#X obj 12 12 r \$0-calculate;
#X connect 1 0 13 0;
#X connect 2 0 5 0;
#X connect 3 0 4 0;
#X connect 3 1 19 0;
#X connect 4 0 6 0;
#X connect 4 0 7 0;
#X connect 5 0 3 0;
#X connect 6 0 20 0;
#X connect 7 0 21 0;
#X connect 8 0 0 0;
#X connect 9 0 8 0;
#X connect 9 1 2 0;
#X connect 10 0 13 1;
#X connect 11 0 4 1;
#X connect 11 0 15 0;
#X connect 12 0 19 1;
#X connect 13 0 9 0;
#X connect 14 0 7 1;
#X connect 15 0 17 0;
#X connect 15 1 16 0;
#X connect 16 0 14 0;
#X connect 16 0 6 1;
#X connect 17 0 18 0;
#X connect 18 0 2 1;
#X connect 19 0 20 1;
#X connect 19 0 21 1;
#X connect 20 0 0 0;
#X connect 21 0 0 0;
#X connect 22 0 1 0;
#X restore 75 132 pd pitch-offset;
#X obj 47 417 inlet;
#X obj 62 102 r \$0-sample-note;
#X obj 12 362 pow, f 5;
#X msg 12 332 2;
#X obj 12 302 t b f;
#X obj 44 332 / 12;
#X obj 12 387 *, f 11;
#X obj 44 232 t b f f;
#X obj 12 12 r \$0-calculate;
#X obj 12 102 f;
#X obj 12 42 t b b;
#X obj 44 162 f;
#X connect 1 0 2 0;
#X connect 2 0 0 0;
#X connect 3 0 15 0;
#X connect 4 0 5 1;
#X connect 4 0 17 1;
#X connect 5 0 1 0;
#X connect 6 0 1 0;
#X connect 6 1 2 1;
#X connect 7 0 20 1;
#X connect 8 0 9 0;
#X connect 8 1 9 1;
#X connect 9 0 18 0;
#X connect 10 0 8 0;
#X connect 11 0 6 0;
#X connect 12 0 22 1;
#X connect 13 0 17 0;
#X connect 14 0 13 0;
#X connect 15 0 14 0;
#X connect 15 1 16 0;
#X connect 16 0 13 1;
#X connect 17 0 5 0;
#X connect 18 0 3 0;
#X connect 18 1 3 1;
#X connect 18 2 4 0;
#X connect 19 0 21 0;
#X connect 20 0 3 0;
#X connect 21 0 20 0;
#X connect 21 1 22 0;
#X connect 22 0 9 0;
#X restore 144 307 pd pitch;
#X obj 552 42 s \$0-midiNote;
#X obj 237 237 +;
#X obj 247 207 t b f;
#X obj 836 20 inlet;
#X msg 269 430 0 5;
#N canvas 459 35 449 708 samptoms 0;
#X obj 53 88 inlet;
#X obj 53 173 outlet;
#X obj 99 88 r \$0-sample-rate;
#X obj 99 113 * 0.001;
#X obj 53 143 /, f 7;
#X connect 0 0 4 0;
#X connect 2 0 3 0;
#X connect 3 0 4 1;
#X connect 4 0 1 0;
#X restore 269 338 pd samptoms;
#X obj 237 267 sel 0;
#X obj 93 557 tabread4~;
#X obj 180 557 tabread4~;
#X obj 360 510 tabread4~;
#X msg 103 527 set \$1-sampleL;
#X msg 215 527 set \$1-sampleR;
#X obj 933 90 s \$0-duration;
#X obj 255 117 r \$0-duration;
#N canvas 686 35 677 708 offset 0;
#X obj 20 43 inlet;
#X obj 20 83 route playhead pitch duration;
#N canvas 914 35 449 708 playhead 0;
#X obj 26 16 inlet;
#X obj 26 86 s \$0-offset-playhead;
#X obj 26 56 route float chance precis;
#X obj 83 111 s \$0-offset-playhead-chance;
#X obj 140 136 s \$0-offset-playhead-precis;
#X connect 0 0 2 0;
#X connect 2 0 1 0;
#X connect 2 1 3 0;
#X connect 2 2 4 0;
#X restore 20 113 pd playhead;
#N canvas 914 35 449 708 pitch 0;
#X obj 26 16 inlet;
#X obj 26 56 route float chance precis;
#X obj 26 86 s \$0-offset-pitch;
#X obj 83 111 s \$0-offset-pitch-chance;
#X obj 140 136 s \$0-offset-pitch-precis;
#X connect 0 0 1 0;
#X connect 1 0 2 0;
#X connect 1 1 3 0;
#X connect 1 2 4 0;
#X restore 111 113 pd pitch;
#N canvas 914 35 449 708 duration 0;
#X obj 26 16 inlet;
#X obj 26 56 route float chance precis;
#X obj 83 111 s \$0-offset-duration-chance;
#X obj 26 86 s \$0-offset-duration;
#X obj 140 136 s \$0-offset-duration-precis;
#X connect 0 0 1 0;
#X connect 1 0 3 0;
#X connect 1 1 2 0;
#X connect 1 2 4 0;
#X restore 181 113 pd duration;
#X connect 0 0 1 0;
#X connect 1 0 2 0;
#X connect 1 1 3 0;
#X connect 1 2 4 0;
#X restore 982 120 pd offset parse;
#N canvas 686 35 677 708 window 0;
#X obj 31 31 inlet;
#X obj 31 101 s \$0-window-duration;
#X obj 93 126 s \$0-window-smooth;
#X obj 155 151 s \$0-window-shape;
#X obj 31 71 route duration smooth shape;
#X connect 0 0 4 0;
#X connect 4 0 1 0;
#X connect 4 1 2 0;
#X connect 4 2 3 0;
#X restore 1030 90 pd window;
#X obj 668 331 r \$0-window-smooth;
#X obj 378 310 r \$0-window-duration;
#N canvas 1027 35 336 708 sample 0;
#X obj 14 15 inlet;
#X obj 14 85 s \$0-sample-rate;
#X obj 65 110 s \$0-sample-note;
#X obj 14 55 route rate note;
#X connect 0 0 3 0;
#X connect 3 0 1 0;
#X connect 3 1 2 0;
#X restore 1101 120 pd sample;
#N canvas 686 35 677 708 playhead 0;
#X obj 53 30 inlet;
#X obj 53 100 s \$0-playhead-pos;
#X obj 53 70 route pos;
#X connect 0 0 2 0;
#X connect 2 0 1 0;
#X restore 1128 90 pd playhead;
#X obj 657 70 r \$0-playhead-pos;
#N canvas 557 147 450 296 help 0;
#X text 20 9 inlet 0: triggers the grain \, because of the way clone
object works i couldn't use a single bang because in order to orderly
traverse through every instance i needed a midi note message in conjunction
with poly object \, therefore the [1 1( whose only purpose is to then
be converted to bangs (one to calculate any random aspect of the grain
\, then another to actually trigger it);
#X text 15 140 inlet 1: actual midi note (note only \, no velocity
since that is managed by the voice patch one level above) is sent through
here to all grains simultaneously;
#X text 17 205 inlet 2: this is where most stuff is sent (power off
grains [ramp envelope down to 0 in 5 ms] \, get the \$0 value [ind]
of the main patch in order to be able to read from the sample and window
tables \, and every parameter needed [most of them]);
#X restore 13 11 pd help;
#X obj 215 497 r \$0-id;
#X obj 884 120 s \$0-id;
#X text 902 563 esta abstracción está pensada para ser instanciada
por un objeto [clone] y representa un grano que forma parte de una
voz del sintetizador;
#X text 885 146 id se utiliza para construir dinámicamente los nombres
de las tablas ubicadas en el parche principal \, para que el grano
pueda leer de ellas;
#X obj 836 90 s \$0-switch;
#X obj 440 396 r \$0-window-shape;
#X obj 440 456 list prepend;
#X obj 521 426 r \$0-id;
#X msg 440 480 set \$1-\$2;
#X obj 360 480 +~ 1;
#X obj 360 280 t b b;
#X obj 650 421 delay;
#X obj 591 511 line~;
#X obj 668 361 * 10;
#X obj 682 391 -;
#X obj 591 451 f;
#X obj 650 451 f;
#X msg 650 481 1 \, 0 \$1;
#X msg 591 481 0 \, 1 \$1;
#X obj 269 380 r \$0-switch;
#X obj 630 301 r \$0-switch;
#X obj 591 330 spigot;
#X obj 269 405 sel 0;
#X msg 667 140 bang;
#N canvas 686 35 677 708 duration-offset 0;
#X obj 12 460 outlet;
#X obj 12 41 random 100;
#X obj 42 243 random;
#X obj 42 301 t b f, f 8;
#X obj 42 330 f;
#X obj 42 272 * 0.01;
#X obj 42 359 spigot;
#X obj 130 360 spigot;
#X msg 12 128 0;
#X obj 12 99 sel 0 1, f 9;
#X obj 12 70 <, f 12;
#X obj 169 300 == 0;
#X obj 81 158 t f f, f 7;
#X obj 127 188 > 0;
#X obj 81 188 * 100;
#X obj 81 213 abs;
#X obj 95 370 *;
#X obj 42 410 -;
#X obj 130 410 +;
#X obj 93 41 r \$0-offset-duration-chance;
#X obj 60 128 r \$0-offset-duration;
#X obj 113 330 r \$0-offset-duration-precis;
#X obj 12 12 r \$0-calculate;
#X connect 1 0 10 0;
#X connect 2 0 5 0;
#X connect 3 0 4 0;
#X connect 3 1 16 0;
#X connect 4 0 6 0;
#X connect 4 0 7 0;
#X connect 5 0 3 0;
#X connect 6 0 17 0;
#X connect 7 0 18 0;
#X connect 8 0 0 0;
#X connect 9 0 8 0;
#X connect 9 1 2 0;
#X connect 10 0 9 0;
#X connect 11 0 7 1;
#X connect 12 0 14 0;
#X connect 12 1 13 0;
#X connect 13 0 11 0;
#X connect 13 0 6 1;
#X connect 14 0 15 0;
#X connect 15 0 2 1;
#X connect 16 0 17 1;
#X connect 16 0 18 1;
#X connect 17 0 0 0;
#X connect 18 0 0 0;
#X connect 19 0 10 1;
#X connect 20 0 4 1;
#X connect 20 0 12 0;
#X connect 21 0 16 1;
#X connect 22 0 1 0;
#X restore 247 177 pd duration-offset;
#N canvas 1027 35 336 708 time-offset 0;
#X obj 12 460 outlet;
#X obj 12 41 random 100;
#X obj 42 243 random;
#X obj 42 301 t b f, f 8;
#X obj 42 330 f;
#X obj 42 272 * 0.01;
#X obj 42 359 spigot;
#X obj 130 360 spigot;
#X msg 12 128 0;
#X obj 12 99 sel 0 1, f 9;
#X obj 12 70 <, f 12;
#X obj 169 300 == 0;
#X obj 81 158 t f f, f 7;
#X obj 127 188 > 0;
#X obj 81 188 * 100;
#X obj 81 213 abs;
#X obj 95 370 *;
#X obj 42 410 -;
#X obj 130 410 +;
#X obj 93 41 r \$0-offset-playhead-chance;
#X obj 60 128 r \$0-offset-playhead;
#X obj 113 330 r \$0-offset-playhead-precis;
#X obj 12 12 r \$0-calculate;
#X connect 1 0 10 0;
#X connect 2 0 5 0;
#X connect 3 0 4 0;
#X connect 3 1 16 0;
#X connect 4 0 6 0;
#X connect 4 0 7 0;
#X connect 5 0 3 0;
#X connect 6 0 17 0;
#X connect 7 0 18 0;
#X connect 8 0 0 0;
#X connect 9 0 8 0;
#X connect 9 1 2 0;
#X connect 10 0 9 0;
#X connect 11 0 7 1;
#X connect 12 0 14 0;
#X connect 12 1 13 0;
#X connect 13 0 11 0;
#X connect 13 0 6 1;
#X connect 14 0 15 0;
#X connect 15 0 2 1;
#X connect 16 0 17 1;
#X connect 16 0 18 1;
#X connect 17 0 0 0;
#X connect 18 0 0 0;
#X connect 19 0 10 1;
#X connect 20 0 4 1;
#X connect 20 0 12 0;
#X connect 21 0 16 1;
#X connect 22 0 1 0;
#X restore 128 267 pd time-offset;
#X obj 440 72 s \$0-calculate;
#X obj 237 87 r \$0-calculate;
#X obj 237 147 f;
#X obj 1176 120 s \$0-phas;
#X obj 111 237 r \$0-phas;
#X obj 93 267 f;
#X obj 836 60 route switch id duration offset window sample playhead
phas dir, f 63;
#X obj 1226 90 s \$0-dir;
#N canvas 686 35 677 708 dir 1;
#X obj 260 180 r \$0-dir;
#X obj 205 405 *, f 5;
#X obj 237 290 spigot;
#X obj 205 260 t f b;
#X msg 260 260 1;
#X msg 324 260 0;
#X obj 237 315 random 2;
#X obj 237 340 sel 0;
#X obj 292 230 t f b;
#X obj 260 205 sel 2;
#X obj 205 180 inlet;
#X obj 205 445 outlet;
#X msg 237 365 1;
#X msg 269 365 -1;
#X connect 0 0 9 0;
#X connect 1 0 11 0;
#X connect 2 0 6 0;
#X connect 3 0 1 0;
#X connect 3 1 2 0;
#X connect 4 0 2 1;
#X connect 5 0 2 1;
#X connect 6 0 7 0;
#X connect 7 0 12 0;
#X connect 7 1 13 0;
#X connect 8 0 7 0;
#X connect 8 1 5 0;
#X connect 9 0 4 0;
#X connect 9 1 8 0;
#X connect 10 0 3 0;
#X connect 12 0 1 1;
#X connect 13 0 1 1;
#X restore 144 337 pd dir;
#X connect 0 0 1 0;
#X connect 1 0 26 0;
#X connect 1 1 78 0;
#X connect 2 0 3 0;
#X connect 3 0 5 0;
#X connect 3 1 4 0;
#X connect 4 0 5 1;
#X connect 5 0 6 0;
#X connect 6 0 7 0;
#X connect 7 0 37 0;
#X connect 7 0 38 0;
#X connect 8 0 9 0;
#X connect 10 0 11 0;
#X connect 12 0 13 0;
#X connect 13 0 14 0;
#X connect 14 0 15 0;
#X connect 15 0 61 0;
#X connect 16 0 10 1;
#X connect 16 0 8 1;
#X connect 17 0 30 0;
#X connect 17 0 75 0;
#X connect 18 0 19 0;
#X connect 18 0 23 0;
#X connect 18 1 20 0;
#X connect 18 1 21 1;
#X connect 19 0 22 1;
#X connect 20 0 22 1;
#X connect 21 0 22 0;
#X connect 22 0 23 0;
#X connect 27 0 62 0;
#X connect 28 0 83 0;
#X connect 29 0 86 0;
#X connect 31 0 36 0;
#X connect 32 0 31 0;
#X connect 32 1 31 1;
#X connect 33 0 84 0;
#X connect 34 0 15 0;
#X connect 35 0 13 1;
#X connect 35 0 5 2;
#X connect 35 0 66 0;
#X connect 36 1 29 0;
#X connect 36 1 35 0;
#X connect 37 0 8 0;
#X connect 38 0 10 0;
#X connect 39 0 16 0;
#X connect 40 0 37 0;
#X connect 41 0 38 0;
#X connect 43 0 80 1;
#X connect 46 0 65 0;
#X connect 47 0 12 1;
#X connect 50 0 18 0;
#X connect 52 0 40 0;
#X connect 52 0 41 0;
#X connect 57 0 58 0;
#X connect 58 0 60 0;
#X connect 59 0 58 1;
#X connect 60 0 39 0;
#X connect 61 0 39 0;
#X connect 62 0 12 0;
#X connect 62 1 73 0;
#X connect 63 0 68 0;
#X connect 64 0 16 1;
#X connect 65 0 66 1;
#X connect 65 0 68 1;
#X connect 65 0 67 1;
#X connect 66 0 63 1;
#X connect 67 0 70 0;
#X connect 68 0 69 0;
#X connect 69 0 64 0;
#X connect 70 0 64 0;
#X connect 71 0 74 0;
#X connect 72 0 73 1;
#X connect 73 0 67 0;
#X connect 73 0 63 0;
#X connect 74 0 34 0;
#X connect 75 0 21 0;
#X connect 76 0 32 0;
#X connect 77 0 2 1;
#X connect 79 0 80 0;
#X connect 80 0 31 0;
#X connect 82 0 83 1;
#X connect 83 0 2 0;
#X connect 84 0 56 0;
#X connect 84 1 53 0;
#X connect 84 2 42 0;
#X connect 84 3 44 0;
#X connect 84 4 45 0;
#X connect 84 5 48 0;
#X connect 84 6 49 0;
#X connect 84 7 81 0;
#X connect 84 8 85 0;
#X connect 86 0 4 1;
