#N canvas -8 -8 1366 685 12;
#X obj 457 375 *~;
#X obj 516 375 *~;
#X obj 575 375 *~;
#X obj 397 172 inlet;
#X msg 417 356 0;
#X msg 475 297 1;
#X msg 534 297 1;
#X msg 593 297 1;
#X obj 475 268 t b b;
#X obj 534 268 t b b;
#X obj 593 268 t b b;
#X obj 417 231 sel 0 1 2 3 4 5 6 7 8, f 76;
#X obj 634 375 *~;
#X msg 652 297 1;
#X obj 652 268 t b b;
#X obj 692 375 *~;
#X obj 751 375 *~;
#X obj 810 375 *~;
#X msg 710 297 1;
#X msg 769 297 1;
#X msg 828 297 1;
#X obj 710 268 t b b;
#X obj 769 268 t b b;
#X obj 828 268 t b b;
#X obj 869 375 *~;
#X msg 887 297 1;
#X obj 887 268 t b b;
#X obj 633 433 outlet~;
#X obj 457 172 inlet~;
#X obj 516 172 inlet~;
#X obj 575 172 inlet~;
#X obj 634 172 inlet~;
#X obj 693 172 inlet~;
#X obj 752 172 inlet~;
#X obj 811 172 inlet~;
#X obj 870 172 inlet~;
#X connect 0 0 27 0;
#X connect 1 0 27 0;
#X connect 2 0 27 0;
#X connect 3 0 11 0;
#X connect 4 0 0 1;
#X connect 4 0 1 1;
#X connect 4 0 2 1;
#X connect 4 0 12 1;
#X connect 4 0 15 1;
#X connect 4 0 16 1;
#X connect 4 0 17 1;
#X connect 4 0 24 1;
#X connect 5 0 0 1;
#X connect 6 0 1 1;
#X connect 7 0 2 1;
#X connect 8 0 5 0;
#X connect 8 1 4 0;
#X connect 9 0 6 0;
#X connect 9 1 4 0;
#X connect 10 0 7 0;
#X connect 10 1 4 0;
#X connect 11 0 4 0;
#X connect 11 1 8 0;
#X connect 11 2 9 0;
#X connect 11 3 10 0;
#X connect 11 4 14 0;
#X connect 11 5 21 0;
#X connect 11 6 22 0;
#X connect 11 7 23 0;
#X connect 11 8 26 0;
#X connect 12 0 27 0;
#X connect 13 0 12 1;
#X connect 14 0 13 0;
#X connect 14 1 4 0;
#X connect 15 0 27 0;
#X connect 16 0 27 0;
#X connect 17 0 27 0;
#X connect 18 0 15 1;
#X connect 19 0 16 1;
#X connect 20 0 17 1;
#X connect 21 0 18 0;
#X connect 21 1 4 0;
#X connect 22 0 19 0;
#X connect 22 1 4 0;
#X connect 23 0 20 0;
#X connect 23 1 4 0;
#X connect 24 0 27 0;
#X connect 25 0 24 1;
#X connect 26 0 25 0;
#X connect 26 1 4 0;
#X connect 28 0 0 0;
#X connect 29 0 1 0;
#X connect 30 0 2 0;
#X connect 31 0 12 0;
#X connect 32 0 15 0;
#X connect 33 0 16 0;
#X connect 34 0 17 0;
#X connect 35 0 24 0;
